<?xml version="1.0" encoding="UTF-8" standalone="no"?>
<!DOCTYPE svg PUBLIC "-//W3C//DTD SVG 1.1//EN" "http://www.w3.org/Graphics/SVG/1.1/DTD/svg11.dtd">
<!-- Created with Vectornator (http://vectornator.io/) -->
<svg height="144.0pt" stroke-miterlimit="10" style="fill-rule:nonzero;clip-rule:evenodd;stroke-linecap:round;stroke-linejoin:round;" version="1.1" viewBox="0 0 144 144" width="144.0pt" xml:space="preserve" xmlns="http://www.w3.org/2000/svg" xmlns:xlink="http://www.w3.org/1999/xlink">
<defs/>
<g id="Camada-1">
<g opacity="1">
<path d="M72 3C110.108 3 141 33.8924 141 72C141 110.108 110.108 141 72 141C33.8924 141 3 110.108 3 72C3 33.8924 33.8924 3 72 3Z" fill="#ea4c4c" fill-rule="nonzero" stroke="none"/>
<path d="M72.0019 2.97978C71.9915 2.97961 71.9803 2.99117 71.9801 3.00153C71.9799 3.01188 71.9915 3.01876 72.0019 3.01893C75.1362 3.06229 78.2534 3.2084 81.3631 3.62793C78.2522 3.20733 75.1379 3.0356 72.0019 2.97978ZM60.1088 4.01944C59.5538 4.11582 59.0039 4.23116 58.4515 4.34134C59.0038 4.23097 59.5541 4.11601 60.1088 4.01944ZM58.4515 4.34134C58.1442 4.40274 57.8357 4.45406 57.5293 4.51969C57.8358 4.45415 58.1441 4.40264 58.4515 4.34134ZM57.5293 4.51969C56.9459 4.64443 56.3648 4.78427 55.7849 4.92424C56.365 4.78399 56.9458 4.64468 57.5293 4.51969ZM55.7849 4.92424C55.5357 4.98449 55.2852 5.03955 55.0367 5.1026C55.285 5.03969 55.5359 4.98436 55.7849 4.92424ZM55.0367 5.1026C54.2975 5.28983 53.5638 5.4955 52.8312 5.70725C53.5639 5.49515 54.2974 5.29016 55.0367 5.1026ZM84.0254 4.04119C90.2138 5.13111 96.2476 7.09071 101.904 9.82239C109.549 13.5145 116.491 18.6257 122.293 24.8257C127.843 30.757 132.337 37.693 135.478 45.1839C138.116 51.4768 139.802 58.1724 140.467 64.9635C141.223 72.6832 140.685 80.5403 138.858 88.0796C133.656 109.538 118.126 127.392 97.6801 135.66C89.5423 138.951 80.7788 140.627 72.0019 140.628C62.852 140.63 53.7117 138.808 45.2796 135.251C25.3364 126.839 10.2143 109.138 5.11565 88.0883C3.10647 79.7936 2.65237 71.1142 3.76713 62.6536C4.65467 55.9175 6.57097 49.3067 9.40044 43.1306C12.6278 36.086 17.0815 29.5966 22.468 24.0296C26.83 19.5214 31.7962 15.6055 37.2015 12.4281C19.051 23.0479 6.38885 41.6238 3.48438 62.6188C2.5195 69.5935 2.60607 76.7359 3.76713 83.6817C4.88859 90.3906 7.01363 96.9533 10.0529 103.039C13.6953 110.333 18.6365 116.971 24.569 122.562C30.798 128.433 38.1219 133.112 46.0495 136.33C54.2705 139.668 63.1307 141.37 72.0019 141.372C81.2492 141.374 90.4856 139.52 99.0025 135.913C106.874 132.578 114.11 127.768 120.235 121.805C126.351 115.852 131.385 108.794 134.943 101.03C137.788 94.8187 139.71 88.1677 140.602 81.3936C141.723 72.8878 141.268 64.1666 139.245 55.8284C134.396 35.845 120.435 18.6988 101.917 9.79629C96.2532 7.07329 90.2156 5.13007 84.0254 4.04119ZM52.6224 5.76815C51.8522 5.99344 51.0875 6.22951 50.3256 6.48156C51.086 6.22969 51.8536 5.99334 52.6224 5.76815ZM50.1864 6.52506C49.3895 6.79057 48.598 7.07456 47.8113 7.36897C48.5986 7.07392 49.3887 6.79114 50.1864 6.52506ZM47.8113 7.36897C47.0141 7.6673 46.2217 7.981 45.4362 8.30858C46.2214 7.98055 47.0141 7.66772 47.8113 7.36897ZM45.4362 8.30858C44.6512 8.63591 43.8724 8.9791 43.1002 9.33518C43.8723 8.97832 44.6509 8.6366 45.4362 8.30858ZM43.1002 9.33518C42.7615 9.49135 42.4184 9.639 42.0823 9.80064C41.6895 9.98953 41.3135 10.2049 40.9252 10.4009C41.6446 10.0364 42.3677 9.67372 43.1002 9.33518ZM40.9252 10.4009C40.4681 10.6325 40.0152 10.8725 39.5636 11.1144C40.0153 10.8735 40.4672 10.6321 40.9252 10.4009ZM39.5636 11.1144C38.8718 11.4833 38.1829 11.854 37.506 12.2454C38.1829 11.8522 38.8734 11.484 39.5636 11.1144Z" fill="#000000" stroke="none"/>
</g>
<g opacity="1">
<path d="M95.3513 44.313C95.3513 42.931 94.7911 41.6797 93.8854 40.774C92.9797 39.8683 91.7285 39.3081 90.3464 39.3081L72 39.3081L53.6536 39.3081C52.2715 39.3081 51.0203 39.8683 50.1146 40.774C49.2089 41.6797 48.6487 42.931 48.6487 44.313L48.6487 72L48.6487 99.687C48.6487 101.069 49.2089 102.32 50.1146 103.226C51.0203 104.132 52.2715 104.692 53.6536 104.692L72 104.692L90.3464 104.692C91.7285 104.692 92.9797 104.132 93.8854 103.226C94.7911 102.32 95.3513 101.069 95.3513 99.687L95.3513 72L95.3513 44.313Z" fill="#0d1625" fill-opacity="0" fill-rule="nonzero" opacity="1" stroke="#ffffff" stroke-linecap="butt" stroke-linejoin="round" stroke-width="3.25"/>
<path d="M64.9172 74.4582C64.781 71.2558 65.5791 67.9074 67.1603 65.3912C68.7414 62.8751 71.0917 61.228 73.5853 61.0168C76.0788 60.8057 78.6861 62.0433 80.6453 64.4951C82.6045 66.947 83.887 70.5915 84.0514 74.4582C84.2158 78.325 83.2521 82.3679 81.343 85.406C79.4339 88.4441 76.5961 90.4329 73.5853 90.6878C70.5745 90.9428 67.4264 89.4485 65.0608 86.488C62.6952 83.5276 61.1467 79.1271 60.9482 74.4582C60.7497 69.7894 61.9132 64.9078 64.2183 61.2395C66.5235 57.5712 69.9499 55.17 73.5853 54.8621C77.2206 54.5543 81.0217 56.3586 83.878 59.9331C86.7343 63.5076 88.604 68.821 88.8437 74.4582C89.0834 80.0955 87.6785 85.9897 84.8952 90.4189C82.1119 94.8482 77.9747 97.7475 73.5853 98.1192C69.1958 98.4909 64.6063 96.3124 61.1575 91.9964C57.7088 87.6804 55.4512 81.2649 55.1618 74.4582C54.8724 67.6516 56.5687 60.5348 59.9293 55.1868C63.2899 49.8388 68.2853 46.338 73.5853 45.8892C78.8852 45.4405 84.4267 48.0709 88.5909 53.2822" fill="none" opacity="1" stroke="#ffffff" stroke-linecap="round" stroke-linejoin="round" stroke-width="3.25"/>
</g>
</g>
</svg>
