<?xml version="1.0" encoding="UTF-8" standalone="no"?>
<!DOCTYPE svg PUBLIC "-//W3C//DTD SVG 1.1//EN" "http://www.w3.org/Graphics/SVG/1.1/DTD/svg11.dtd">
<!-- Created with Vectornator (http://vectornator.io/) -->
<svg height="100%" stroke-miterlimit="10" style="fill-rule:nonzero;clip-rule:evenodd;stroke-linecap:round;stroke-linejoin:round;" version="1.1" viewBox="2.75 2.75 138.5 138.5" width="100%" xml:space="preserve" xmlns="http://www.w3.org/2000/svg" xmlns:vectornator="http://vectornator.io" xmlns:xlink="http://www.w3.org/1999/xlink">
<defs/>
<g id="Layer">
<g opacity="1">
<g opacity="1">
<path d="M72 141C33.8924 141 3 110.108 3 72C3 33.8924 33.8924 3 72 3C110.108 3 141 33.8924 141 72C141 110.108 110.108 141 72 141Z" fill="#0d1633" fill-rule="nonzero" stroke="none"/>
<path d="M71.9994 2.81319C62.7766 2.81237 53.5673 4.65696 45.0719 8.25261C37.2193 11.5762 29.9973 16.3759 23.8839 22.3186C17.7778 28.254 12.7509 35.2909 9.19179 43.0327C6.3437 49.2279 4.41491 55.8612 3.51323 62.6207C2.38038 71.113 2.82023 79.8265 4.82634 88.1568C7.61594 99.7406 13.4899 110.549 21.6533 119.224C27.4757 125.411 34.4301 130.51 42.0848 134.194C46.1291 136.141 50.3656 137.692 54.7116 138.816C50.3663 137.69 46.1351 136.135 42.0935 134.185C34.4451 130.496 27.4964 125.384 21.6881 119.189C16.1295 113.26 11.6242 106.326 8.47001 98.8356C5.81901 92.5404 4.12143 85.8443 3.44366 79.0476C2.67277 71.3171 3.19945 63.4439 5.01765 55.8899C8.31739 42.1806 15.9503 29.6202 26.5405 20.3185C32.3725 15.1961 39.0569 11.0812 46.2502 8.16999C54.4093 4.86796 63.1988 3.18791 71.9994 3.18712C81.1735 3.18631 90.3349 5.01716 98.7878 8.58741C108.292 12.6018 116.873 18.7904 123.693 26.5318C131.062 34.8958 136.385 45.0429 138.994 55.8855C140.993 64.1941 141.433 72.8823 140.303 81.3521C139.404 88.0925 137.478 94.7101 134.637 100.888C131.399 107.931 126.939 114.419 121.545 119.985C118.59 123.035 115.358 125.817 111.902 128.281C115.667 125.611 119.176 122.583 122.341 119.219C127.916 113.294 132.441 106.363 135.62 98.8747C138.294 92.5756 140.019 85.8676 140.72 79.0607C141.52 71.3103 141.016 63.415 139.216 55.8334C135.945 42.0541 128.304 29.4188 117.68 20.0619C111.825 14.9053 105.112 10.7662 97.8834 7.83519C89.6828 4.50995 80.8471 2.81397 71.9994 2.81319ZM111.902 128.281C111.076 128.869 110.235 129.438 109.384 129.989C110.236 129.439 111.074 128.867 111.902 128.281ZM109.384 129.989C109.263 130.067 109.14 130.143 109.019 130.22C109.14 130.142 109.263 130.068 109.384 129.989ZM109.019 130.22C108.279 130.693 107.532 131.15 106.775 131.594C107.532 131.151 108.279 130.691 109.019 130.22ZM106.775 131.594C106.523 131.741 106.268 131.884 106.014 132.029C106.268 131.884 106.523 131.742 106.775 131.594ZM106.014 132.029C105.414 132.37 104.807 132.705 104.197 133.029C104.809 132.705 105.412 132.37 106.014 132.029ZM104.197 133.029C103.769 133.255 103.338 133.473 102.905 133.69C103.338 133.472 103.769 133.255 104.197 133.029ZM102.905 133.69C102.363 133.962 101.821 134.232 101.271 134.49C101.484 134.389 101.701 134.296 101.914 134.194C102.248 134.033 102.574 133.856 102.905 133.69ZM101.271 134.49C100.931 134.649 100.591 134.806 100.249 134.959C100.467 134.861 100.688 134.768 100.905 134.668C101.029 134.611 101.148 134.547 101.271 134.49ZM100.249 134.959C99.8379 135.144 99.424 135.326 99.0095 135.503C99.4247 135.326 99.8372 135.144 100.249 134.959ZM99.0095 135.503C98.5538 135.697 98.0954 135.884 97.6355 136.068C98.0953 135.884 98.554 135.697 99.0095 135.503ZM97.6355 136.068C97.3074 136.199 96.9787 136.329 96.6485 136.455C96.9786 136.329 97.3074 136.199 97.6355 136.068ZM96.6485 136.455C96.1755 136.636 95.6992 136.811 95.2224 136.981C95.6997 136.81 96.1751 136.636 96.6485 136.455ZM95.2224 136.981C94.8408 137.118 94.4585 137.251 94.0745 137.381C94.4584 137.251 94.8408 137.118 95.2224 136.981ZM94.0745 137.381C93.6568 137.522 93.2382 137.657 92.8179 137.79C93.2377 137.657 93.6574 137.522 94.0745 137.381ZM92.8179 137.79C92.4257 137.914 92.0339 138.042 91.6396 138.159C92.0345 138.042 92.4252 137.914 92.8179 137.79ZM91.6396 138.159C91.1064 138.318 90.5677 138.462 90.0308 138.607C90.5688 138.462 91.1053 138.318 91.6396 138.159ZM90.0308 138.607C89.7245 138.69 89.4207 138.776 89.1134 138.855C89.4202 138.777 89.7251 138.69 90.0308 138.607ZM89.1134 138.855C88.6798 138.966 88.2446 139.066 87.8089 139.168C88.2439 139.066 88.6804 138.966 89.1134 138.855ZM87.8089 139.168C87.3561 139.275 86.9029 139.388 86.448 139.486C86.9039 139.388 87.3552 139.275 87.8089 139.168ZM54.7116 138.816C56.4499 139.266 58.2042 139.648 59.9727 139.96C58.2059 139.648 56.4483 139.266 54.7116 138.816ZM85.7088 139.629C85.1032 139.751 84.4999 139.875 83.8913 139.981C84.4993 139.876 85.104 139.751 85.7088 139.629ZM62.6381 140.373C65.7487 140.793 68.8638 140.955 71.9994 141.007C72.0046 141.007 72.008 141.004 72.0081 140.999C72.0082 140.994 72.0046 140.99 71.9994 140.99C68.8646 140.944 65.7481 140.792 62.6381 140.373Z" fill="#ffffff" stroke="none"/>
</g>
<g opacity="1">
<path d="M47.6991 62.4704L96.3009 62.4704L96.3009 90.102C96.3009 93.968 93.1669 97.102 89.3009 97.102L54.6991 97.102C50.8331 97.102 47.6991 93.968 47.6991 90.102L47.6991 62.4704Z" fill="none" opacity="1" stroke="#ffffff" stroke-linecap="butt" stroke-linejoin="round" stroke-width="3.25"/>
<path d="M63.1937 78.8759C63.1937 76.6667 64.9845 74.8759 67.1937 74.8759L76.8063 74.8759C79.0155 74.8759 80.8063 76.6667 80.8063 78.8759L80.8063 97.102L63.1937 97.102L63.1937 78.8759Z" fill="#ffffff" fill-rule="nonzero" opacity="1" stroke="#ffffff" stroke-linecap="butt" stroke-linejoin="round" stroke-width="1.25"/>
<path d="M52.7668 48.8991C54.2273 47.6096 56.1085 46.898 58.0567 46.898L85.9433 46.898C87.8945 46.898 89.7785 47.6109 91.241 48.9026L100.272 56.8798L43.7276 56.8798L52.7668 48.8991Z" fill="#ffffff" fill-rule="nonzero" opacity="1" stroke="#ffffff" stroke-linecap="butt" stroke-linejoin="round" stroke-width="2.25"/>
<g opacity="1">
<path d="M56.4603 61.0021C56.4603 61.0021 56.4265 68.2322 49.2302 68.2322C42.0338 68.2322 42 61.0021 42 61.0021L56.4603 61.0021Z" fill="#ffffff" fill-rule="nonzero" opacity="1" stroke="#ffffff" stroke-linecap="butt" stroke-linejoin="round" stroke-width="2.25"/>
<path d="M71.6402 61.0021C71.6402 61.0021 71.6064 68.2322 64.4101 68.2322C57.2137 68.2322 57.1799 61.0021 57.1799 61.0021L71.6402 61.0021Z" fill="#ffffff" fill-rule="nonzero" opacity="1" stroke="#ffffff" stroke-linecap="butt" stroke-linejoin="round" stroke-width="2.25"/>
<path d="M86.8201 61.0021C86.8201 61.0021 86.7863 68.2322 79.5899 68.2322C72.3936 68.2322 72.3598 61.0021 72.3598 61.0021L86.8201 61.0021Z" fill="#ffffff" fill-rule="nonzero" opacity="1" stroke="#ffffff" stroke-linecap="butt" stroke-linejoin="round" stroke-width="2.25"/>
<path d="M102 61.0021C102 61.0021 101.966 68.2322 94.7698 68.2322C87.5735 68.2322 87.5397 61.0021 87.5397 61.0021L102 61.0021Z" fill="#ffffff" fill-rule="nonzero" opacity="1" stroke="#ffffff" stroke-linecap="butt" stroke-linejoin="round" stroke-width="2.25"/>
</g>
</g>
</g>
</g>
</svg>
