<?xml version="1.0" encoding="UTF-8" standalone="no"?>
<!DOCTYPE svg PUBLIC "-//W3C//DTD SVG 1.1//EN" "http://www.w3.org/Graphics/SVG/1.1/DTD/svg11.dtd">
<!-- Created with Vectornator (http://vectornator.io/) -->
<svg height="100%" stroke-miterlimit="10" style="fill-rule:nonzero;clip-rule:evenodd;stroke-linecap:round;stroke-linejoin:round;" version="1.1" viewBox="2.875 2.875 138.25 138.25" width="100%" xml:space="preserve" xmlns="http://www.w3.org/2000/svg" xmlns:xlink="http://www.w3.org/1999/xlink">
<defs/>
<g id="Camada-1">
<g opacity="1">
<path d="M72 3C110.108 3 141 33.8924 141 72C141 110.108 110.108 141 72 141C33.8924 141 3 110.108 3 72C3 33.8924 33.8924 3 72 3Z" fill="#ea4c4c" fill-rule="nonzero" stroke="none"/>
<path d="M71.9986 2.99378C71.996 2.99374 71.9943 2.99554 71.9942 2.99813C71.9942 3.00072 71.996 3.00678 71.9986 3.00682C72.7895 3.01894 73.5804 3.01574 74.371 3.04158C76.7063 3.1179 79.0468 3.31553 81.3623 3.62817C79.0465 3.31533 76.7065 3.11154 74.371 3.03289C73.5804 3.00627 72.7895 3.00669 71.9986 2.99378ZM60.1103 4.01923C59.5634 4.11432 59.0209 4.22794 58.4766 4.33642C59.0208 4.228 59.5637 4.11427 60.1103 4.01923ZM58.4766 4.33642C58.1611 4.39926 57.8439 4.45162 57.5293 4.51892C57.8439 4.45157 58.161 4.3993 58.4766 4.33642ZM57.5293 4.51892C57.1119 4.60828 56.6979 4.71286 56.2823 4.81004C56.6977 4.713 57.1122 4.60817 57.5293 4.51892ZM56.2823 4.81004C55.8141 4.91942 55.3446 5.02541 54.8788 5.14462C55.3446 5.02529 55.814 4.91952 56.2823 4.81004ZM54.8788 5.14462C54.5984 5.21646 54.3197 5.29517 54.0402 5.37056C54.3199 5.2952 54.5982 5.21644 54.8788 5.14462ZM54.0402 5.37056C53.466 5.52526 52.8939 5.68334 52.3239 5.85287C52.8934 5.68329 53.4665 5.52531 54.0402 5.37056ZM52.3239 5.85287C51.9774 5.95603 51.6345 6.07014 51.2897 6.17875C51.6345 6.07029 51.9775 5.9559 52.3239 5.85287ZM51.2897 6.17875C50.8326 6.32259 50.3751 6.46428 49.921 6.61761C50.3749 6.46414 50.8327 6.32272 51.2897 6.17875ZM49.921 6.61761C49.5386 6.74691 49.1583 6.88137 48.7783 7.01736C49.1586 6.88143 49.5383 6.74685 49.921 6.61761ZM48.7783 7.01736C48.306 7.18613 47.8345 7.35543 47.3661 7.53443C47.8344 7.35528 48.3062 7.18627 48.7783 7.01736ZM47.3661 7.53443C47.0211 7.66643 46.6791 7.80535 46.3363 7.94287C46.6786 7.80571 47.0216 7.6661 47.3661 7.53443ZM46.3363 7.94287C45.8622 8.13284 45.3894 8.32903 44.9198 8.52946C45.3898 8.32867 45.8619 8.13317 46.3363 7.94287ZM44.9198 8.52946C44.6085 8.66244 44.2992 8.80036 43.9899 8.9379C44.2993 8.80045 44.6084 8.66235 44.9198 8.52946ZM43.9899 8.9379C43.6924 9.0701 43.3904 9.19256 43.0949 9.32896C42.9247 9.40751 42.7603 9.49668 42.5908 9.57663C43.0541 9.35807 43.5218 9.14608 43.9899 8.9379ZM42.5908 9.57663C42.4239 9.65538 42.2531 9.72684 42.0868 9.80692C41.7993 9.94539 41.5206 10.099 41.2351 10.2414C41.6857 10.0164 42.1351 9.79159 42.5908 9.57663ZM41.2351 10.2414C40.7299 10.4938 40.226 10.7457 39.7274 11.0105C40.2263 10.746 40.7297 10.4936 41.2351 10.2414ZM39.7274 11.0105C39.2571 11.2599 38.7926 11.5195 38.3283 11.7796C38.7925 11.5189 39.257 11.2603 39.7274 11.0105ZM38.3283 11.7796C37.8948 12.023 37.4614 12.2655 37.0334 12.5183C37.4613 12.2663 37.895 12.0223 38.3283 11.7796ZM37.0334 12.5183C36.4609 12.8555 35.8971 13.2076 35.3345 13.5611C35.8963 13.2069 36.4615 12.8561 37.0334 12.5183ZM35.3345 13.5611C35.0388 13.7475 34.7408 13.9308 34.4481 14.1216C34.7412 13.9312 35.0385 13.7471 35.3345 13.5611ZM34.4481 14.1216C33.8068 14.5382 33.1764 14.9703 32.5493 15.4078C33.175 14.9696 33.8081 14.5389 34.4481 14.1216ZM32.5493 15.4078C32.3261 15.5641 32.1014 15.7182 31.8801 15.8771C32.1017 15.7185 32.3258 15.5637 32.5493 15.4078ZM31.8801 15.8771C31.0896 16.4424 30.313 17.0258 29.5468 17.6238C30.3121 17.0242 31.0905 16.444 31.8801 15.8771ZM29.5468 17.6238C26.7458 19.8098 24.1002 22.1937 21.6647 24.7845C16.0937 30.711 11.5767 37.6437 8.40345 45.1327C5.73473 51.431 4.01579 58.1375 3.31967 64.9421C2.52726 72.6879 3.03594 80.5785 4.84046 88.1537C6.40264 94.7116 8.95749 101.044 12.3575 106.864C16.0754 113.228 20.8422 119.006 26.3748 123.875C30.8149 127.782 35.7597 131.129 41.044 133.786C42.7117 134.625 44.4199 135.379 46.1495 136.08C54.3399 139.399 63.1626 141.094 71.9986 141.095C81.2092 141.095 90.4103 139.253 98.8948 135.663C106.738 132.345 113.952 127.552 120.06 121.62C126.164 115.691 131.18 108.671 134.742 100.937C137.591 94.7497 139.523 88.1231 140.43 81.371C141.569 72.8853 141.137 64.1785 139.139 55.8521C136.36 44.2697 130.493 33.4602 122.337 24.7845C116.518 18.5954 109.563 13.4925 101.91 9.80692C97.8667 7.8596 93.6335 6.30834 89.2878 5.18372C93.6332 6.30937 97.868 7.8624 101.91 9.81127C109.56 13.4995 116.507 18.6084 122.319 24.8019C127.882 30.7302 132.394 37.6647 135.555 45.1544C138.212 51.4508 139.915 58.1513 140.599 64.9508C141.377 72.6867 140.857 80.5619 139.044 88.1233C137.474 94.6657 134.914 100.986 131.514 106.79C127.796 113.135 123.037 118.895 117.514 123.749C113.082 127.644 108.147 130.977 102.875 133.625C101.211 134.461 99.5078 135.217 97.7825 135.915C89.6128 139.223 80.811 140.907 71.9986 140.908C62.8123 140.908 53.6395 139.071 45.1762 135.494C35.6609 131.472 27.0691 125.277 20.2439 117.522C12.8716 109.146 7.55237 98.9831 4.94909 88.1276C2.95492 79.8121 2.52539 71.1136 3.66293 62.6392C4.56801 55.8965 6.50106 49.2821 9.34634 43.1035C12.5897 36.0605 17.0501 29.5712 22.4469 24.0068C24.6658 21.7189 27.0407 19.5871 29.5468 17.6238Z" fill="#000000" stroke="none"/>
</g>
<g opacity="1">
<path d="M95.3513 44.313C95.3513 42.931 94.7911 41.6797 93.8854 40.774C92.9797 39.8683 91.7285 39.3081 90.3464 39.3081L72 39.3081L53.6536 39.3081C52.2715 39.3081 51.0203 39.8683 50.1146 40.774C49.2089 41.6797 48.6487 42.931 48.6487 44.313L48.6487 72L48.6487 99.687C48.6487 101.069 49.2089 102.32 50.1146 103.226C51.0203 104.132 52.2715 104.692 53.6536 104.692L72 104.692L90.3464 104.692C91.7285 104.692 92.9797 104.132 93.8854 103.226C94.7911 102.32 95.3513 101.069 95.3513 99.687L95.3513 72L95.3513 44.313Z" fill="#0d1625" fill-opacity="0" fill-rule="nonzero" opacity="1" stroke="#ffffff" stroke-linecap="butt" stroke-linejoin="round" stroke-width="3.25"/>
<path d="M55.1288 72C55.1288 57.5536 62.6823 45.8425 72 45.8425C81.3177 45.8425 88.8712 57.5536 88.8712 72C88.8712 86.4464 81.3177 98.1575 72 98.1575C62.6823 98.1575 55.1288 86.4464 55.1288 72Z" fill="#0d1625" fill-opacity="0" fill-rule="nonzero" opacity="1" stroke="#ffffff" stroke-linecap="butt" stroke-linejoin="round" stroke-width="3.25"/>
<g opacity="1">
<g opacity="1">
<path d="M86.8473 98.1659C86.8473 97.0245 87.7725 96.0992 88.9139 96.0992C90.0553 96.0992 90.9806 97.0245 90.9806 98.1659C90.9806 99.3072 90.0553 100.233 88.9139 100.233C87.7725 100.233 86.8473 99.3072 86.8473 98.1659Z" fill="#ffffff" fill-rule="nonzero" opacity="1" stroke="none"/>
<path d="M53.0194 98.1659C53.0194 97.0245 53.9447 96.0992 55.0861 96.0992C56.2275 96.0992 57.1527 97.0245 57.1527 98.1659C57.1527 99.3072 56.2275 100.233 55.0861 100.233C53.9447 100.233 53.0194 99.3072 53.0194 98.1659Z" fill="#ffffff" fill-rule="nonzero" opacity="1" stroke="none"/>
</g>
<g opacity="1">
<path d="M86.8473 45.8341C86.8473 44.6928 87.7725 43.7675 88.9139 43.7675C90.0553 43.7675 90.9806 44.6928 90.9806 45.8341C90.9806 46.9755 90.0553 47.9008 88.9139 47.9008C87.7725 47.9008 86.8473 46.9755 86.8473 45.8341Z" fill="#ffffff" fill-rule="nonzero" opacity="1" stroke="none"/>
<path d="M53.0194 45.8341C53.0194 44.6928 53.9447 43.7675 55.0861 43.7675C56.2275 43.7675 57.1527 44.6928 57.1527 45.8341C57.1527 46.9755 56.2275 47.9008 55.0861 47.9008C53.9447 47.9008 53.0194 46.9755 53.0194 45.8341Z" fill="#ffffff" fill-rule="nonzero" opacity="1" stroke="none"/>
</g>
</g>
</g>
</g>
</svg>
