<?xml version="1.0" encoding="UTF-8" standalone="no"?>
<!DOCTYPE svg PUBLIC "-//W3C//DTD SVG 1.1//EN" "http://www.w3.org/Graphics/SVG/1.1/DTD/svg11.dtd">
<!-- Created with Vectornator (http://vectornator.io/) -->
<svg height="100%" stroke-miterlimit="10" style="fill-rule:nonzero;clip-rule:evenodd;stroke-linecap:round;stroke-linejoin:round;" version="1.1" viewBox="-1.49764 -1.50041 830.705 417.731" width="100%" xml:space="preserve" xmlns="http://www.w3.org/2000/svg" xmlns:vectornator="http://vectornator.io" xmlns:xlink="http://www.w3.org/1999/xlink">
<defs>
<linearGradient gradientTransform="matrix(-0.13844 165.946 -263.911 -0.13844 133.618 211.626)" gradientUnits="userSpaceOnUse" id="LinearGradient" x1="0" x2="1" y1="0" y2="0">
<stop offset="0" stop-color="#ffffff" stop-opacity="0.0476199"/>
<stop offset="1" stop-color="#ffffff" stop-opacity="0"/>
</linearGradient>
<linearGradient gradientTransform="matrix(-0.524827 166.751 -265.192 -0.524827 312.809 211.166)" gradientUnits="userSpaceOnUse" id="LinearGradient_2" x1="0" x2="1" y1="0" y2="0">
<stop offset="0" stop-color="#ffffff" stop-opacity="0.0476199"/>
<stop offset="1" stop-color="#ffffff" stop-opacity="0"/>
</linearGradient>
<linearGradient gradientTransform="matrix(-0.692199 167.648 -266.618 -0.692199 491.092 210.721)" gradientUnits="userSpaceOnUse" id="LinearGradient_3" x1="0" x2="1" y1="0" y2="0">
<stop offset="0" stop-color="#ffffff" stop-opacity="0.0476199"/>
<stop offset="1" stop-color="#ffffff" stop-opacity="0"/>
</linearGradient>
<linearGradient gradientTransform="matrix(-1.12113 166.448 -264.709 -1.12113 670.455 211.214)" gradientUnits="userSpaceOnUse" id="LinearGradient_4" x1="0" x2="1" y1="0" y2="0">
<stop offset="0" stop-color="#ffffff" stop-opacity="0.0476199"/>
<stop offset="1" stop-color="#ffffff" stop-opacity="0"/>
</linearGradient>
<linearGradient gradientTransform="matrix(187.504 0 0 187.504 61.0376 118.515)" gradientUnits="userSpaceOnUse" id="LinearGradient_5" x1="0" x2="1" y1="0" y2="0">
<stop offset="0" stop-color="#ffffff" stop-opacity="0.0998233"/>
<stop offset="1" stop-color="#ffffff" stop-opacity="0.05"/>
</linearGradient>
<linearGradient gradientTransform="matrix(187.504 0 0 187.504 239.954 118.515)" gradientUnits="userSpaceOnUse" id="LinearGradient_6" x1="0" x2="1" y1="0" y2="0">
<stop offset="0" stop-color="#ffffff" stop-opacity="0.0998233"/>
<stop offset="1" stop-color="#ffffff" stop-opacity="0.05"/>
</linearGradient>
<linearGradient gradientTransform="matrix(187.504 0 0 187.504 418.87 118.515)" gradientUnits="userSpaceOnUse" id="LinearGradient_7" x1="0" x2="1" y1="0" y2="0">
<stop offset="0" stop-color="#ffffff" stop-opacity="0.0998233"/>
<stop offset="1" stop-color="#ffffff" stop-opacity="0.05"/>
</linearGradient>
<linearGradient gradientTransform="matrix(187.504 0 0 187.504 597.786 118.515)" gradientUnits="userSpaceOnUse" id="LinearGradient_8" x1="0" x2="1" y1="0" y2="0">
<stop offset="0" stop-color="#ffffff" stop-opacity="0.0998233"/>
<stop offset="1" stop-color="#ffffff" stop-opacity="0.05"/>
</linearGradient>
</defs>
<g id="Layer">
<g opacity="1">
<g opacity="1">
<path d="M46.7397 14.3581C47.6953 6.17219 54.6304-0.000409377 62.8719-0.000409377L809.46-0.000409377C819.176-0.000409377 826.718 8.4737 825.592 18.1245L780.97 400.372C780.015 408.558 773.08 414.73 764.838 414.73L682.06 414.73L18.2504 414.73C8.53402 414.73 0.991588 406.256 2.11817 396.605L46.7397 14.3581Z" fill="#0d161f" fill-rule="nonzero" opacity="1" stroke="none"/>
<g opacity="1">
<path d="M46.7397 14.3581C47.6953 6.17219 54.6304-0.000409377 62.8719-0.000409377L809.46-0.000409377C819.176-0.000409377 826.718 8.4737 825.592 18.1245L780.97 400.372C780.015 408.558 773.08 414.73 764.838 414.73L682.06 414.73L18.2504 414.73C8.53402 414.73 0.991588 406.256 2.11817 396.605L46.7397 14.3581Z" fill="#0d1625" fill-rule="nonzero" stroke="none"/>
<path d="M800.694-0.901305C790.973-0.888925 781.264-0.864261 771.543-0.849802C733.145-0.792691 694.728-0.712746 656.331-0.643789C511-0.382798 365.687-0.231764 220.356-0.231764C176.125-0.231764 131.89-0.231764 87.6584-0.231764C82.3117-0.231764 76.9618-0.231764 71.6151-0.231764C69.1848-0.231764 66.7577-0.231765 64.3274-0.231764C62.8162-0.231764 61.3373-0.229172 59.8467 0.0515032C53.7693 1.19582 49.4773 5.52261 47.6147 11.0989C47.8701 10.3448 48.1353 9.5798 48.516 8.85854C49.2685 7.43286 50.2344 6.13616 51.3744 4.99581C53.9144 2.45506 57.2852 0.80936 60.851 0.360522C62.961 0.0949233 65.1162 0.231764 67.2374 0.231764C69.1816 0.231764 71.1387 0.231764 73.083 0.231764C78.4296 0.231764 83.7795 0.231764 89.1262 0.231764C133.358 0.231764 177.593 0.231764 221.824 0.231764C367.159 0.231764 512.49 0.382804 657.824 0.643789C696.224 0.712746 734.611 0.79269 773.011 0.849802C782.732 0.864261 792.466 0.888924 802.187 0.901305C807.755 0.908396 813.299 0.290968 818.205 3.45071C819.45 4.25258 820.569 5.22817 821.553 6.33489C823.854 8.92457 825.386 12.3223 825.493 15.8115C825.557 17.9062 825.143 20.0467 824.9 22.1206C824.551 25.1052 824.194 28.0975 823.845 31.0822C821.109 54.4633 818.364 77.8224 815.63 101.204C807.832 167.882 800.06 234.563 792.273 301.242C789.658 323.638 787.033 346.057 784.419 368.454C783.606 375.422 782.786 382.37 781.972 389.338C781.535 393.087 781.299 396.928 780.633 400.643C780.303 402.488 779.595 404.27 778.625 405.871C776.274 409.748 772.288 412.5 767.835 413.339C765.161 413.842 762.352 413.622 759.646 413.622C755.766 413.622 751.886 413.621 748.006 413.622C744.557 413.622 741.103 413.621 737.654 413.622C693.617 413.635 649.585 413.651 605.548 413.673C460.775 413.747 315.996 414.008 171.222 414.266C132.328 414.335 93.4361 414.387 54.5418 414.446C45.0343 414.46 35.5424 414.486 26.0348 414.497C20.3386 414.504 14.5337 415.181 9.50233 411.948C8.25176 411.144 7.11695 410.174 6.12888 409.064C3.66107 406.291 2.17183 402.687 2.06013 398.969C1.99279 396.728 2.41909 394.467 2.67816 392.248C3.02677 389.262 3.38537 386.273 3.73398 383.287C6.40662 360.391 9.07007 337.502 11.7427 314.607C23.42 214.574 35.1133 114.531 46.7906 14.4981C46.7883 14.4989 46.7936 14.4742 46.7906 14.4724C46.9024 13.7132 47.0891 12.9867 47.2799 12.2578C47.106 12.9216 46.7893 13.5217 46.6876 14.2149C46.685 14.2157 46.6891 14.2369 46.6876 14.2406C35.0093 114.282 23.3438 214.334 11.6655 314.375C8.93472 337.768 6.20721 361.156 3.47646 384.548C3.12786 387.535 2.76925 390.524 2.42065 393.51C2.20759 395.335 1.90246 397.152 1.95712 398.995C2.07168 402.859 3.53107 406.612 6.10312 409.502C7.09412 410.615 8.24803 411.606 9.50233 412.412C13.213 414.796 16.6423 414.956 20.8588 414.961C23.0197 414.964 25.1616 414.984 27.3224 414.987C36.8303 414.998 46.3473 414.998 55.8552 415.012C94.3189 415.07 132.784 415.124 171.248 415.193C316.459 415.451 461.676 415.711 606.887 415.785C650.923 415.807 694.957 415.824 738.993 415.837C744.167 415.838 749.322 415.836 754.496 415.837C757.082 415.837 759.686 415.836 762.273 415.837C764.154 415.837 766.028 415.903 767.886 415.553C771.423 414.888 774.696 413.021 777.08 410.326C777.951 409.34 778.706 408.27 779.32 407.107C780.142 405.549 780.709 403.844 781.02 402.111C781.706 398.286 781.96 394.357 782.41 390.497C783.282 383.032 784.14 375.559 785.011 368.093C787.626 345.695 790.252 323.305 792.865 300.907C800.708 233.7 808.545 166.481 816.377 99.2723C819.104 75.8681 821.84 52.478 824.566 29.0735C824.856 26.5835 825.125 24.0957 825.415 21.6056C825.645 19.6369 825.963 17.6451 825.905 15.657C825.785 11.5723 824.363 7.62366 821.63 4.55803C820.634 3.44121 819.491 2.4558 818.231 1.6481C812.946-1.73947 806.664-0.908909 800.694-0.901305ZM47.2799 12.2578C47.3825 11.8661 47.4878 11.4788 47.6147 11.0989C47.4861 11.4785 47.3815 11.8697 47.2799 12.2578Z" fill="#fffdfb" stroke="none"/>
</g>
</g>
<g opacity="1">
<g opacity="1">
<path d="M220.498 210.937C224.08 210.937 226.853 214.071 226.418 217.626L222.034 253.409C221.668 256.4 219.128 258.648 216.115 258.648L107.389 258.648C104.377 258.648 101.838 260.893 101.47 263.882L94.1144 323.52C93.6758 327.077 96.4501 330.214 100.033 330.214L159.564 330.214C162.583 330.214 165.126 327.958 165.486 324.961L165.486 324.961C165.912 321.411 163.14 318.286 159.564 318.286L113.404 318.286C109.816 318.286 107.041 315.142 107.486 311.583L111.959 275.8C112.332 272.815 114.869 270.575 117.877 270.575L213.217 270.575C216.8 270.575 219.574 273.713 219.136 277.269L207.367 372.691C206.999 375.68 204.46 377.925 201.448 377.925L46.4747 377.925C42.8925 377.925 40.1185 374.789 40.5553 371.234L59.6056 216.173C59.973 213.183 62.5125 210.937 65.525 210.937L220.498 210.937Z" fill="#ffffff" fill-rule="nonzero" opacity="1" stroke="none"/>
<path d="M286.322 258.648C283.304 258.648 280.761 260.904 280.401 263.901L280.401 263.901C279.975 267.451 282.747 270.575 286.322 270.575L345.876 270.575C348.895 270.575 351.437 268.32 351.797 265.322L351.797 265.322C352.223 261.772 349.451 258.648 345.876 258.648L286.322 258.648ZM238.522 216.173C238.889 213.183 241.429 210.937 244.441 210.937L399.412 210.937C402.994 210.937 405.768 214.072 405.331 217.628L386.281 372.688C385.914 375.678 383.374 377.925 380.362 377.925L344.662 377.925C341.082 377.925 338.309 374.793 338.742 371.239L344.387 324.972C344.821 321.419 342.047 318.286 338.467 318.286L278.917 318.286C275.902 318.286 273.362 320.536 272.997 323.528L267 372.683C266.635 375.676 264.094 377.925 261.08 377.925L225.391 377.925C221.809 377.925 219.035 374.789 219.471 371.234L238.522 216.173Z" fill="#ffffff" fill-rule="nonzero" opacity="1" stroke="none"/>
<path d="M565.192 372.728C564.828 375.695 562.307 377.925 559.317 377.925L523.535 377.925C519.979 377.925 517.226 374.812 517.66 371.283L530.697 265.29C531.131 261.76 528.378 258.648 524.822 258.648L524.822 258.648C521.832 258.648 519.312 260.877 518.947 263.844L505.554 372.728C505.189 375.696 502.669 377.925 499.679 377.925L463.896 377.925C460.34 377.925 457.587 374.812 458.021 371.283L471.058 265.29C471.492 261.76 468.739 258.648 465.183 258.648L465.183 258.648C462.194 258.648 459.673 260.877 459.308 263.844L445.916 372.728C445.551 375.696 443.03 377.925 440.041 377.925L404.256 377.925C400.701 377.925 397.948 374.813 398.381 371.284L417.443 216.134C417.807 213.166 420.328 210.937 423.318 210.937L578.379 210.937C581.934 210.937 584.687 214.049 584.254 217.578L565.192 372.728Z" fill="#ffffff" fill-rule="nonzero" opacity="1" stroke="none"/>
<path d="M757.247 210.937C760.828 210.937 763.602 214.071 763.166 217.626L758.783 253.409C758.416 256.4 755.877 258.648 752.863 258.648L644.155 258.648C641.136 258.648 638.593 260.904 638.233 263.901L638.233 263.901C637.807 267.451 640.579 270.575 644.155 270.575L749.954 270.575C753.541 270.575 756.317 273.719 755.872 277.279L751.399 313.062C751.026 316.047 748.489 318.286 745.481 318.286L636.76 318.286C633.741 318.286 631.198 320.542 630.838 323.54L630.838 323.54C630.412 327.09 633.184 330.214 636.76 330.214L742.576 330.214C746.157 330.214 748.931 333.348 748.495 336.903L744.112 372.686C743.745 375.677 741.205 377.925 738.192 377.925L583.223 377.925C579.641 377.925 576.867 374.789 577.304 371.234L596.354 216.173C596.721 213.183 599.261 210.937 602.273 210.937L757.247 210.937Z" fill="#ffffff" fill-rule="nonzero" opacity="1" stroke="none"/>
</g>
<g opacity="1">
<path d="M241.803 35.0205C245.384 35.0205 248.158 38.1548 247.722 41.7096L243.339 77.4928C242.973 80.4837 240.433 82.7315 237.419 82.7315L128.693 82.7315C125.682 82.7315 123.143 84.9766 122.774 87.9654L115.419 147.604C114.98 151.16 117.754 154.298 121.338 154.298L180.869 154.298C183.888 154.298 186.43 152.042 186.79 149.045L186.79 149.045C187.216 145.495 184.444 142.37 180.869 142.37L134.708 142.37C131.121 142.37 128.345 139.226 128.79 135.667L133.263 99.8834C133.636 96.8989 136.173 94.6592 139.181 94.6592L234.521 94.6592C238.105 94.6592 240.879 97.7967 240.44 101.353L228.672 196.775C228.303 199.764 225.764 202.009 222.753 202.009L67.7791 202.009C64.1969 202.009 61.4229 198.873 61.8597 195.318L80.91 40.2572C81.2773 37.2671 83.8169 35.0205 86.8294 35.0205L241.803 35.0205Z" fill="#ffffff" fill-rule="nonzero" opacity="1" stroke="none"/>
<path d="M307.606 82.7315C304.596 82.7315 302.059 84.9751 301.691 87.962L294.334 147.608C293.896 151.162 296.669 154.298 300.25 154.298L359.806 154.298C362.815 154.298 365.352 152.054 365.721 149.067L373.077 89.421C373.516 85.867 370.743 82.7315 367.162 82.7315L307.606 82.7315ZM259.827 40.2538C260.194 37.2657 262.732 35.0205 265.742 35.0205L420.721 35.0205C424.301 35.0205 427.073 38.1541 426.636 41.7073L407.585 196.776C407.218 199.764 404.68 202.009 401.67 202.009L246.691 202.009C243.111 202.009 240.339 198.875 240.775 195.322L259.827 40.2538Z" fill="#ffffff" fill-rule="nonzero" opacity="1" stroke="none"/>
<path d="M486.522 82.7315C483.513 82.7315 480.975 84.9751 480.607 87.962L473.251 147.608C472.812 151.162 475.585 154.298 479.166 154.298L538.722 154.298C541.731 154.298 544.269 152.054 544.637 149.067L551.993 89.421C552.432 85.867 549.659 82.7315 546.078 82.7315L486.522 82.7315ZM438.743 40.2538C439.11 37.2657 441.648 35.0205 444.658 35.0205L599.637 35.0205C603.217 35.0205 605.989 38.1541 605.552 41.7073L586.501 196.776C586.134 199.764 583.596 202.009 580.586 202.009L425.607 202.009C422.027 202.009 419.255 198.875 419.691 195.322L438.743 40.2538Z" fill="#ffffff" fill-rule="nonzero" opacity="1" stroke="none"/>
<path d="M730.91 89.421C731.348 85.867 728.575 82.7315 724.994 82.7315L619.192 82.7315C615.613 82.7315 612.841 79.5993 613.276 76.0468L617.66 40.2558C618.027 37.2668 620.565 35.0205 623.576 35.0205L778.553 35.0205C782.133 35.0205 784.905 38.1541 784.469 41.7073L765.417 196.776C765.05 199.764 762.512 202.009 759.502 202.009L604.526 202.009C600.945 202.009 598.173 198.873 598.611 195.319L610.381 99.8897C610.749 96.9028 613.286 94.6592 616.296 94.6592L651.992 94.6592C655.575 94.6592 658.348 97.7973 657.907 101.353L652.172 147.605C651.731 151.16 654.504 154.298 658.086 154.298L717.638 154.298C720.647 154.298 723.185 152.054 723.553 149.067L730.91 89.421Z" fill="#ffffff" fill-rule="nonzero" opacity="1" stroke="none"/>
</g>
<g opacity="1">
<g opacity="1">
<path d="M220.498 210.937C224.08 210.937 226.853 214.071 226.418 217.626L222.034 253.409C221.668 256.4 219.128 258.648 216.115 258.648L107.389 258.648C104.377 258.648 101.838 260.893 101.47 263.882L94.1144 323.52C93.6758 327.077 96.4501 330.214 100.033 330.214L159.564 330.214C162.583 330.214 165.126 327.958 165.486 324.961L165.486 324.961C165.912 321.411 163.14 318.286 159.564 318.286L113.404 318.286C109.816 318.286 107.041 315.142 107.486 311.583L111.959 275.8C112.332 272.815 114.869 270.575 117.877 270.575L213.217 270.575C216.8 270.575 219.574 273.713 219.136 277.269L207.367 372.691C206.999 375.68 204.46 377.925 201.448 377.925L46.4747 377.925C42.8925 377.925 40.1185 374.789 40.5553 371.234L59.6056 216.173C59.973 213.183 62.5125 210.937 65.525 210.937L220.498 210.937Z" fill="url(#LinearGradient)" fill-rule="nonzero" stroke="none"/>
<path d="M65.7573 210.855C65.431 210.856 65.1059 210.863 64.7825 210.902C63.3588 211.075 62.019 211.791 61.0641 212.857C59.8848 214.175 59.6488 215.658 59.4413 217.346C59.2925 218.558 59.1465 219.766 58.9977 220.977C58.3031 226.63 57.6083 232.287 56.9138 237.94C54.1369 260.542 51.3504 283.14 48.5664 305.741C46.429 323.093 44.2886 340.446 42.1512 357.798C41.7038 361.43 41.2559 365.064 40.8086 368.696C40.4694 371.45 40.0115 373.882 41.9994 376.133C44.1901 378.613 47.0877 378.161 50.1075 378.164C53.7397 378.168 57.3735 378.172 61.0057 378.176C78.3597 378.196 95.7146 378.214 113.069 378.228C136.073 378.248 159.079 378.264 182.083 378.275C187.33 378.278 192.574 378.279 197.821 378.281C200.802 378.282 203.726 378.73 205.923 376.279C207.2 374.853 207.396 373.219 207.621 371.393C207.744 370.399 207.867 369.404 207.989 368.41C208.418 364.932 208.844 361.451 209.273 357.973C211.052 343.562 212.831 329.153 214.609 314.742C215.773 305.299 216.941 295.856 218.105 286.413C218.412 283.928 218.715 281.444 219.022 278.959C219.231 277.259 219.443 275.641 218.794 274.009C218.587 273.488 218.308 272.994 217.965 272.55C217.022 271.326 215.625 270.493 214.095 270.267C213.321 270.153 212.492 270.203 211.725 270.203C210.732 270.203 209.735 270.203 208.742 270.203C204.273 270.204 199.803 270.208 195.334 270.209C174.478 270.212 153.625 270.217 132.77 270.227C128.797 270.228 124.822 270.23 120.85 270.232C119.625 270.233 118.345 270.13 117.126 270.279C115.17 270.518 113.553 271.722 112.59 273.408C112.006 274.431 111.898 275.591 111.755 276.735C111.616 277.854 111.475 278.973 111.335 280.092C110.869 283.82 110.405 287.547 109.94 291.276C109.242 296.869 108.542 302.465 107.844 308.058C107.663 309.509 107.339 311.009 107.371 312.477C107.42 314.69 108.566 316.783 110.529 317.859C112.313 318.836 114.328 318.59 116.291 318.589C118.695 318.586 121.102 318.585 123.506 318.583C133.122 318.573 142.737 318.56 152.354 318.548C153.315 318.547 154.276 318.549 155.237 318.548C156.199 318.547 157.165 318.543 158.127 318.542C159.042 318.541 159.964 318.484 160.865 318.682C163.554 319.273 165.856 321.972 165.441 324.817C165.337 325.528 165.149 326.187 164.811 326.825C164.478 327.453 164.04 328.011 163.509 328.483C161.708 330.083 159.964 329.986 157.701 329.989C156.461 329.99 155.223 329.987 153.982 329.989C152.742 329.99 151.498 329.993 150.258 329.995C136.616 330.012 122.975 330.035 109.333 330.053C108.093 330.055 106.855 330.051 105.614 330.053C104.374 330.055 103.13 330.057 101.89 330.059C101.031 330.06 100.038 330.13 99.1525 330.001C97.7728 329.799 96.4926 329.106 95.5684 328.063C95.2074 327.655 94.9071 327.198 94.6695 326.708C94.4343 326.223 94.2631 325.705 94.1733 325.173C93.9799 324.028 94.2323 322.864 94.3718 321.729C94.6012 319.864 94.8312 317.996 95.0606 316.131C95.8252 309.915 96.5899 303.703 97.3546 297.487C98.4253 288.784 99.494 280.079 100.565 271.377C100.795 269.512 101.024 267.648 101.254 265.784C101.486 263.904 101.628 262.178 102.941 260.712C104.724 258.721 106.637 258.721 109.088 258.721C110.22 258.721 111.352 258.721 112.485 258.721C119.28 258.721 126.079 258.721 132.875 258.721C152.695 258.721 172.514 258.721 192.333 258.721C198.563 258.721 204.79 258.721 211.019 258.721C212.151 258.721 213.283 258.721 214.416 258.721C215.74 258.721 217.01 258.807 218.263 258.324C218.93 258.068 219.537 257.695 220.072 257.221C221.982 255.531 222.036 253.581 222.326 251.214C222.508 249.723 222.686 248.228 222.868 246.737C223.919 238.164 224.97 229.591 226.021 221.018C226.223 219.365 226.675 217.519 226.394 215.852C225.897 212.896 223.428 210.961 220.499 210.861C180.544 210.861 140.589 210.861 100.635 210.861C90.9494 210.861 81.2629 210.861 71.5771 210.861C69.9628 210.861 68.3464 210.861 66.7321 210.861C66.4063 210.861 66.0835 210.854 65.7573 210.855ZM66.3644 210.984C66.8952 210.989 67.4248 211.013 67.9463 211.013C69.5606 211.013 71.1769 211.013 72.7912 211.013C82.4771 211.013 92.1635 211.013 101.849 211.013C141.4 211.013 180.948 211.013 220.499 211.013C221.369 211.043 222.201 211.188 222.997 211.556C223.621 211.843 224.189 212.241 224.678 212.723C225.751 213.783 226.409 215.24 226.447 216.751C226.472 217.774 226.255 218.811 226.132 219.821C226.04 220.567 225.948 221.312 225.857 222.057C224.807 230.63 223.755 239.203 222.705 247.776C222.522 249.267 222.339 250.763 222.156 252.253C221.887 254.448 221.472 256.148 219.512 257.513C219.114 257.79 218.709 257.998 218.257 258.173C217.005 258.655 215.739 258.575 214.416 258.575C212.717 258.575 211.019 258.575 209.32 258.575C203.657 258.575 197.99 258.575 192.328 258.575C172.508 258.575 152.689 258.575 132.869 258.575C126.073 258.575 119.28 258.575 112.485 258.575C111.352 258.575 110.22 258.575 109.088 258.575C106.633 258.575 104.715 258.572 102.929 260.566C101.602 262.047 101.459 263.804 101.225 265.703C100.918 268.187 100.615 270.673 100.308 273.157C99.2339 281.849 98.155 290.54 97.0803 299.232C96.3127 305.44 95.5482 311.651 94.7804 317.859C94.6268 319.101 94.4728 320.342 94.3192 321.583C94.1643 322.836 93.9167 324.073 94.1266 325.331C94.2439 326.033 94.4863 326.714 94.8388 327.333C95.7416 328.917 97.3527 330.029 99.1584 330.298C100.044 330.43 101.036 330.367 101.896 330.368C103.756 330.371 105.616 330.372 107.477 330.374C108.717 330.376 109.955 330.378 111.195 330.38C124.838 330.399 138.483 330.415 152.126 330.433C153.986 330.435 155.846 330.442 157.707 330.444C159.977 330.447 161.723 330.546 163.532 328.944C163.895 328.623 164.207 328.28 164.484 327.882C164.746 327.503 164.995 327.033 165.161 326.603C165.369 326.062 165.446 325.678 165.529 325.103C165.644 324.293 165.589 323.438 165.394 322.646C165.225 321.957 164.935 321.298 164.542 320.708C163.611 319.309 162.101 318.345 160.438 318.098C159.207 317.915 157.912 318.03 156.673 318.028C155.231 318.026 153.79 318.024 152.348 318.022C142.25 318.01 132.15 318.003 122.052 317.993C119.648 317.991 117.247 317.99 114.843 317.987C113.16 317.986 111.635 317.979 110.179 317.036C109.721 316.739 109.309 316.383 108.948 315.974C108.097 315.009 107.535 313.742 107.506 312.448C107.483 311.473 107.706 310.48 107.827 309.517C107.92 308.772 108.014 308.027 108.107 307.282C108.807 301.693 109.503 296.1 110.203 290.511C110.669 286.785 111.137 283.059 111.604 279.333C111.697 278.588 111.79 277.842 111.884 277.097C112.016 276.041 112.108 274.987 112.648 274.044C113.004 273.424 113.412 272.879 113.95 272.404C115.604 270.945 117.276 270.92 119.373 270.921C120.366 270.922 121.357 270.921 122.35 270.921C126.323 270.923 130.297 270.925 134.27 270.927C155.126 270.936 175.978 270.942 196.834 270.945C201.303 270.945 205.773 270.944 210.242 270.945C211.511 270.945 212.834 270.822 214.095 271.009C216.149 271.312 217.954 272.719 218.724 274.651C219.423 276.405 218.918 278.241 218.695 280.051C218.388 282.536 218.085 285.02 217.778 287.505C216.614 296.948 215.446 306.396 214.282 315.839C212.504 330.253 210.729 344.668 208.952 359.082C208.523 362.562 208.097 366.04 207.668 369.519C207.4 371.696 207.411 373.87 205.876 375.584C203.694 378.02 200.771 377.568 197.809 377.569C192.562 377.571 187.318 377.572 182.072 377.575C159.068 377.586 136.066 377.602 113.063 377.621C95.7093 377.636 78.3534 377.654 60.9999 377.674C56.9642 377.679 52.929 377.681 48.8933 377.686C47.806 377.687 46.6764 377.786 45.5952 377.627C44.2174 377.425 42.94 376.731 42.017 375.689C39.8796 373.277 40.6832 370.644 41.0421 367.715C41.4878 364.079 41.9332 360.442 42.3789 356.806C44.5079 339.43 46.6358 322.054 48.7649 304.678C51.4877 282.458 54.2131 260.236 56.943 238.016C57.6375 232.363 58.3323 226.712 59.0269 221.059C59.1757 219.847 59.3217 218.634 59.4705 217.422C59.6754 215.754 59.9105 214.305 61.0758 213.003C62.029 211.939 63.3615 211.227 64.7825 211.054C65.3017 210.991 65.8335 210.979 66.3644 210.984Z" fill="#fffdfb" stroke="none"/>
</g>
<g opacity="1">
<path d="M286.322 258.648C283.304 258.648 280.761 260.904 280.401 263.901L280.401 263.901C279.975 267.451 282.747 270.575 286.322 270.575L345.876 270.575C348.895 270.575 351.437 268.32 351.797 265.322L351.797 265.322C352.223 261.772 349.451 258.648 345.876 258.648L286.322 258.648ZM238.522 216.173C238.889 213.183 241.429 210.937 244.441 210.937L399.412 210.937C402.994 210.937 405.768 214.072 405.331 217.628L386.281 372.688C385.914 375.678 383.374 377.925 380.362 377.925L344.662 377.925C341.082 377.925 338.309 374.793 338.742 371.239L344.387 324.972C344.821 321.419 342.047 318.286 338.467 318.286L278.917 318.286C275.902 318.286 273.362 320.536 272.997 323.528L267 372.683C266.635 375.676 264.094 377.925 261.08 377.925L225.391 377.925C221.809 377.925 219.035 374.789 219.471 371.234L238.522 216.173Z" fill="url(#LinearGradient_2)" fill-rule="nonzero" stroke="none"/>
<path d="M345.37 258.308C344.904 258.31 344.441 258.33 344.011 258.333C342.77 258.339 341.528 258.345 340.288 258.353C339.047 258.361 337.808 258.371 336.567 258.381C329.124 258.438 321.681 258.525 314.238 258.565C304.933 258.616 295.627 258.572 286.322 258.572C285.336 258.601 284.399 258.801 283.52 259.266C282.687 259.706 281.954 260.359 281.417 261.134C279.096 264.485 280.703 269.243 284.613 270.403C285.775 270.748 286.988 270.652 288.186 270.652C289.426 270.652 290.666 270.649 291.906 270.652C295.008 270.659 298.11 270.693 301.212 270.722C312.999 270.835 324.788 270.927 336.576 270.941C338.437 270.944 340.297 270.945 342.158 270.946C344.878 270.946 347.667 271.377 349.853 269.433C350.217 269.11 350.525 268.767 350.802 268.366C351.067 267.983 351.32 267.506 351.487 267.072C351.698 266.519 351.78 266.12 351.863 265.532C351.985 264.673 351.925 263.764 351.717 262.923C351.546 262.228 351.255 261.564 350.857 260.97C349.923 259.575 348.413 258.618 346.751 258.381C346.307 258.317 345.837 258.305 345.37 258.308ZM300.281 258.707C304.934 258.702 309.588 258.704 314.24 258.73C321.685 258.77 329.129 258.859 336.574 258.917C337.815 258.926 339.056 258.934 340.297 258.942C341.538 258.95 342.777 258.956 344.018 258.962C344.875 258.967 345.869 258.906 346.753 259.04C348.399 259.29 349.897 260.244 350.818 261.631C351.114 262.077 351.35 262.562 351.514 263.071C351.722 263.717 351.831 264.433 351.731 265.11C351.628 265.806 351.442 266.446 351.11 267.07C350.778 267.694 350.343 268.244 349.814 268.712C347.636 270.641 344.854 270.204 342.149 270.204C340.909 270.205 339.667 270.206 338.426 270.207C337.186 270.208 335.946 270.209 334.705 270.211C322.919 270.231 311.133 270.339 299.348 270.446C296.246 270.474 293.144 270.501 290.043 270.501C288.802 270.501 287.562 270.509 286.322 270.501C285.742 270.497 285.169 270.42 284.613 270.255C280.528 269.043 278.982 263.953 281.866 260.721C282.336 260.195 282.904 259.746 283.527 259.416C284.405 258.952 285.34 258.751 286.324 258.723C290.976 258.723 295.628 258.711 300.281 258.707ZM398.574 210.788C398.053 210.783 397.526 210.799 396.99 210.8C395.375 210.803 393.758 210.802 392.143 210.806C384.072 210.821 376.001 210.834 367.93 210.846C336.855 210.893 305.784 210.864 274.709 210.864C265.831 210.864 256.951 210.864 248.073 210.864C247.266 210.864 246.457 210.864 245.65 210.864C244.75 210.864 243.861 210.816 242.982 211.039C240.545 211.655 238.879 213.703 238.508 216.129C238.508 216.13 238.509 216.134 238.508 216.135C233.647 255.708 228.785 295.278 223.923 334.851C222.733 344.538 221.541 354.224 220.347 363.911C220.098 365.928 219.85 367.945 219.601 369.963C219.336 372.11 219.269 373.91 220.655 375.712C221.595 376.932 222.987 377.762 224.511 377.989C225.889 378.195 227.352 378.057 228.74 378.059C232.458 378.065 236.171 378.07 239.889 378.076C245.465 378.087 251.047 378.095 256.623 378.106C257.739 378.108 258.852 378.109 259.967 378.111C261.354 378.114 262.624 378.091 263.881 377.43C264.309 377.205 264.684 376.94 265.046 376.62C267.16 374.753 267.096 372.341 267.417 369.724C267.73 367.166 268.041 364.61 268.355 362.052C269.545 352.332 270.736 342.608 271.925 332.888C272.238 330.329 272.55 327.775 272.863 325.216C273.083 323.416 273.225 321.972 274.482 320.568C276.309 318.53 278.272 318.585 280.779 318.588C282.64 318.59 284.504 318.591 286.365 318.594C295.67 318.605 304.973 318.615 314.277 318.623C319.24 318.627 324.203 318.631 329.166 318.634C331.647 318.636 334.128 318.639 336.61 318.64C338.663 318.641 340.315 318.543 342.021 319.817C343.358 320.815 344.313 322.426 344.357 324.115C344.387 325.294 344.109 326.51 343.966 327.674C343.79 329.12 343.613 330.563 343.436 332.008C342.201 342.127 340.967 352.248 339.732 362.367C339.438 364.777 339.14 367.186 338.846 369.596C338.766 370.255 338.657 370.913 338.625 371.576C338.543 373.281 339.039 374.988 340.18 376.277C341.11 377.327 342.397 378.029 343.786 378.234C344.807 378.384 345.87 378.298 346.896 378.298C348.384 378.298 349.876 378.298 351.364 378.298C359.917 378.297 368.469 378.294 377.022 378.292C377.766 378.292 378.509 378.292 379.253 378.292C380.123 378.292 380.983 378.327 381.833 378.111C383.843 377.602 385.467 376.045 386.091 374.075C386.339 373.294 386.4 372.479 386.499 371.669C386.598 370.861 386.697 370.054 386.796 369.246C387.143 366.419 387.492 363.593 387.839 360.765C388.929 351.879 390.017 342.992 391.107 334.105C394.526 306.223 397.946 278.338 401.358 250.455C402.496 241.158 403.634 231.863 404.772 222.566C404.92 221.353 405.066 220.138 405.214 218.925C405.303 218.203 405.43 217.473 405.412 216.741C405.367 214.869 404.485 213.087 402.978 211.965C401.625 210.958 400.137 210.802 398.574 210.788ZM245.655 211.009C246.866 211.009 248.074 211.009 249.284 211.009C258.163 211.009 267.042 211.009 275.921 211.009C306.996 211.009 338.072 210.98 369.147 211.027C377.219 211.039 385.289 211.052 393.361 211.068C394.975 211.071 396.587 211.076 398.201 211.079C400.014 211.083 401.468 211.141 402.972 212.268C404.375 213.318 405.3 214.996 405.342 216.758C405.368 217.824 405.134 218.91 405.005 219.962C404.855 221.172 404.705 222.381 404.556 223.591C403.411 232.869 402.264 242.15 401.119 251.428C397.735 278.866 394.355 306.299 390.978 333.738C389.885 342.619 388.791 351.5 387.699 360.381C387.352 363.207 387.004 366.036 386.656 368.862C386.557 369.669 386.459 370.477 386.359 371.285C386.269 372.017 386.223 372.762 385.998 373.469C385.822 374.024 385.562 374.552 385.229 375.03C384.282 376.392 382.747 377.317 381.1 377.517C380.123 377.636 379.103 377.558 378.123 377.558C377.379 377.558 376.636 377.558 375.892 377.558C367.339 377.557 358.787 377.553 350.234 377.552C348.746 377.552 347.26 377.552 345.772 377.552C345.114 377.552 344.436 377.591 343.78 377.494C342.405 377.291 341.13 376.594 340.209 375.554C338.257 373.35 338.836 371.255 339.167 368.541C339.52 365.649 339.868 362.76 340.221 359.868C341.397 350.228 342.576 340.588 343.751 330.948C343.927 329.502 344.105 328.055 344.281 326.609C344.407 325.578 344.572 324.576 344.473 323.539C344.293 321.653 343.296 319.911 341.695 318.879C340.106 317.855 338.436 317.934 336.604 317.935C334.123 317.937 331.641 317.939 329.16 317.941C324.197 317.945 319.234 317.948 314.272 317.953C304.967 317.961 295.664 317.965 286.359 317.976C284.498 317.978 282.634 317.986 280.773 317.988C278.249 317.991 276.276 317.942 274.442 319.997C272.84 321.792 272.841 324.187 272.566 326.451C272.317 328.501 272.07 330.553 271.82 332.602C270.574 342.852 269.327 353.102 268.081 363.351C267.832 365.401 267.584 367.447 267.335 369.497C267.022 372.078 267.098 374.387 265.023 376.23C264.663 376.55 264.295 376.814 263.87 377.04C262.29 377.877 260.579 377.735 258.849 377.739C257.733 377.741 256.615 377.742 255.499 377.744C250.295 377.754 245.093 377.764 239.889 377.774C236.171 377.78 232.452 377.785 228.734 377.791C225.643 377.796 222.763 378.196 220.667 375.484C219.034 373.373 219.484 371.349 219.787 368.867C220.035 366.847 220.286 364.825 220.533 362.804C221.72 353.108 222.907 343.416 224.098 333.721C228.91 294.554 233.725 255.384 238.537 216.217C238.537 216.217 238.538 216.211 238.537 216.211C238.905 213.81 240.577 211.799 242.982 211.19C243.861 210.968 244.757 211.009 245.655 211.009Z" fill="#fffdfb" stroke="none"/>
</g>
<g opacity="1">
<path d="M565.192 372.728C564.828 375.695 562.307 377.925 559.317 377.925L523.535 377.925C519.979 377.925 517.226 374.812 517.66 371.283L530.697 265.29C531.131 261.76 528.378 258.648 524.822 258.648L524.822 258.648C521.832 258.648 519.312 260.877 518.947 263.844L505.554 372.728C505.189 375.696 502.669 377.925 499.679 377.925L463.896 377.925C460.34 377.925 457.587 374.812 458.021 371.283L471.058 265.29C471.492 261.76 468.739 258.648 465.183 258.648L465.183 258.648C462.194 258.648 459.673 260.877 459.308 263.844L445.916 372.728C445.551 375.696 443.03 377.925 440.041 377.925L404.256 377.925C400.701 377.925 397.948 374.813 398.381 371.284L417.443 216.134C417.807 213.166 420.328 210.937 423.318 210.937L578.379 210.937C581.934 210.937 584.687 214.049 584.254 217.578L565.192 372.728Z" fill="url(#LinearGradient_3)" fill-rule="nonzero" stroke="none"/>
<path d="M425.142 210.679C423.319 210.638 421.48 210.692 419.936 211.764C417.493 213.46 417.434 215.745 417.103 218.433C416.904 220.048 416.701 221.663 416.502 223.278C415.408 232.161 414.313 241.043 413.22 249.927C409.54 279.813 405.865 309.7 402.189 339.587C401.196 347.665 400.204 355.743 399.21 363.822C398.962 365.842 398.712 367.865 398.464 369.885C398.269 371.475 398.114 372.985 398.72 374.508C398.926 375.025 399.209 375.519 399.548 375.96C400.484 377.174 401.872 377.998 403.39 378.222C404.411 378.373 405.471 378.286 406.498 378.286C407.616 378.287 408.732 378.286 409.85 378.286C418.423 378.289 426.999 378.29 435.572 378.292C436.69 378.292 437.812 378.292 438.93 378.292C439.418 378.292 440.254 378.316 440.784 378.251C442.438 378.05 443.973 377.117 444.923 375.75C445.272 375.249 445.544 374.693 445.728 374.112C446.022 373.185 446.077 372.178 446.194 371.226C446.264 370.659 446.334 370.091 446.404 369.524C446.613 367.823 446.825 366.118 447.034 364.417C447.871 357.612 448.709 350.811 449.547 344.006C451.988 324.156 454.429 304.307 456.869 284.458C457.148 282.189 457.424 279.917 457.703 277.649C457.912 275.947 458.123 274.249 458.332 272.547C458.611 270.279 458.887 268.007 459.166 265.738C459.287 264.75 459.334 263.692 459.702 262.747C460.807 259.912 463.997 258.392 466.885 259.249C467.543 259.444 468.16 259.76 468.71 260.17C469.142 260.493 469.529 260.874 469.858 261.301C470.545 262.191 470.996 263.307 471.024 264.438C471.043 265.191 470.871 266.063 470.785 266.758C470.65 267.862 470.513 268.965 470.377 270.07C469.699 275.591 469.021 281.111 468.342 286.633C465.492 309.828 462.643 333.024 459.796 356.22C459.592 357.877 459.393 359.536 459.189 361.193C458.986 362.85 458.781 364.509 458.577 366.166C458.442 367.27 458.305 368.372 458.169 369.477C458.081 370.198 457.96 370.914 457.924 371.64C457.843 373.294 458.347 374.946 459.452 376.193C459.814 376.603 460.234 376.964 460.694 377.26C461.158 377.56 461.668 377.791 462.198 377.948C463.47 378.325 464.832 378.195 466.139 378.193C468.375 378.19 470.607 378.184 472.843 378.181C479.925 378.173 487.012 378.167 494.094 378.158C495.585 378.156 497.074 378.154 498.565 378.152C499.052 378.152 499.889 378.171 500.419 378.106C501.835 377.931 503.166 377.22 504.115 376.158C505.425 374.694 505.576 373.013 505.806 371.139C505.945 370.004 506.081 368.869 506.22 367.734C506.777 363.194 507.336 358.655 507.893 354.115C510.121 335.955 512.346 317.794 514.575 299.634C515.897 288.852 517.222 278.07 518.545 267.289C518.684 266.155 518.8 265.021 518.959 263.89C519.032 263.364 519.116 262.992 519.308 262.496C520.358 259.793 523.307 258.243 526.112 258.864C528.552 259.405 530.46 261.524 530.7 264.018C530.793 264.979 530.595 265.96 530.479 266.904C530.411 267.456 530.343 268.008 530.275 268.56C529.528 274.632 528.783 280.706 528.036 286.778C525.659 306.1 523.283 325.424 520.906 344.746C520.159 350.819 519.408 356.892 518.661 362.965C518.39 365.173 518.123 367.38 517.851 369.588C517.728 370.586 517.533 371.597 517.629 372.608C517.697 373.312 517.886 374.005 518.195 374.643C518.433 375.134 518.737 375.592 519.099 376.001C520.018 377.04 521.293 377.734 522.667 377.936C523.686 378.087 524.748 378.001 525.774 378.001C526.892 378.001 528.008 378.001 529.126 378.001C535.835 378.001 542.548 378.001 549.257 378.001C552.609 378.001 555.969 378.078 559.32 378.001C562.428 377.929 564.747 375.792 565.208 372.771C565.209 372.771 565.208 372.766 565.208 372.765C570.023 333.574 574.834 294.383 579.649 255.191C580.89 245.09 582.133 234.994 583.374 224.893C583.623 222.873 583.873 220.85 584.121 218.83C584.213 218.076 584.253 217.383 584.243 216.707C584.267 217.737 584.083 218.796 583.94 219.961C583.692 221.981 583.448 224.004 583.2 226.024C582.008 235.721 580.817 245.419 579.626 255.116C574.811 294.307 569.994 333.498 565.179 372.689C564.814 375.072 563.152 377.07 560.766 377.674C559.576 377.975 558.295 377.849 557.081 377.849C547.39 377.849 537.698 377.849 528.007 377.849C526.889 377.849 525.773 377.849 524.655 377.849C523.997 377.849 523.316 377.882 522.661 377.785C521.153 377.562 519.772 376.746 518.842 375.54C518.511 375.112 518.244 374.638 518.043 374.135C517.842 373.63 517.711 373.097 517.659 372.555C517.566 371.594 517.764 370.614 517.88 369.67C517.948 369.117 518.016 368.566 518.084 368.014C518.288 366.358 518.487 364.697 518.69 363.041C519.437 356.968 520.188 350.895 520.935 344.822C523.38 324.948 525.825 305.078 528.269 285.204C528.541 282.996 528.808 280.79 529.08 278.581C529.283 276.925 529.488 275.265 529.692 273.608C529.828 272.504 529.964 271.401 530.1 270.297C530.236 269.193 530.372 268.09 530.508 266.985C530.609 266.162 530.779 265.265 530.759 264.414C530.721 262.863 530.085 261.367 528.98 260.275C528.593 259.892 528.146 259.563 527.669 259.302C527.18 259.034 526.656 258.833 526.112 258.713C523.295 258.089 520.343 259.65 519.291 262.362C518.905 263.358 518.854 264.46 518.725 265.505C518.586 266.638 518.446 267.77 518.306 268.904C516.978 279.672 515.652 290.439 514.324 301.208C512.088 319.342 509.85 337.479 507.613 355.613C507.054 360.147 506.494 364.681 505.934 369.215C505.652 371.503 505.711 373.922 504.086 375.733C503.141 376.786 501.82 377.487 500.413 377.657C499.437 377.774 498.42 377.699 497.44 377.697C495.949 377.696 494.459 377.693 492.968 377.692C485.886 377.683 478.8 377.677 471.718 377.668C469.854 377.666 467.991 377.659 466.127 377.657C464.823 377.655 463.467 377.785 462.198 377.406C461.539 377.209 460.917 376.896 460.367 376.485C459.934 376.161 459.543 375.776 459.213 375.348C458.51 374.435 458.064 373.299 458.035 372.141C458.016 371.371 458.191 370.495 458.28 369.774C458.416 368.671 458.552 367.572 458.688 366.469C459.368 360.951 460.049 355.429 460.728 349.912C463.585 326.734 466.439 303.561 469.293 280.383C469.497 278.727 469.701 277.071 469.905 275.416C470.109 273.76 470.313 272.104 470.517 270.449C470.653 269.345 470.783 268.241 470.919 267.137C471.009 266.41 471.134 265.682 471.17 264.951C471.253 263.262 470.76 261.575 469.631 260.298C469.268 259.888 468.85 259.529 468.389 259.232C467.924 258.931 467.416 258.696 466.885 258.538C463.946 257.663 460.734 259.233 459.621 262.112C459.222 263.141 459.165 264.272 459.032 265.353C458.823 267.054 458.612 268.753 458.402 270.454C458.263 271.588 458.122 272.725 457.983 273.859C457.773 275.56 457.562 277.259 457.353 278.96C457.144 280.661 456.938 282.366 456.729 284.067C454.217 304.482 451.702 324.897 449.191 345.312C448.424 351.55 447.661 357.788 446.894 364.026C446.615 366.295 446.333 368.561 446.054 370.83C445.948 371.696 445.905 372.643 445.635 373.494C445.46 374.044 445.201 374.57 444.871 375.045C443.931 376.396 442.407 377.317 440.772 377.517C439.797 377.636 438.779 377.557 437.799 377.558C437.054 377.558 436.306 377.557 435.56 377.558C426.614 377.559 417.671 377.561 408.725 377.563C407.607 377.564 406.491 377.569 405.373 377.569C404.716 377.569 404.039 377.602 403.384 377.505C401.883 377.284 400.504 376.472 399.577 375.272C399.253 374.851 398.988 374.384 398.79 373.89C398.154 372.295 398.546 370.702 398.75 369.046C398.998 367.025 399.242 365.009 399.49 362.988C400.482 354.906 401.477 346.824 402.469 338.741C406.14 308.831 409.809 278.917 413.476 249.006C414.567 240.112 415.657 231.216 416.747 222.322C416.945 220.705 417.137 219.088 417.336 217.471C417.605 215.272 417.984 213.586 419.953 212.212C421.363 211.229 422.87 211.159 424.53 211.157C425.741 211.156 426.956 211.159 428.168 211.157C433.013 211.152 437.857 211.146 442.702 211.14C462.084 211.116 481.468 211.085 500.851 211.064C521.444 211.042 542.038 211.012 562.631 211.012C566.669 211.012 570.708 211.012 574.746 211.012C575.554 211.012 576.358 211.012 577.166 211.012C577.851 211.012 578.568 210.975 579.253 211.076C580.895 211.318 582.386 212.264 583.305 213.647C583.99 214.678 584.22 215.678 584.243 216.707C584.227 215.612 584.021 214.576 583.31 213.507C582.389 212.121 580.894 211.167 579.247 210.924C578.562 210.823 577.851 210.86 577.166 210.86C576.358 210.86 575.554 210.86 574.746 210.86C570.708 210.86 566.669 210.86 562.631 210.86C542.037 210.86 521.439 210.829 500.845 210.807C481.058 210.787 461.27 210.762 441.484 210.738C436.638 210.731 431.795 210.72 426.949 210.714C426.358 210.713 425.75 210.693 425.142 210.679Z" fill="#fffdfb" stroke="none"/>
</g>
<g opacity="1">
<path d="M757.247 210.937C760.828 210.937 763.602 214.071 763.166 217.626L758.783 253.409C758.416 256.4 755.877 258.648 752.863 258.648L644.155 258.648C641.136 258.648 638.593 260.904 638.233 263.901L638.233 263.901C637.807 267.451 640.579 270.575 644.155 270.575L749.954 270.575C753.541 270.575 756.317 273.719 755.872 277.279L751.399 313.062C751.026 316.047 748.489 318.286 745.481 318.286L636.76 318.286C633.741 318.286 631.198 320.542 630.838 323.54L630.838 323.54C630.412 327.09 633.184 330.214 636.76 330.214L742.576 330.214C746.157 330.214 748.931 333.348 748.495 336.903L744.112 372.686C743.745 375.677 741.205 377.925 738.192 377.925L583.223 377.925C579.641 377.925 576.867 374.789 577.304 371.234L596.354 216.173C596.721 213.183 599.261 210.937 602.273 210.937L757.247 210.937Z" fill="url(#LinearGradient_4)" fill-rule="nonzero" stroke="none"/>
<path d="M603.481 210.863C601.483 210.863 599.884 210.97 598.316 212.357C596.145 214.278 596.222 217.101 595.894 219.769C595.398 223.807 594.902 227.846 594.406 231.884C592.224 249.645 590.033 267.401 587.846 285.161C585.163 306.952 582.483 328.743 579.799 350.535C579.103 356.184 578.405 361.833 577.709 367.482C577.395 370.031 576.672 372.755 578.025 375.127C578.929 376.713 580.541 377.828 582.349 378.098C583.431 378.259 584.558 378.161 585.646 378.162C586.857 378.163 588.071 378.166 589.282 378.168C598.161 378.178 607.039 378.188 615.917 378.197C645.781 378.227 675.646 378.252 705.51 378.267C713.985 378.271 722.456 378.275 730.931 378.278C732.949 378.279 734.971 378.278 736.989 378.278C738.412 378.279 739.709 378.27 740.998 377.59C741.427 377.364 741.803 377.099 742.166 376.779C744.102 375.066 744.159 373.038 744.453 370.639C744.636 369.149 744.819 367.66 745.002 366.169C746.053 357.597 747.103 349.022 748.153 340.45C748.353 338.817 748.742 337.118 748.585 335.466C748.336 332.843 746.479 330.563 743.876 329.986C742.908 329.772 741.896 329.846 740.917 329.846C740.366 329.846 739.816 329.846 739.265 329.846C737.612 329.846 735.958 329.846 734.305 329.846C728.242 329.846 722.176 329.847 716.114 329.846C696.274 329.845 676.434 329.842 656.593 329.846C654.389 329.847 652.186 329.846 649.981 329.846C648.328 329.847 646.674 329.852 645.021 329.852C643.919 329.852 642.814 329.852 641.712 329.852C640.61 329.852 639.511 329.852 638.409 329.852C637.601 329.852 636.703 329.909 635.882 329.788C634.238 329.546 632.742 328.602 631.82 327.22C631.524 326.776 631.284 326.292 631.12 325.784C630.942 325.235 630.847 324.658 630.875 324.08C630.913 323.278 631.147 322.495 631.522 321.787C631.854 321.162 632.289 320.611 632.818 320.141C634.571 318.585 636.261 318.642 638.461 318.641C639.594 318.641 640.725 318.642 641.858 318.641C650.352 318.638 658.849 318.634 667.343 318.63C687.728 318.618 708.113 318.601 728.498 318.583C733.028 318.579 737.56 318.576 742.09 318.571C745.037 318.568 747.791 318.967 749.945 316.564C751.117 315.255 751.381 313.767 751.591 312.087C751.73 310.969 751.871 309.851 752.011 308.732C752.708 303.137 753.403 297.543 754.1 291.948C754.565 288.218 755.03 284.49 755.495 280.76C755.766 278.584 756.361 276.265 755.518 274.142C755.313 273.626 755.035 273.135 754.695 272.695C753.754 271.474 752.359 270.649 750.832 270.425C750.008 270.304 749.109 270.365 748.299 270.366C747.197 270.368 746.092 270.371 744.99 270.372C740.582 270.378 736.174 270.384 731.766 270.39C709.174 270.42 686.586 270.451 663.993 270.477C658.483 270.484 652.971 270.489 647.46 270.495C646.358 270.496 645.253 270.502 644.151 270.495C643.713 270.492 643.284 270.449 642.856 270.355C640.678 269.876 638.91 268.148 638.374 265.984C638.145 265.06 638.157 264.106 638.374 263.223C638.544 262.529 638.854 261.861 639.261 261.274C639.535 260.878 639.84 260.543 640.2 260.224C641.957 258.665 643.65 258.724 645.855 258.724C647.554 258.724 649.252 258.724 650.95 258.724C652.083 258.724 653.214 258.724 654.347 258.724C656.045 258.724 657.743 258.724 659.441 258.724C661.14 258.724 662.838 258.724 664.536 258.724C684.353 258.724 704.17 258.724 723.987 258.724C730.781 258.724 737.577 258.724 744.372 258.724C746.636 258.724 748.9 258.724 751.165 258.724C751.979 258.724 752.802 258.776 753.61 258.677C754.324 258.59 755.022 258.365 755.658 258.029C756.085 257.804 756.458 257.544 756.82 257.224C758.729 255.534 758.782 253.579 759.072 251.213C759.209 250.095 759.344 248.976 759.481 247.857C760.577 238.912 761.676 229.964 762.772 221.018C762.975 219.365 763.42 217.52 763.14 215.853C762.643 212.897 760.175 210.963 757.246 210.863C718.099 210.863 678.95 210.863 639.804 210.863C629.714 210.863 619.628 210.863 609.538 210.863C607.521 210.863 605.499 210.863 603.481 210.863ZM602.961 211.009C603.521 211.001 604.097 211.009 604.695 211.009C606.713 211.009 608.734 211.009 610.752 211.009C620.438 211.009 630.124 211.009 639.809 211.009C678.956 211.009 718.099 211.009 757.246 211.009C758.116 211.039 758.947 211.191 759.743 211.558C760.367 211.846 760.941 212.242 761.43 212.725C762.503 213.785 763.155 215.241 763.192 216.752C763.218 217.775 763.001 218.811 762.877 219.822C762.786 220.567 762.694 221.311 762.603 222.057C761.507 231.003 760.413 239.95 759.317 248.896C759.18 250.014 759.04 251.134 758.903 252.252C758.634 254.447 758.22 256.151 756.259 257.516C755.862 257.793 755.457 258.001 755.005 258.175C754.544 258.352 754.094 258.472 753.604 258.531C752.25 258.696 750.826 258.572 749.466 258.572C747.202 258.572 744.938 258.572 742.673 258.572C736.445 258.572 730.215 258.572 723.987 258.572C704.17 258.572 684.353 258.572 664.536 258.572C662.271 258.572 660.008 258.572 657.743 258.572C656.045 258.572 654.347 258.572 652.648 258.572C650.384 258.572 648.114 258.572 645.85 258.572C643.391 258.572 641.478 258.573 639.693 260.574C639.368 260.937 639.11 261.317 638.881 261.747C638.521 262.426 638.356 263.104 638.222 263.854C638.093 264.578 638.175 265.386 638.35 266.095C638.517 266.77 638.805 267.413 639.191 267.991C640.12 269.384 641.625 270.348 643.282 270.594C644.104 270.716 645 270.657 645.809 270.658C646.911 270.659 648.016 270.657 649.118 270.658C654.628 270.664 660.135 270.669 665.645 270.676C688.238 270.703 710.83 270.733 733.423 270.763C737.832 270.769 742.245 270.775 746.653 270.781C748.028 270.783 749.465 270.647 750.832 270.851C752.899 271.159 754.706 272.588 755.477 274.533C755.979 275.798 755.853 276.952 755.687 278.274C755.547 279.392 755.407 280.512 755.267 281.63C754.8 285.355 754.333 289.075 753.867 292.8C753.213 298.015 752.559 303.231 751.906 308.446C751.766 309.563 751.626 310.684 751.486 311.802C751.285 313.404 751.032 314.784 749.91 316.033C747.765 318.418 745.007 318.008 742.078 318.005C736.982 318 731.884 317.992 726.788 317.988C706.402 317.969 686.019 317.952 665.633 317.941C657.139 317.936 648.648 317.932 640.154 317.929C637.451 317.928 634.947 317.516 632.783 319.435C632.419 319.758 632.109 320.103 631.832 320.503C631.567 320.884 631.315 321.36 631.149 321.793C630.892 322.46 630.757 323.169 630.723 323.882C630.682 324.722 630.78 325.573 631.038 326.374C631.734 328.537 633.632 330.179 635.888 330.511C637.255 330.713 638.696 330.575 640.072 330.576C642.277 330.576 644.48 330.581 646.684 330.582C648.337 330.582 649.991 330.581 651.645 330.582C653.849 330.582 656.052 330.581 658.257 330.582C677.546 330.584 696.836 330.589 716.126 330.587C722.188 330.587 728.254 330.582 734.316 330.582C736.521 330.581 738.724 330.582 740.928 330.582C741.905 330.581 742.911 330.508 743.876 330.722C744.555 330.872 745.211 331.144 745.796 331.521C746.253 331.816 746.666 332.175 747.027 332.583C747.864 333.529 748.43 334.771 748.463 336.044C748.487 337.007 748.27 337.993 748.153 338.944C748.062 339.69 747.97 340.434 747.879 341.18C746.829 349.754 745.777 358.33 744.728 366.904C744.545 368.395 744.362 369.889 744.179 371.38C744.108 371.957 744.066 372.572 743.922 373.143C743.52 374.734 742.426 376.111 740.975 376.878C739.344 377.739 737.548 377.572 735.764 377.572C733.746 377.573 731.729 377.572 729.712 377.572C721.237 377.575 712.765 377.58 704.29 377.584C674.427 377.599 644.561 377.624 614.697 377.654C605.819 377.663 596.941 377.673 588.062 377.683C586.852 377.685 585.643 377.688 584.432 377.689C583.588 377.69 582.752 377.732 581.923 377.549C580.302 377.192 578.878 376.141 578.054 374.701C577.163 373.144 577.283 371.862 577.493 370.143C577.642 368.931 577.794 367.714 577.943 366.502C578.636 360.845 579.327 355.188 580.02 349.531C582.645 328.115 585.268 306.704 587.893 285.289C590.072 267.514 592.251 249.735 594.435 231.96C594.931 227.922 595.427 223.883 595.923 219.845C596.249 217.194 596.172 214.416 598.328 212.509C599.761 211.241 601.282 211.034 602.961 211.009Z" fill="#fffdfb" stroke="none"/>
</g>
</g>
<g opacity="1">
<g opacity="1">
<path d="M241.803 35.0205C245.384 35.0205 248.158 38.1548 247.722 41.7096L243.339 77.4928C242.973 80.4837 240.433 82.7315 237.419 82.7315L128.693 82.7315C125.682 82.7315 123.143 84.9766 122.774 87.9654L115.419 147.604C114.98 151.16 117.754 154.298 121.338 154.298L180.869 154.298C183.888 154.298 186.43 152.042 186.79 149.045L186.79 149.045C187.216 145.495 184.444 142.37 180.869 142.37L134.708 142.37C131.121 142.37 128.345 139.226 128.79 135.667L133.263 99.8834C133.636 96.8989 136.173 94.6592 139.181 94.6592L234.521 94.6592C238.105 94.6592 240.879 97.7967 240.44 101.353L228.672 196.775C228.303 199.764 225.764 202.009 222.753 202.009L67.7791 202.009C64.1969 202.009 61.4229 198.873 61.8597 195.318L80.91 40.2572C81.2773 37.2671 83.8169 35.0205 86.8294 35.0205L241.803 35.0205Z" fill="url(#LinearGradient_5)" fill-rule="nonzero" stroke="none"/>
<path d="M87.0576 34.9363C86.7314 34.9372 86.4062 34.9495 86.0828 34.9888C84.6592 35.1621 83.3252 35.8719 82.3703 36.9385C81.191 38.2557 80.9549 39.7389 80.7475 41.4274C80.5987 42.6388 80.4469 43.8526 80.298 45.064C79.6035 50.7173 78.9086 56.3682 78.2141 62.0214C75.4373 84.6234 72.6566 107.226 69.8726 129.828C67.7352 147.179 65.5948 164.533 63.4574 181.885C63.01 185.517 62.5621 189.145 62.1148 192.777C61.7756 195.531 61.3176 197.969 63.3056 200.22C65.4962 202.7 68.3939 202.242 71.4136 202.245C75.0459 202.25 78.6796 202.258 82.3119 202.263C99.6659 202.283 117.021 202.3 134.375 202.315C157.379 202.335 180.379 202.345 203.384 202.356C208.63 202.359 213.88 202.36 219.127 202.362C222.108 202.363 225.033 202.817 227.229 200.366C228.506 198.94 228.696 197.3 228.922 195.474C229.044 194.48 229.167 193.491 229.29 192.497C229.719 189.019 230.15 185.538 230.58 182.06C232.358 167.648 234.137 153.234 235.915 138.823C237.08 129.38 238.241 119.937 239.406 110.494C239.712 108.009 240.021 105.525 240.328 103.04C240.537 101.34 240.749 99.7225 240.1 98.0901C239.893 97.5689 239.608 97.075 239.265 96.6308C238.322 95.4074 236.925 94.5801 235.395 94.3543C234.621 94.24 233.793 94.29 233.025 94.2901C232.032 94.2901 231.041 94.2899 230.048 94.2901C225.579 94.2906 221.109 94.2895 216.64 94.2901C195.784 94.2926 174.931 94.2982 154.076 94.3076C150.103 94.3094 146.128 94.3114 142.156 94.3134C140.931 94.314 139.651 94.2111 138.432 94.3601C136.476 94.5989 134.854 95.8035 133.89 97.4889C133.306 98.5115 133.204 99.6778 133.061 100.822C132.922 101.941 132.781 103.06 132.641 104.178C132.176 107.907 131.711 111.634 131.246 115.363C130.548 120.956 129.849 126.552 129.15 132.145C128.969 133.596 128.645 135.09 128.678 136.558C128.727 138.771 129.866 140.864 131.83 141.94C133.613 142.917 135.634 142.671 137.597 142.67C140.001 142.668 142.408 142.666 144.812 142.664C154.429 142.654 164.043 142.646 173.66 142.635C174.622 142.633 175.582 142.63 176.544 142.629C177.505 142.628 178.466 142.624 179.427 142.623C180.342 142.622 181.271 142.565 182.171 142.763C184.86 143.354 187.162 146.059 186.747 148.904C186.644 149.615 186.455 150.268 186.117 150.906C185.784 151.534 185.346 152.092 184.815 152.564C183.014 154.164 181.27 154.067 179.007 154.07C177.767 154.072 176.523 154.074 175.283 154.076C174.043 154.077 172.805 154.08 171.564 154.082C157.922 154.099 144.281 154.116 130.639 154.134C129.399 154.136 128.155 154.138 126.915 154.14C125.675 154.142 124.437 154.144 123.196 154.146C122.337 154.147 121.344 154.217 120.459 154.087C119.079 153.886 117.799 153.187 116.875 152.144C116.514 151.736 116.207 151.279 115.97 150.789C115.735 150.304 115.569 149.786 115.479 149.254C115.286 148.109 115.533 146.945 115.672 145.81C115.902 143.945 116.132 142.083 116.361 140.218C117.126 134.002 117.89 127.784 118.655 121.568C119.726 112.865 120.8 104.166 121.871 95.4634C122.101 93.5993 122.33 91.7352 122.56 89.8712C122.792 87.9913 122.934 86.2646 124.247 84.7986C126.03 82.808 127.943 82.8081 130.394 82.8081C131.526 82.8081 132.659 82.8081 133.791 82.8081C140.587 82.8081 147.38 82.8081 154.175 82.8081C173.995 82.8081 193.814 82.8081 213.634 82.8081C219.863 82.8081 226.096 82.8081 232.325 82.8081C233.457 82.8081 234.59 82.8081 235.722 82.8081C237.046 82.8081 238.316 82.8936 239.569 82.4111C240.236 82.1544 240.844 81.7814 241.379 81.3079C243.288 79.6181 243.336 77.6616 243.626 75.2955C243.809 73.8045 243.992 72.315 244.175 70.8241C245.225 62.251 246.277 53.6779 247.327 45.1049C247.529 43.4516 247.975 41.6002 247.695 39.933C247.197 36.977 244.734 35.048 241.805 34.948C241.803 34.948 241.806 34.9581 241.805 34.9596C241.803 34.9577 241.8 34.9479 241.799 34.948C201.845 34.948 161.895 34.948 121.941 34.948C112.256 34.948 102.569 34.948 92.8833 34.948C91.269 34.948 89.6526 34.948 88.0383 34.948C87.7125 34.948 87.3839 34.9353 87.0576 34.9363ZM87.6705 35.0706C88.2014 35.0756 88.731 35.0939 89.2525 35.0939C90.8668 35.0939 92.4831 35.0939 94.0974 35.0939C103.783 35.0939 113.464 35.0939 123.15 35.0939C162.7 35.0939 202.254 35.0939 241.805 35.0939C242.675 35.1236 243.501 35.2752 244.297 35.6426C244.921 35.9303 245.495 36.3273 245.984 36.8101C247.057 37.8696 247.715 39.3209 247.753 40.832C247.778 41.8547 247.556 42.8979 247.432 43.9082C247.341 44.6537 247.249 45.3984 247.158 46.1439C246.107 54.717 245.061 63.29 244.011 71.8631C243.829 73.3541 243.645 74.8435 243.462 76.3345C243.194 78.5293 242.773 80.2351 240.812 81.5997C240.415 81.8767 240.015 82.0853 239.563 82.2594C238.311 82.7414 237.045 82.6563 235.722 82.6563C234.023 82.6563 232.319 82.6563 230.62 82.6563C224.958 82.6563 219.297 82.6563 213.634 82.6563C193.814 82.6563 173.995 82.6563 154.175 82.6563C147.38 82.6563 140.587 82.6563 133.791 82.6563C132.659 82.6563 131.526 82.6563 130.394 82.6563C127.94 82.6563 126.021 82.6591 124.235 84.6527C122.908 86.1342 122.765 87.8906 122.531 89.7895C122.225 92.2738 121.916 94.7594 121.609 97.2437C120.534 105.936 119.461 114.627 118.386 123.319C117.619 129.527 116.854 135.738 116.087 141.946C115.933 143.187 115.779 144.428 115.625 145.67C115.471 146.923 115.223 148.16 115.433 149.418C115.55 150.12 115.792 150.801 116.145 151.42C117.048 153.004 118.653 154.116 120.459 154.385C121.345 154.517 122.342 154.448 123.202 154.449C125.063 154.452 126.922 154.459 128.783 154.461C130.023 154.463 131.261 154.459 132.501 154.461C146.144 154.48 159.79 154.502 173.432 154.519C175.293 154.522 177.152 154.523 179.013 154.525C181.283 154.528 183.029 154.627 184.838 153.025C185.201 152.704 185.507 152.367 185.784 151.969C186.047 151.59 186.302 151.114 186.467 150.684C186.675 150.143 186.753 149.759 186.835 149.184C186.95 148.374 186.89 147.519 186.695 146.727C186.525 146.038 186.236 145.379 185.842 144.789C184.911 143.39 183.407 142.426 181.745 142.179C180.513 141.996 179.218 142.117 177.98 142.115C176.537 142.113 175.097 142.111 173.654 142.109C163.556 142.097 153.456 142.084 143.358 142.074C140.954 142.072 138.554 142.071 136.149 142.068C134.466 142.067 132.941 142.066 131.485 141.123C131.027 140.826 130.609 140.464 130.248 140.055C129.398 139.09 128.842 137.829 128.812 136.535C128.79 135.559 129.007 134.561 129.127 133.598C129.22 132.853 129.314 132.108 129.407 131.363C130.107 125.774 130.809 120.187 131.509 114.598C131.975 110.872 132.443 107.146 132.91 103.42C133.003 102.674 133.097 101.929 133.19 101.184C133.322 100.127 133.414 99.0685 133.955 98.1252C134.31 97.505 134.712 96.9597 135.25 96.4849C136.905 95.0262 138.576 95.001 140.673 95.0022C141.666 95.0028 142.663 95.0018 143.656 95.0022C147.629 95.004 151.598 95.0063 155.57 95.008C176.426 95.0174 197.284 95.023 218.14 95.0256C222.609 95.0261 227.079 95.031 231.549 95.0314C232.817 95.0315 234.14 94.9034 235.401 95.0898C237.455 95.3933 239.26 96.8058 240.03 98.7381C240.729 100.492 240.224 102.328 240.001 104.138C239.694 106.622 239.391 109.107 239.085 111.592C237.92 121.035 236.752 130.477 235.588 139.92C233.811 154.334 232.035 168.749 230.258 183.163C229.83 186.643 229.397 190.121 228.968 193.6C228.7 195.777 228.717 197.957 227.182 199.671C225 202.107 222.077 201.655 219.115 201.656C213.869 201.658 208.624 201.659 203.378 201.662C180.374 201.673 157.367 201.683 134.363 201.702C117.01 201.717 99.6596 201.735 82.3061 201.755C78.2704 201.76 74.2352 201.768 70.1995 201.772C69.1122 201.774 67.9826 201.872 66.9014 201.714C65.5235 201.512 64.2462 200.818 63.3231 199.776C61.1858 197.364 61.9894 194.731 62.3483 191.802C62.794 188.166 63.2394 184.529 63.685 180.892C65.8141 163.517 67.942 146.14 70.0711 128.765C72.7939 106.544 75.5134 84.3231 78.2433 62.1031C78.9378 56.4499 79.6327 50.7932 80.3272 45.1399C80.476 43.9285 80.6279 42.7205 80.7767 41.5091C80.9816 39.8411 81.2167 38.3858 82.3819 37.0844C83.3352 36.0198 84.6677 35.3135 86.0886 35.1406C86.6079 35.0774 87.1397 35.0655 87.6705 35.0706Z" fill="#fffdfb" stroke="none"/>
</g>
<g opacity="1">
<path d="M307.606 82.7315C304.596 82.7315 302.059 84.9751 301.691 87.962L294.334 147.608C293.896 151.162 296.669 154.298 300.25 154.298L359.806 154.298C362.815 154.298 365.352 152.054 365.721 149.067L373.077 89.421C373.516 85.867 370.743 82.7315 367.162 82.7315L307.606 82.7315ZM259.827 40.2538C260.194 37.2657 262.732 35.0205 265.742 35.0205L420.721 35.0205C424.301 35.0205 427.073 38.1541 426.636 41.7073L407.585 196.776C407.218 199.764 404.68 202.009 401.67 202.009L246.691 202.009C243.111 202.009 240.339 198.875 240.775 195.322L259.827 40.2538Z" fill="url(#LinearGradient_6)" fill-rule="nonzero" stroke="none"/>
<path d="M365.807 82.581C365.034 82.5863 364.241 82.6198 363.439 82.6233C360.337 82.6366 357.235 82.6531 354.133 82.6556C338.623 82.6682 323.113 82.6556 307.604 82.6556C305.16 82.7266 302.941 84.1405 302.037 86.4708C301.631 87.5161 301.582 88.6946 301.447 89.7865C301.294 91.0291 301.141 92.2722 300.988 93.5148C300.834 94.7574 300.681 95.9979 300.528 97.2406C298.92 110.278 297.314 123.317 295.689 136.353C295.302 139.45 294.914 142.546 294.528 145.643C294.225 148.071 293.935 150.127 295.512 152.185C297.685 155.021 300.742 154.551 303.975 154.566C307.077 154.581 310.179 154.592 313.281 154.604C323.828 154.642 334.375 154.66 344.921 154.666C348.644 154.668 352.367 154.669 356.089 154.668C357.442 154.668 358.834 154.739 360.185 154.656C360.783 154.619 361.405 154.5 361.96 154.268C362.467 154.056 362.765 153.92 363.217 153.604C364.418 152.769 365.29 151.503 365.641 150.082C365.857 149.206 365.911 148.295 366.021 147.398C366.174 146.155 366.325 144.911 366.478 143.667C366.631 142.424 366.785 141.18 366.938 139.937C368.622 126.245 370.299 112.552 371.971 98.8586C372.276 96.3667 372.579 93.8766 372.883 91.3847C373.177 88.9783 373.474 86.9443 371.897 84.9124C370.262 82.8062 368.126 82.5652 365.807 82.581ZM307.607 82.8072C323.116 82.8072 338.626 82.7945 354.135 82.8072C357.858 82.8102 361.58 82.8335 365.303 82.8495C366.162 82.8531 367.154 82.7895 368.039 82.924C369.421 83.134 370.699 83.8385 371.621 84.8876C372.505 85.8947 373.054 87.2057 373.085 88.5512C373.105 89.4103 372.911 90.3853 372.811 91.1859C372.734 91.8055 372.657 92.4254 372.58 93.045C372.271 95.5237 371.962 98.0029 371.653 100.482C370.031 113.506 368.415 126.533 366.804 139.559C366.65 140.801 366.495 142.043 366.342 143.285C366.188 144.527 366.035 145.768 365.882 147.01C365.778 147.848 365.739 148.697 365.534 149.516C365.194 150.874 364.331 152.08 363.185 152.876C362.735 153.189 362.439 153.322 361.935 153.532C361.384 153.762 360.767 153.882 360.173 153.918C358.203 154.037 356.19 153.927 354.217 153.928C350.495 153.928 346.772 153.927 343.05 153.93C332.504 153.937 321.958 153.958 311.412 153.997C308.31 154.009 305.208 154.024 302.106 154.039C301.248 154.044 300.255 154.116 299.37 153.99C297.857 153.774 296.471 152.961 295.534 151.755C294.045 149.836 294.322 148.126 294.6 145.845C294.676 145.222 294.753 144.599 294.829 143.976C295.132 141.483 295.437 138.989 295.741 136.497C297.333 123.436 298.945 110.381 300.555 97.3226C300.785 95.4586 301.016 93.5941 301.246 91.7302C301.399 90.4887 301.53 89.2433 301.703 88.0044C301.777 87.4775 301.861 87.0991 302.054 86.6026C302.957 84.2807 305.172 82.878 307.607 82.8072ZM420.126 34.8235C419.538 34.8127 418.928 34.8279 418.295 34.8293C417.084 34.8321 415.877 34.8323 414.666 34.8351C406.998 34.8527 399.326 34.8702 391.658 34.8874C359.775 34.9591 327.892 34.9456 296.008 34.9456C287.129 34.9456 278.251 34.9456 269.372 34.9456C268.565 34.9456 267.76 34.9456 266.953 34.9456C266.054 34.9456 265.163 34.9033 264.284 35.1258C261.849 35.7422 260.183 37.7834 259.813 40.2078C259.812 40.208 259.813 40.2128 259.813 40.2136C254.901 80.1902 250.002 120.171 245.073 160.145C243.879 169.827 242.686 179.507 241.491 189.189C241.292 190.802 241.097 192.419 240.898 194.032C240.809 194.751 240.677 195.478 240.694 196.207C240.729 197.657 241.256 199.065 242.218 200.155C243.144 201.205 244.431 201.913 245.817 202.12C246.898 202.282 248.026 202.188 249.114 202.19C250.325 202.193 251.537 202.193 252.748 202.196C260.416 202.212 268.082 202.227 275.75 202.242C307.635 202.306 339.522 202.349 371.406 202.365C380.285 202.369 389.163 202.375 398.042 202.376C398.85 202.376 399.654 202.376 400.461 202.376C401.361 202.376 402.256 202.424 403.136 202.202C405.425 201.623 407.164 199.697 407.59 197.393C407.91 195.662 408.038 193.873 408.253 192.125C408.6 189.299 408.946 186.474 409.294 183.647C410.385 174.763 411.476 165.878 412.567 156.993C415.891 129.924 419.208 102.852 422.522 75.7813C423.66 66.4835 424.798 57.1867 425.935 47.8888C426.133 46.2717 426.33 44.6566 426.528 43.0395C426.618 42.3056 426.744 41.5615 426.726 40.8183C426.687 39.2117 426.061 37.6649 424.912 36.533C423.464 35.1076 421.89 34.8558 420.126 34.8235ZM266.953 35.0968C268.164 35.0968 269.376 35.0968 270.587 35.0968C279.062 35.0968 287.539 35.0968 296.014 35.0968C327.898 35.0968 359.78 35.0774 391.664 35.1491C399.332 35.1663 407.004 35.1839 414.672 35.2014C416.287 35.2051 417.895 35.2094 419.51 35.2131C421.621 35.2179 423.319 35.3731 424.894 36.9342C425.928 37.9588 426.597 39.3777 426.633 40.8416C426.658 41.8953 426.424 42.9698 426.295 44.0105C426.096 45.6239 425.896 47.2348 425.697 48.8482C424.552 58.1263 423.41 67.4044 422.266 76.6826C418.931 103.725 415.601 130.77 412.277 157.813C411.185 166.697 410.094 175.578 409.003 184.462C408.656 187.288 408.309 190.118 407.962 192.945C407.801 194.255 407.709 195.595 407.468 196.893C407.058 199.103 405.288 200.914 403.119 201.463C402.241 201.686 401.352 201.638 400.455 201.638C399.648 201.638 398.838 201.643 398.031 201.644C389.152 201.645 380.273 201.645 371.394 201.649C339.108 201.665 306.822 201.713 274.535 201.777C266.867 201.793 259.201 201.808 251.533 201.824C250.322 201.826 249.109 201.827 247.899 201.83C247.212 201.831 246.497 201.871 245.811 201.772C244.433 201.571 243.159 200.876 242.235 199.835C241.348 198.835 240.798 197.537 240.764 196.195C240.737 195.127 240.972 194.036 241.101 192.98C241.299 191.363 241.497 189.742 241.694 188.125C242.881 178.423 244.071 168.724 245.259 159.023C250.103 119.446 254.98 79.8752 259.842 40.3008C259.841 40.301 259.842 40.2952 259.842 40.295C260.209 37.8957 261.881 35.8794 264.284 35.2712C265.163 35.0488 266.055 35.0968 266.953 35.0968Z" fill="#fffdfb" stroke="none"/>
</g>
<g opacity="1">
<path d="M486.522 82.7315C483.513 82.7315 480.975 84.9751 480.607 87.962L473.251 147.608C472.812 151.162 475.585 154.298 479.166 154.298L538.722 154.298C541.731 154.298 544.269 152.054 544.637 149.067L551.993 89.421C552.432 85.867 549.659 82.7315 546.078 82.7315L486.522 82.7315ZM438.743 40.2538C439.11 37.2657 441.648 35.0205 444.658 35.0205L599.637 35.0205C603.217 35.0205 605.989 38.1541 605.552 41.7073L586.501 196.776C586.134 199.764 583.596 202.009 580.586 202.009L425.607 202.009C422.027 202.009 419.255 198.875 419.691 195.322L438.743 40.2538Z" fill="url(#LinearGradient_7)" fill-rule="nonzero" stroke="none"/>
<path d="M544.724 82.581C543.951 82.5863 543.158 82.6198 542.355 82.6233C539.254 82.6366 536.151 82.6531 533.05 82.6556C517.54 82.6682 502.03 82.6556 486.521 82.6556C484.077 82.7266 481.858 84.1405 480.953 86.4708C480.548 87.5161 480.497 88.6946 480.362 89.7865C480.209 91.0291 480.055 92.2722 479.902 93.5148C479.749 94.7574 479.595 95.9979 479.442 97.2406C477.834 110.278 476.229 123.317 474.603 136.353C474.217 139.45 473.831 142.546 473.445 145.643C473.142 148.071 472.852 150.127 474.429 152.185C476.601 155.021 479.659 154.551 482.892 154.566C485.994 154.581 489.096 154.592 492.198 154.604C502.744 154.642 513.292 154.66 523.838 154.666C527.561 154.668 531.283 154.669 535.006 154.668C536.359 154.668 537.75 154.739 539.102 154.656C539.7 154.619 540.322 154.5 540.876 154.268C541.384 154.056 541.681 153.92 542.134 153.604C543.334 152.769 544.206 151.503 544.558 150.082C544.774 149.206 544.825 148.295 544.935 147.398C545.088 146.155 545.242 144.911 545.395 143.667C545.548 142.424 545.702 141.18 545.855 139.937C547.539 126.245 549.214 112.552 550.886 98.8586C551.19 96.3667 551.494 93.8766 551.798 91.3847C552.091 88.9783 552.388 86.9443 550.811 84.9124C549.176 82.8062 547.043 82.5652 544.724 82.581ZM486.523 82.8072C502.033 82.8072 517.543 82.7945 533.052 82.8072C536.775 82.8102 540.497 82.8335 544.219 82.8495C545.079 82.8531 546.071 82.7895 546.956 82.924C548.338 83.134 549.616 83.8385 550.538 84.8876C551.422 85.8947 551.971 87.2057 552.002 88.5512C552.021 89.4103 551.828 90.3853 551.728 91.1859C551.651 91.8055 551.574 92.4254 551.497 93.045C551.188 95.5237 550.879 98.0029 550.57 100.482C548.948 113.506 547.33 126.533 545.718 139.559C545.565 140.801 545.412 142.043 545.258 143.285C545.105 144.527 544.952 145.768 544.799 147.01C544.695 147.848 544.653 148.697 544.448 149.516C544.108 150.874 543.245 152.08 542.099 152.876C541.65 153.189 541.356 153.322 540.852 153.532C540.301 153.762 539.683 153.882 539.089 153.918C537.12 154.037 535.107 153.927 533.134 153.928C529.412 153.928 525.689 153.927 521.967 153.93C511.421 153.937 500.875 153.958 490.329 153.997C487.227 154.009 484.125 154.024 481.023 154.039C480.165 154.044 479.172 154.116 478.286 153.99C476.774 153.774 475.385 152.961 474.449 151.755C472.959 149.836 473.239 148.126 473.517 145.845C473.593 145.222 473.667 144.599 473.743 143.976C474.047 141.483 474.351 138.989 474.655 136.497C476.248 123.436 477.862 110.381 479.472 97.3226C479.702 95.4586 479.931 93.5941 480.16 91.7302C480.314 90.4887 480.447 89.2433 480.62 88.0044C480.694 87.4775 480.778 87.0991 480.971 86.6026C481.873 84.2807 484.089 82.878 486.523 82.8072ZM599.046 34.8235C598.458 34.8127 597.848 34.8279 597.215 34.8293C596.004 34.8321 594.791 34.8323 593.581 34.8351C585.913 34.8527 578.246 34.8702 570.578 34.8874C538.695 34.9591 506.812 34.9456 474.929 34.9456C466.05 34.9456 457.171 34.9456 448.292 34.9456C447.485 34.9456 446.675 34.9456 445.867 34.9456C444.968 34.9456 444.078 34.9033 443.198 35.1258C440.763 35.7422 439.097 37.7834 438.727 40.2078C438.726 40.208 438.727 40.2128 438.727 40.2136C433.816 80.1902 428.923 120.171 423.993 160.145C422.799 169.827 421.606 179.507 420.411 189.189C420.212 190.802 420.011 192.419 419.812 194.032C419.724 194.751 419.597 195.478 419.615 196.207C419.649 197.657 420.176 199.065 421.138 200.155C422.064 201.205 423.345 201.913 424.731 202.12C425.813 202.282 426.94 202.188 428.028 202.19C429.239 202.193 430.452 202.193 431.662 202.196C439.331 202.212 447.002 202.227 454.671 202.242C486.555 202.306 518.436 202.349 550.32 202.365C559.199 202.369 568.078 202.375 576.957 202.376C577.764 202.376 578.574 202.376 579.382 202.376C580.282 202.376 581.176 202.424 582.056 202.202C584.345 201.623 586.078 199.697 586.504 197.393C586.825 195.662 586.953 193.873 587.167 192.125C587.515 189.299 587.861 186.474 588.208 183.647C589.3 174.763 590.391 165.878 591.482 156.993C594.805 129.924 598.129 102.852 601.442 75.7813C602.58 66.4835 603.718 57.1867 604.855 47.8888C605.053 46.2717 605.251 44.6566 605.448 43.0395C605.538 42.3056 605.664 41.5615 605.646 40.8183C605.607 39.2117 604.975 37.6649 603.826 36.533C602.379 35.1076 600.81 34.8558 599.046 34.8235ZM445.867 35.0968C447.078 35.0968 448.291 35.0968 449.501 35.0968C457.977 35.0968 466.453 35.0968 474.929 35.0968C506.813 35.0968 538.694 35.0774 570.578 35.1491C578.247 35.1663 585.918 35.1839 593.587 35.2014C595.201 35.2051 596.816 35.2094 598.43 35.2131C600.541 35.2179 602.24 35.3731 603.814 36.9342C604.848 37.9588 605.517 39.3777 605.553 40.8416C605.579 41.8953 605.338 42.9698 605.21 44.0105C605.011 45.6239 604.816 47.2348 604.617 48.8482C603.472 58.1263 602.325 67.4044 601.18 76.6826C597.846 103.725 594.521 130.77 591.197 157.813C590.105 166.697 589.009 175.578 587.917 184.462C587.57 187.288 587.224 190.118 586.877 192.945C586.716 194.255 586.623 195.595 586.382 196.893C585.972 199.103 584.202 200.914 582.033 201.463C581.156 201.686 580.267 201.638 579.37 201.638C578.563 201.638 577.758 201.643 576.951 201.644C568.072 201.645 559.194 201.645 550.315 201.649C518.028 201.665 485.736 201.713 453.45 201.777C445.782 201.793 438.115 201.808 430.447 201.824C429.236 201.826 428.024 201.827 426.813 201.83C426.126 201.831 425.417 201.871 424.731 201.772C423.354 201.571 422.073 200.876 421.15 199.835C420.262 198.835 419.712 197.537 419.678 196.195C419.652 195.127 419.887 194.036 420.016 192.98C420.214 191.363 420.411 189.742 420.609 188.125C421.795 178.423 422.986 168.724 424.173 159.023C429.018 119.446 433.894 79.8752 438.756 40.3008C438.756 40.301 438.757 40.2952 438.756 40.295C439.124 37.8957 440.795 35.8794 443.198 35.2712C444.077 35.0488 444.969 35.0968 445.867 35.0968Z" fill="#fffdfb" stroke="none"/>
</g>
<g opacity="1">
<path d="M730.91 89.421C731.348 85.867 728.575 82.7315 724.994 82.7315L619.192 82.7315C615.613 82.7315 612.841 79.5993 613.276 76.0468L617.66 40.2558C618.027 37.2668 620.565 35.0205 623.576 35.0205L778.553 35.0205C782.133 35.0205 784.905 38.1541 784.469 41.7073L765.417 196.776C765.05 199.764 762.512 202.009 759.502 202.009L604.526 202.009C600.945 202.009 598.173 198.873 598.611 195.319L610.381 99.8897C610.749 96.9028 613.286 94.6592 616.296 94.6592L651.992 94.6592C655.575 94.6592 658.348 97.7973 657.907 101.353L652.172 147.605C651.731 151.16 654.504 154.298 658.086 154.298L717.638 154.298C720.647 154.298 723.185 152.054 723.553 149.067L730.91 89.421Z" fill="url(#LinearGradient_8)" fill-rule="nonzero" stroke="none"/>
<path d="M776.13 34.7234C773.305 34.7263 770.48 34.7318 767.655 34.7351C754.337 34.7507 741.018 34.7631 727.7 34.782C701.467 34.819 675.232 34.8643 649 34.899C642.139 34.9081 635.277 34.9203 628.416 34.9283C627.206 34.9297 625.998 34.9327 624.788 34.9341C623.115 34.9361 621.595 35.0089 620.176 35.9993C617.793 37.6617 617.694 39.8281 617.372 42.4547C617.19 43.946 617.005 45.4348 616.822 46.9261C615.955 54.0097 615.091 61.0932 614.224 68.1768C613.95 70.4138 613.672 72.6528 613.398 74.8898C613.353 75.2638 613.325 75.6253 613.293 75.9901C613.354 75.2734 613.476 74.5567 613.562 73.848C613.836 71.6111 614.114 69.3779 614.388 67.1409C615.255 60.0573 616.124 52.9738 616.992 45.8902C617.175 44.3991 617.353 42.9039 617.536 41.4129C617.805 39.2214 618.223 37.5241 620.182 36.1632C621.946 34.9375 623.952 35.1073 625.999 35.1097C627.21 35.1111 628.423 35.1141 629.634 35.1156C636.495 35.1235 643.356 35.1358 650.217 35.1448C676.451 35.1795 702.683 35.2189 728.917 35.256C742.236 35.2748 755.554 35.2931 768.873 35.3087C771.294 35.3115 773.714 35.318 776.136 35.3204C778.66 35.3229 780.807 35.1312 782.726 37.0294C783.734 38.0274 784.411 39.4147 784.446 40.8452C784.472 41.8809 784.239 42.9417 784.113 43.9647C784.013 44.7719 783.914 45.5804 783.814 46.3876C783.168 51.635 782.523 56.8779 781.877 62.1253C778.846 86.7518 775.815 111.381 772.788 136.008C770.852 151.756 768.917 167.503 766.982 183.251C766.536 186.885 766.088 190.519 765.642 194.154C765.351 196.526 765.343 198.455 763.43 200.147C761.301 202.03 758.499 201.639 755.862 201.639C751.826 201.64 747.795 201.639 743.759 201.639C726.405 201.641 709.048 201.65 691.694 201.657C668.69 201.666 645.685 201.679 622.681 201.698C617.838 201.702 612.997 201.705 608.155 201.71C605.156 201.712 602.252 202.176 600.072 199.714C599.803 199.409 599.566 199.084 599.364 198.731C598.22 196.731 598.762 194.669 599.03 192.486C599.459 189.005 599.89 185.526 600.318 182.045C602.093 167.621 603.864 153.195 605.638 138.771C606.861 128.823 608.084 118.877 609.308 108.928C609.613 106.441 609.921 103.953 610.226 101.466C610.411 99.9649 610.539 98.6207 611.42 97.352C612.37 95.9857 613.906 95.0504 615.558 94.8471C616.534 94.727 617.551 94.8016 618.531 94.8003C619.647 94.7987 620.758 94.796 621.873 94.7944C630.053 94.783 638.239 94.7749 646.419 94.7652C647.906 94.7634 649.391 94.7611 650.878 94.7593C651.537 94.7585 652.212 94.7275 652.868 94.8237C654.522 95.066 656.028 96.0188 656.953 97.4105C657.681 98.5057 657.901 99.5856 657.902 100.7C657.916 99.5119 657.736 98.3974 656.965 97.235C656.038 95.8359 654.529 94.872 652.868 94.6247C651.848 94.4728 650.787 94.5557 649.761 94.5545C648.645 94.5532 647.529 94.5558 646.413 94.5545C638.232 94.5448 630.054 94.5308 621.873 94.5194C620.386 94.5173 618.895 94.5156 617.408 94.5135C616.917 94.5128 616.084 94.4905 615.552 94.5545C613.894 94.754 612.352 95.69 611.397 97.0594C610.224 98.7419 610.224 100.819 609.981 102.783C609.673 105.267 609.369 107.75 609.062 110.234C607.894 119.67 606.729 129.106 605.562 138.543C603.78 152.946 601.993 167.354 600.213 181.758C599.783 185.235 599.355 188.71 598.925 192.187C598.627 194.596 598.06 197.043 599.329 199.269C599.603 199.75 599.942 200.191 600.336 200.58C602.527 202.749 605.313 202.304 608.16 202.307C613.003 202.311 617.849 202.314 622.692 202.318C646.1 202.337 669.51 202.356 692.918 202.365C710.272 202.372 727.622 202.375 744.976 202.377C749.012 202.377 753.05 202.376 757.085 202.377C759.483 202.377 761.554 202.574 763.471 200.879C765.671 198.932 765.602 196.043 765.935 193.34C766.381 189.706 766.828 186.071 767.275 182.437C769.21 166.687 771.141 150.934 773.075 135.183C776.1 110.544 779.13 85.9051 782.152 61.2649C782.796 56.0129 783.44 50.7618 784.083 45.5098C784.481 42.2687 785.339 38.9989 782.743 36.4382C780.813 34.5335 778.667 34.7209 776.13 34.7234ZM657.902 100.7C657.902 101.814 657.686 102.964 657.533 104.2C657.294 106.128 657.057 108.054 656.819 109.982C655.567 120.101 654.31 130.221 653.056 140.339C652.817 142.266 652.575 144.195 652.336 146.122C652.245 146.855 652.191 147.529 652.178 148.188C652.186 147.093 652.396 145.963 652.546 144.752C652.785 142.825 653.022 140.897 653.261 138.97C654.515 128.853 655.767 118.74 657.024 108.624C657.263 106.698 657.504 104.774 657.744 102.848C657.838 102.087 657.893 101.383 657.902 100.7ZM652.178 148.188C652.177 148.248 652.177 148.309 652.178 148.369C652.178 148.309 652.177 148.248 652.178 148.188ZM652.178 148.369C652.178 149.508 652.37 150.584 653.114 151.705C654.041 153.102 655.552 154.064 657.211 154.309C658.097 154.44 659.09 154.374 659.95 154.374C661.191 154.374 662.432 154.374 663.672 154.374C670.496 154.374 677.315 154.374 684.139 154.374C692.823 154.374 701.51 154.374 710.195 154.374C712.056 154.374 713.917 154.374 715.778 154.374C717.698 154.374 719.395 154.454 721.034 153.315C723.771 151.41 723.659 148.39 724.03 145.378C724.413 142.272 724.794 139.168 725.177 136.061C727.093 120.528 729.009 104.996 730.924 89.4627C730.926 89.4623 730.924 89.4534 730.924 89.451C730.991 88.6974 730.976 87.9604 730.796 87.2212C730.63 86.5445 730.35 85.8992 729.965 85.3191C729.037 83.9228 727.532 82.9655 725.874 82.7205C725.051 82.599 724.148 82.6562 723.339 82.6562C722.237 82.6562 721.135 82.6562 720.033 82.6562C718.38 82.6562 716.729 82.6562 715.076 82.6562C713.422 82.6562 711.766 82.6562 710.113 82.6562C708.459 82.6562 706.809 82.6562 705.155 82.6562C682.011 82.6562 658.865 82.6562 635.72 82.6562C631.312 82.6562 626.908 82.6562 622.499 82.6562C621.397 82.6562 620.295 82.6641 619.193 82.6562C618.754 82.653 618.322 82.6106 617.893 82.5157C615.714 82.0332 613.943 80.2994 613.41 78.1321C613.236 77.4241 613.233 76.7068 613.293 75.9901C613.227 76.7391 613.2 77.4819 613.387 78.2433C613.553 78.9195 613.838 79.5657 614.224 80.1454C615.151 81.5406 616.657 82.4992 618.315 82.744C619.137 82.8654 620.04 82.8083 620.849 82.8083C621.951 82.8083 623.048 82.8083 624.15 82.8083C628.007 82.8083 631.869 82.8083 635.726 82.8083C658.87 82.8083 682.011 82.8083 705.155 82.8083C707.36 82.8083 709.565 82.8083 711.769 82.8083C713.422 82.8083 715.079 82.8083 716.732 82.8083C718.385 82.8083 720.036 82.8083 721.689 82.8083C722.791 82.8083 723.894 82.8004 724.996 82.8083C725.435 82.8115 725.866 82.8538 726.295 82.9488C728.475 83.4318 730.247 85.1637 730.778 87.3324C730.945 88.0156 730.957 88.6902 730.895 89.3866C728.98 104.918 727.063 120.448 725.148 135.979C724.688 139.707 724.226 143.436 723.767 147.163C723.66 148.024 723.619 148.897 723.41 149.739C723.065 151.121 722.195 152.356 721.028 153.168C719.391 154.307 717.696 154.222 715.778 154.222C715.158 154.222 714.537 154.222 713.917 154.222C712.056 154.222 710.194 154.222 708.333 154.222C699.649 154.222 690.962 154.222 682.278 154.222C675.454 154.222 668.629 154.222 661.805 154.222C660.565 154.222 659.324 154.23 658.083 154.222C657.767 154.22 657.523 154.203 657.211 154.157C655.556 153.913 654.051 152.958 653.126 151.565C652.42 150.501 652.193 149.45 652.178 148.369Z" fill="#fffdfb" stroke="none"/>
</g>
</g>
</g>
</g>
</g>
</svg>
