<?xml version="1.0" encoding="UTF-8" standalone="no"?>
<!DOCTYPE svg PUBLIC "-//W3C//DTD SVG 1.1//EN" "http://www.w3.org/Graphics/SVG/1.1/DTD/svg11.dtd">
<!-- Created with Vectornator (http://vectornator.io/) -->
<svg height="100%" stroke-miterlimit="10" style="fill-rule:nonzero;clip-rule:evenodd;stroke-linecap:round;stroke-linejoin:round;" version="1.1" viewBox="-374.622 -172.844 746.557 343.905" width="100%" xml:space="preserve" xmlns="http://www.w3.org/2000/svg" xmlns:vectornator="http://vectornator.io" xmlns:xlink="http://www.w3.org/1999/xlink">
<defs>
<linearGradient gradientTransform="matrix(-0.13844 165.946 -263.911 -0.13844 -280.237 4.26116)" gradientUnits="userSpaceOnUse" id="LinearGradient" x1="0" x2="1" y1="0" y2="0">
<stop offset="0" stop-color="#ffffff" stop-opacity="0.0476199"/>
<stop offset="1" stop-color="#ffffff" stop-opacity="0"/>
</linearGradient>
<linearGradient gradientTransform="matrix(-0.524827 166.751 -265.192 -0.524827 -101.046 3.8011)" gradientUnits="userSpaceOnUse" id="LinearGradient_2" x1="0" x2="1" y1="0" y2="0">
<stop offset="0" stop-color="#ffffff" stop-opacity="0.0476199"/>
<stop offset="1" stop-color="#ffffff" stop-opacity="0"/>
</linearGradient>
<linearGradient gradientTransform="matrix(-0.692199 167.648 -266.618 -0.692199 77.2366 3.35563)" gradientUnits="userSpaceOnUse" id="LinearGradient_3" x1="0" x2="1" y1="0" y2="0">
<stop offset="0" stop-color="#ffffff" stop-opacity="0.0476199"/>
<stop offset="1" stop-color="#ffffff" stop-opacity="0"/>
</linearGradient>
<linearGradient gradientTransform="matrix(-1.12113 166.448 -264.709 -1.12113 256.6 3.84902)" gradientUnits="userSpaceOnUse" id="LinearGradient_4" x1="0" x2="1" y1="0" y2="0">
<stop offset="0" stop-color="#ffffff" stop-opacity="0.0476199"/>
<stop offset="1" stop-color="#ffffff" stop-opacity="0"/>
</linearGradient>
<linearGradient gradientTransform="matrix(187.504 0 0 187.504 -352.817 -88.8503)" gradientUnits="userSpaceOnUse" id="LinearGradient_5" x1="0" x2="1" y1="0" y2="0">
<stop offset="0" stop-color="#ffffff" stop-opacity="0.0998233"/>
<stop offset="1" stop-color="#ffffff" stop-opacity="0.05"/>
</linearGradient>
<linearGradient gradientTransform="matrix(187.504 0 0 187.504 -173.901 -88.8503)" gradientUnits="userSpaceOnUse" id="LinearGradient_6" x1="0" x2="1" y1="0" y2="0">
<stop offset="0" stop-color="#ffffff" stop-opacity="0.0998233"/>
<stop offset="1" stop-color="#ffffff" stop-opacity="0.05"/>
</linearGradient>
<linearGradient gradientTransform="matrix(187.504 0 0 187.504 5.0149 -88.8503)" gradientUnits="userSpaceOnUse" id="LinearGradient_7" x1="0" x2="1" y1="0" y2="0">
<stop offset="0" stop-color="#ffffff" stop-opacity="0.0998233"/>
<stop offset="1" stop-color="#ffffff" stop-opacity="0.05"/>
</linearGradient>
<linearGradient gradientTransform="matrix(187.504 0 0 187.504 183.931 -88.8503)" gradientUnits="userSpaceOnUse" id="LinearGradient_8" x1="0" x2="1" y1="0" y2="0">
<stop offset="0" stop-color="#ffffff" stop-opacity="0.0998233"/>
<stop offset="1" stop-color="#ffffff" stop-opacity="0.05"/>
</linearGradient>
</defs>
<g id="Layer">
<g opacity="1">
<g opacity="1">
<path d="M-193.357 3.57169C-189.775 3.57169-187.002 6.70592-187.437 10.2607L-191.821 46.0439C-192.187 49.0349-194.727 51.2827-197.74 51.2827L-306.466 51.2827C-309.478 51.2827-312.017 53.5277-312.385 56.5165L-319.741 116.155C-320.179 119.712-317.405 122.849-313.822 122.849L-254.291 122.849C-251.272 122.849-248.729 120.593-248.369 117.596L-248.369 117.596C-247.943 114.046-250.715 110.921-254.291 110.921L-300.451 110.921C-304.039 110.921-306.814 107.777-306.369 104.218L-301.896 68.4345C-301.523 65.45-298.986 63.2104-295.978 63.2104L-200.638 63.2104C-197.055 63.2104-194.281 66.3479-194.719 69.9043L-206.488 165.326C-206.856 168.315-209.395 170.56-212.407 170.56L-367.38 170.56C-370.963 170.56-373.737 167.424-373.3 163.869L-354.249 8.80832C-353.882 5.81829-351.343 3.57169-348.33 3.57169L-193.357 3.57169Z" fill="#ffffff" fill-rule="nonzero" opacity="1" stroke="none"/>
<path d="M-127.533 51.2827C-130.551 51.2827-133.094 53.5385-133.454 56.536L-133.454 56.536C-133.88 60.086-131.108 63.2104-127.533 63.2104L-67.9794 63.2104C-64.9605 63.2104-62.4177 60.9545-62.058 57.9571L-62.058 57.9571C-61.632 54.4071-64.4039 51.2827-67.9794 51.2827L-127.533 51.2827ZM-175.333 8.80832C-174.966 5.81829-172.426 3.57169-169.414 3.57169L-14.4429 3.57169C-10.8607 3.57169-8.08676 6.70732-8.52357 10.2628L-27.5739 165.323C-27.9412 168.313-30.4807 170.56-33.4932 170.56L-69.1925 170.56C-72.7727 170.56-75.5461 167.428-75.1125 163.874L-69.468 117.607C-69.0344 114.054-71.8078 110.921-75.388 110.921L-134.938 110.921C-137.953 110.921-140.493 113.171-140.858 116.163L-146.855 165.318C-147.22 168.311-149.761 170.56-152.775 170.56L-188.464 170.56C-192.046 170.56-194.82 167.424-194.384 163.869L-175.333 8.80832Z" fill="#ffffff" fill-rule="nonzero" opacity="1" stroke="none"/>
<path d="M151.337 165.363C150.973 168.33 148.452 170.56 145.462 170.56L109.68 170.56C106.124 170.56 103.371 167.447 103.805 163.918L116.842 57.9245C117.276 54.3954 114.523 51.2827 110.967 51.2827L110.967 51.2827C107.977 51.2827 105.457 53.512 105.092 56.4793L91.6994 165.363C91.3344 168.331 88.814 170.56 85.8244 170.56L50.0412 170.56C46.4854 170.56 43.7321 167.447 44.1662 163.918L57.2034 57.9245C57.6375 54.3954 54.8841 51.2827 51.3284 51.2827L51.3284 51.2827C48.3387 51.2827 45.8184 53.512 45.4534 56.4793L32.0607 165.363C31.6957 168.331 29.1753 170.56 26.1857 170.56L-9.5985 170.56C-13.1539 170.56-15.9071 167.448-15.4736 163.919L3.58767 8.76915C3.95227 5.80148 6.47278 3.57169 9.46276 3.57169L164.524 3.57169C168.079 3.57169 170.832 6.68386 170.399 10.2127L151.337 165.363Z" fill="#ffffff" fill-rule="nonzero" opacity="1" stroke="none"/>
<path d="M343.392 3.57169C346.973 3.57169 349.747 6.70592 349.311 10.2607L344.928 46.0439C344.561 49.0349 342.022 51.2827 339.008 51.2827L230.3 51.2827C227.281 51.2827 224.738 53.5385 224.378 56.536L224.378 56.536C223.952 60.086 226.724 63.2104 230.3 63.2104L336.099 63.2104C339.686 63.2104 342.462 66.3544 342.017 69.914L337.544 105.697C337.171 108.682 334.634 110.921 331.626 110.921L222.905 110.921C219.886 110.921 217.343 113.177 216.983 116.175L216.983 116.175C216.557 119.725 219.329 122.849 222.905 122.849L328.721 122.849C332.302 122.849 335.076 125.983 334.64 129.538L330.257 165.321C329.89 168.312 327.35 170.56 324.337 170.56L169.368 170.56C165.786 170.56 163.012 167.424 163.449 163.869L182.499 8.80832C182.866 5.81829 185.406 3.57169 188.418 3.57169L343.392 3.57169Z" fill="#ffffff" fill-rule="nonzero" opacity="1" stroke="none"/>
</g>
<g opacity="1">
<path d="M-172.052-172.344C-168.471-172.344-165.697-169.21-166.133-165.655L-170.516-129.872C-170.882-126.881-173.422-124.634-176.436-124.634L-285.162-124.634C-288.173-124.634-290.712-122.388-291.081-119.4L-298.436-59.7609C-298.875-56.2046-296.101-53.0671-292.517-53.0671L-232.986-53.0671C-229.967-53.0671-227.425-55.3229-227.065-58.3204L-227.065-58.3204C-226.639-61.8704-229.411-64.9948-232.986-64.9948L-279.147-64.9948C-282.734-64.9948-285.51-68.1388-285.065-71.6984L-280.592-107.482C-280.219-110.466-277.682-112.706-274.674-112.706L-179.334-112.706C-175.75-112.706-172.976-109.568-173.415-106.012L-185.183-10.5899C-185.552-7.60114-188.091-5.35608-191.102-5.35608L-346.076-5.35608C-349.658-5.35608-352.432-8.49172-351.995-12.0472L-332.945-167.108C-332.578-170.098-330.038-172.344-327.026-172.344L-172.052-172.344Z" fill="#ffffff" fill-rule="nonzero" opacity="1" stroke="none"/>
<path d="M-106.249-124.634C-109.259-124.634-111.796-122.39-112.164-119.403L-119.521-59.7566C-119.959-56.2025-117.186-53.0671-113.605-53.0671L-54.0493-53.0671C-51.0398-53.0671-48.5025-55.3106-48.1341-58.2975L-40.7777-117.944C-40.3394-121.498-43.1119-124.634-46.6929-124.634L-106.249-124.634ZM-154.028-167.111C-153.661-170.099-151.123-172.344-148.113-172.344L6.86583-172.344C10.4457-172.344 13.2179-169.211 12.7814-165.658L-6.2699-10.5893C-6.63701-7.60123-9.17487-5.35608-12.1854-5.35608L-167.164-5.35608C-170.744-5.35608-173.516-8.48968-173.08-12.0428L-154.028-167.111Z" fill="#ffffff" fill-rule="nonzero" opacity="1" stroke="none"/>
<path d="M72.6671-124.634C69.6576-124.634 67.1203-122.39 66.7519-119.403L59.3955-59.7566C58.9572-56.2025 61.7297-53.0671 65.3107-53.0671L124.867-53.0671C127.876-53.0671 130.414-55.3106 130.782-58.2975L138.138-117.944C138.577-121.498 135.804-124.634 132.223-124.634L72.6671-124.634ZM24.8877-167.111C25.2548-170.099 27.7926-172.344 30.8032-172.344L185.782-172.344C189.362-172.344 192.134-169.211 191.697-165.658L172.646-10.5893C172.279-7.60123 169.741-5.35608 166.731-5.35608L11.7519-5.35608C8.17205-5.35608 5.39988-8.48968 5.83641-12.0428L24.8877-167.111Z" fill="#ffffff" fill-rule="nonzero" opacity="1" stroke="none"/>
<path d="M317.055-117.944C317.493-121.498 314.72-124.634 311.139-124.634L205.337-124.634C201.758-124.634 198.986-127.766 199.421-131.318L203.805-167.109C204.172-170.098 206.71-172.344 209.721-172.344L364.698-172.344C368.278-172.344 371.05-169.211 370.614-165.658L351.562-10.5893C351.195-7.60123 348.657-5.35608 345.647-5.35608L190.671-5.35608C187.09-5.35608 184.318-8.49155 184.756-12.0456L196.526-107.475C196.894-110.462 199.431-112.706 202.441-112.706L238.137-112.706C241.72-112.706 244.493-109.568 244.052-106.012L238.317-59.7605C237.876-56.2051 240.649-53.0671 244.231-53.0671L303.783-53.0671C306.792-53.0671 309.33-55.3106 309.698-58.2975L317.055-117.944Z" fill="#ffffff" fill-rule="nonzero" opacity="1" stroke="none"/>
</g>
<g opacity="1">
<g opacity="1">
<path d="M-193.357 3.57169C-189.775 3.57169-187.002 6.70592-187.437 10.2607L-191.821 46.0439C-192.187 49.0349-194.727 51.2827-197.74 51.2827L-306.466 51.2827C-309.478 51.2827-312.017 53.5277-312.385 56.5165L-319.741 116.155C-320.179 119.712-317.405 122.849-313.822 122.849L-254.291 122.849C-251.272 122.849-248.729 120.593-248.369 117.596L-248.369 117.596C-247.943 114.046-250.715 110.921-254.291 110.921L-300.451 110.921C-304.039 110.921-306.814 107.777-306.369 104.218L-301.896 68.4345C-301.523 65.45-298.986 63.2104-295.978 63.2104L-200.638 63.2104C-197.055 63.2104-194.281 66.3479-194.719 69.9043L-206.488 165.326C-206.856 168.315-209.395 170.56-212.407 170.56L-367.38 170.56C-370.963 170.56-373.737 167.424-373.3 163.869L-354.249 8.80832C-353.882 5.81829-351.343 3.57169-348.33 3.57169L-193.357 3.57169Z" fill="url(#LinearGradient)" fill-rule="nonzero" stroke="none"/>
<path d="M-348.102 3.49071C-348.428 3.49166-348.754 3.49805-349.077 3.53741C-350.501 3.71068-351.834 4.42629-352.789 5.49291C-353.969 6.81009-354.205 8.29334-354.412 9.9818C-354.561 11.1932-354.713 12.4012-354.862 13.6126C-355.556 19.2659-356.245 24.9226-356.94 30.5758C-359.717 53.1778-362.503 75.7751-365.287 98.3762C-367.425 115.728-369.565 133.081-371.702 150.433C-372.15 154.065-372.598 157.7-373.045 161.332C-373.384 164.086-373.842 166.517-371.854 168.768C-369.663 171.249-366.766 170.796-363.746 170.8C-360.114 170.804-356.48 170.807-352.848 170.811C-335.494 170.832-318.139 170.849-300.785 170.864C-277.781 170.884-254.78 170.899-231.776 170.911C-226.53 170.913-221.28 170.915-216.033 170.916C-213.051 170.917-210.127 171.365-207.931 168.914C-206.653 167.488-206.463 165.855-206.238 164.028C-206.115 163.035-205.993 162.039-205.87 161.046C-205.441 157.567-205.009 154.087-204.58 150.608C-202.802 136.197-201.023 121.789-199.245 107.377C-198.08 97.9348-196.919 88.4913-195.754 79.0488C-195.448 76.5638-195.138 74.0796-194.832 71.5946C-194.622 69.8948-194.41 68.2769-195.06 66.6446C-195.267 66.1233-195.552 65.6294-195.894 65.1852C-196.838 63.9618-198.234 63.1287-199.764 62.9028C-200.538 62.7886-201.367 62.8386-202.134 62.8386C-203.127 62.8387-204.118 62.8385-205.111 62.8386C-209.58 62.8392-214.051 62.8439-218.52 62.8445C-239.375 62.847-260.228 62.8526-281.084 62.862C-285.056 62.8638-289.031 62.8658-293.004 62.8678C-294.229 62.8684-295.508 62.7597-296.728 62.9087C-298.683 63.1475-300.306 64.3579-301.269 66.0433C-301.854 67.066-301.955 68.2264-302.098 69.3706C-302.238 70.4892-302.379 71.6085-302.519 72.727C-302.984 76.4558-303.448 80.1826-303.914 83.9113C-304.612 89.5047-305.311 95.1002-306.009 100.694C-306.19 102.145-306.514 103.645-306.482 105.112C-306.433 107.326-305.293 109.413-303.33 110.489C-301.547 111.466-299.525 111.226-297.563 111.224C-295.158 111.222-292.752 111.221-290.348 111.218C-280.731 111.209-271.116 111.195-261.5 111.183C-260.538 111.182-259.578 111.179-258.616 111.177C-257.654 111.176-256.694 111.179-255.733 111.177C-254.818 111.176-253.889 111.114-252.989 111.312C-250.3 111.903-247.998 114.607-248.413 117.452C-248.516 118.164-248.705 118.823-249.043 119.461C-249.376 120.088-249.814 120.641-250.345 121.112C-252.145 122.713-253.889 122.621-256.153 122.624C-257.393 122.626-258.637 122.623-259.877 122.624C-261.117 122.626-262.355 122.629-263.595 122.63C-277.238 122.647-290.879 122.67-304.521 122.689C-305.761 122.69-307.005 122.687-308.245 122.689C-309.485 122.69-310.723 122.693-311.963 122.694C-312.822 122.696-313.816 122.766-314.701 122.636C-316.081 122.434-317.361 121.741-318.285 120.698C-318.646 120.29-318.946 119.834-319.184 119.344C-319.419 118.859-319.59 118.334-319.68 117.803C-319.874 116.657-319.627 115.499-319.488 114.365C-319.258 112.5-319.028 110.632-318.799 108.767C-318.034 102.55-317.27 96.3327-316.505 90.1164C-315.434 81.414-314.36 72.7142-313.288 64.0119C-313.059 62.1479-312.829 60.2838-312.6 58.4198C-312.368 56.5399-312.226 54.8132-310.913 53.3472C-309.129 51.3566-307.217 51.3566-304.766 51.3566C-303.633 51.3566-302.501 51.3566-301.369 51.3566C-294.573 51.3566-287.78 51.3566-280.985 51.3566C-261.165 51.3566-241.34 51.3566-221.52 51.3566C-215.291 51.3566-209.064 51.3566-202.835 51.3566C-201.702 51.3566-200.57 51.3566-199.438 51.3566C-198.114 51.3566-196.844 51.4421-195.591 50.9597C-194.924 50.7029-194.316 50.33-193.781 49.8565C-191.872 48.1667-191.824 46.216-191.534 43.8499C-191.351 42.3589-191.168 40.8636-190.985 39.3726C-189.935 30.7996-188.883 22.2265-187.833 13.6535C-187.63 12.0002-187.179 10.1546-187.459 8.48745C-187.957 5.53144-190.425 3.59655-193.355 3.49655C-233.309 3.49655-273.264 3.49655-313.218 3.49655C-322.904 3.49655-332.591 3.49655-342.276 3.49655C-343.891 3.49655-345.507 3.49655-347.121 3.49655C-347.447 3.49655-347.776 3.48976-348.102 3.49071ZM-347.489 3.61913C-346.958 3.62415-346.429 3.64832-345.907 3.64832C-344.293 3.64832-342.677 3.64832-341.062 3.64832C-331.376 3.64832-321.696 3.64832-312.01 3.64832C-272.46 3.64832-232.905 3.64832-193.355 3.64832C-192.484 3.67803-191.659 3.82383-190.862 4.19119C-190.239 4.4789-189.664 4.87591-189.176 5.35865C-188.103 6.41815-187.444 7.87527-187.407 9.38639C-187.381 10.4091-187.604 11.4465-187.728 12.4568C-187.819 13.2023-187.905 13.947-187.996 14.6925C-189.047 23.2656-190.098 31.8386-191.149 40.4117C-191.331 41.9027-191.515 43.3921-191.697 44.8831C-191.966 47.0779-192.387 48.7837-194.347 50.1483C-194.745 50.4252-195.144 50.6339-195.597 50.8079C-196.849 51.29-198.115 51.2049-199.438 51.2049C-201.136 51.2049-202.84 51.2049-204.539 51.2049C-210.202 51.2049-215.863 51.2049-221.526 51.2049C-241.346 51.2049-261.165 51.2049-280.985 51.2049C-287.78 51.2049-294.573 51.2049-301.369 51.2049C-302.501 51.2049-303.633 51.2049-304.766 51.2049C-307.22 51.2049-309.139 51.2077-310.924 53.2012C-312.251 54.6828-312.395 56.4392-312.629 58.3381C-312.935 60.8224-313.244 63.308-313.551 65.7923C-314.625 74.4846-315.699 83.1753-316.773 91.8676C-317.541 98.0759-318.305 104.286-319.073 110.494C-319.227 111.736-319.381 112.977-319.534 114.219C-319.689 115.471-319.937 116.709-319.727 117.966C-319.61 118.669-319.367 119.35-319.015 119.968C-318.112 121.553-316.507 122.665-314.701 122.934C-313.815 123.066-312.818 123.003-311.957 123.004C-310.097 123.006-308.237 123.007-306.377 123.01C-305.137 123.011-303.899 123.014-302.659 123.015C-289.016 123.034-275.37 123.051-261.727 123.068C-259.867 123.07-258.007 123.077-256.147 123.08C-253.877 123.083-252.13 123.181-250.321 121.579C-249.958 121.258-249.652 120.916-249.376 120.517C-249.113 120.138-248.858 119.668-248.693 119.239C-248.484 118.697-248.407 118.314-248.325 117.739C-248.209 116.929-248.27 116.068-248.465 115.275C-248.635 114.586-248.924 113.933-249.317 113.343C-250.248 111.945-251.753 110.981-253.415 110.734C-254.647 110.551-255.941 110.665-257.18 110.664C-258.623 110.662-260.063 110.66-261.506 110.658C-271.603 110.645-281.703 110.638-291.801 110.629C-294.205 110.626-296.606 110.619-299.01 110.617C-300.693 110.615-302.218 110.614-303.674 109.671C-304.133 109.374-304.551 109.013-304.912 108.603C-305.762 107.639-306.318 106.378-306.348 105.083C-306.37 104.108-306.153 103.116-306.033 102.153C-305.939 101.408-305.846 100.662-305.752 99.9172C-305.053 94.3283-304.351 88.7355-303.651 83.1466C-303.185 79.4205-302.716 75.6943-302.25 71.9682C-302.157 71.2229-302.063 70.4777-301.97 69.7325C-301.838 68.676-301.745 67.6229-301.205 66.6796C-300.85 66.0594-300.448 65.5141-299.909 65.0393C-298.255 63.5806-296.584 63.5554-294.486 63.5566C-293.493 63.5572-292.497 63.5562-291.504 63.5566C-287.531 63.5584-283.562 63.5607-279.59 63.5625C-258.734 63.5718-237.875 63.5775-217.019 63.58C-212.55 63.5805-208.08 63.5796-203.611 63.58C-202.343 63.5801-201.02 63.4579-199.759 63.6442C-197.704 63.9477-195.9 65.3543-195.13 67.2867C-194.431 69.0407-194.936 70.8769-195.159 72.6862C-195.465 75.1711-195.769 77.6555-196.075 80.1404C-197.24 89.5835-198.407 99.0316-199.572 108.475C-201.349 122.889-203.125 137.298-204.901 151.712C-205.33 155.191-205.762 158.675-206.191 162.155C-206.46 164.331-206.442 166.506-207.977 168.22C-210.159 170.656-213.082 170.203-216.045 170.204C-221.291 170.206-226.536 170.207-231.782 170.21C-254.786 170.222-277.793 170.237-300.797 170.257C-318.15 170.272-335.5 170.289-352.854 170.309C-356.889 170.314-360.925 170.316-364.96 170.321C-366.048 170.322-367.177 170.421-368.258 170.263C-369.636 170.061-370.914 169.366-371.837 168.325C-373.974 165.913-373.17 163.279-372.811 160.351C-372.366 156.714-371.92 153.078-371.475 149.441C-369.346 132.066-367.218 114.689-365.089 97.3138C-362.366 75.0929-359.646 52.8717-356.916 30.6517C-356.222 24.9985-355.527 19.3476-354.833 13.6943C-354.684 12.4829-354.532 11.2691-354.383 10.0577C-354.178 8.38965-353.943 6.94022-352.778 5.63884C-351.825 4.57426-350.492 3.8621-349.071 3.68918C-348.552 3.62599-348.02 3.61411-347.489 3.61913Z" fill="#fffdfb" stroke="none"/>
</g>
<g opacity="1">
<path d="M-127.533 51.2827C-130.551 51.2827-133.094 53.5385-133.454 56.536L-133.454 56.536C-133.88 60.086-131.108 63.2104-127.533 63.2104L-67.9794 63.2104C-64.9605 63.2104-62.4177 60.9545-62.058 57.9571L-62.058 57.9571C-61.632 54.4071-64.4039 51.2827-67.9794 51.2827L-127.533 51.2827ZM-175.333 8.80832C-174.966 5.81829-172.426 3.57169-169.414 3.57169L-14.4429 3.57169C-10.8607 3.57169-8.08676 6.70732-8.52357 10.2628L-27.5739 165.323C-27.9412 168.313-30.4807 170.56-33.4932 170.56L-69.1925 170.56C-72.7727 170.56-75.5461 167.428-75.1125 163.874L-69.468 117.607C-69.0344 114.054-71.8078 110.921-75.388 110.921L-134.938 110.921C-137.953 110.921-140.493 113.171-140.858 116.163L-146.855 165.318C-147.22 168.311-149.761 170.56-152.775 170.56L-188.464 170.56C-192.046 170.56-194.82 167.424-194.384 163.869L-175.333 8.80832Z" fill="url(#LinearGradient_2)" fill-rule="nonzero" stroke="none"/>
<path d="M-68.4855 50.9423C-68.9519 50.9453-69.4143 50.9651-69.8445 50.9674C-71.0851 50.974-72.325 50.9799-73.5656 50.9879C-75.4265 50.9999-77.2888 51.0135-79.1496 51.029C-95.2786 51.1631-111.404 51.2068-127.534 51.2068C-128.519 51.2355-129.455 51.4376-130.334 51.9023C-131.167 52.3429-131.901 52.9926-132.438 53.7674C-134.759 57.1179-133.154 61.8784-129.244 63.0383C-128.081 63.3832-126.869 63.2846-125.671 63.2846C-124.43 63.2846-123.188 63.2816-121.947 63.2846C-118.845 63.292-115.744 63.328-112.642 63.3576C-100.855 63.4698-89.068 63.5623-77.2799 63.5765C-76.0392 63.5779-74.7972 63.5802-73.5565 63.581C-72.3158 63.5818-71.0761 63.5814-69.8354 63.581C-67.5614 63.5804-65.8117 63.6756-64.0028 62.067C-63.6388 61.7433-63.3292 61.4033-63.052 61.0022C-62.7875 60.6195-62.5343 60.1412-62.368 59.7071C-62.1748 59.2027-62.0334 58.6449-61.9849 58.1065C-61.9078 57.2493-61.9305 56.3967-62.1377 55.5573C-62.3092 54.8627-62.5992 54.2-62.9973 53.6055C-63.9316 52.2105-65.4434 51.2554-67.1061 51.0176C-67.5494 50.9542-68.0191 50.9394-68.4855 50.9423ZM-113.573 51.3414C-108.92 51.3367-104.268 51.339-99.616 51.3642C-92.1709 51.4044-84.7249 51.4938-77.2799 51.5511C-76.0391 51.5607-74.7996 51.5682-73.5588 51.5762C-72.318 51.5842-71.0762 51.5924-69.8354 51.599C-68.9777 51.6036-67.9853 51.5401-67.1015 51.6743C-65.7262 51.8829-64.4509 52.5816-63.5308 53.6237C-63.1732 54.0288-62.8708 54.4805-62.6348 54.9667C-62.4095 55.4309-62.2455 55.9287-62.1582 56.4374C-62.0815 56.8849-62.0954 57.3119-62.1286 57.7599C-62.2588 58.4534-62.4077 59.0725-62.7442 59.7048C-63.0761 60.3284-63.5127 60.8807-64.0416 61.3488C-66.2204 63.277-69.0028 62.8395-71.7073 62.84C-74.1887 62.8404-76.6683 62.8426-79.1496 62.8468C-90.9357 62.8667-102.722 62.9746-114.507 63.0817C-117.609 63.1098-120.711 63.1364-123.813 63.1364C-125.053 63.1364-126.293 63.1445-127.534 63.1364C-128.113 63.1326-128.685 63.0529-129.241 62.8879C-133.326 61.6761-134.873 56.5884-131.989 53.357C-131.519 52.8308-130.953 52.3802-130.329 52.0505C-129.452 51.5864-128.515 51.386-127.531 51.3573C-122.879 51.3573-118.225 51.346-113.573 51.3414ZM-15.2785 3.42499C-15.7996 3.42036-16.3322 3.42978-16.8686 3.43081C-18.4829 3.43392-20.0948 3.43935-21.7091 3.44246C-29.7803 3.45802-37.8515 3.47102-45.9228 3.48323C-76.9975 3.53024-108.074 3.49488-139.149 3.49488C-148.027 3.49488-156.907 3.49488-165.786 3.49488C-166.593 3.49488-167.396 3.49488-168.203 3.49488C-169.102 3.49488-169.997 3.45286-170.877 3.67545C-173.313 4.29217-174.974 6.33456-175.344 8.76051C-175.346 8.76105-175.344 8.77359-175.344 8.77798C-175.346 8.77593-175.349 8.76586-175.35 8.76633C-180.212 48.3391-185.073 87.9147-189.935 127.488C-191.125 137.175-192.318 146.861-193.512 156.547C-193.76 158.565-194.009 160.582-194.257 162.599C-194.522 164.747-194.584 166.542-193.197 168.343C-192.258 169.563-190.866 170.393-189.341 170.62C-187.964 170.826-186.506 170.688-185.118 170.69C-181.4 170.697-177.681 170.707-173.964 170.713C-168.387 170.724-162.811 170.732-157.235 170.743C-156.119 170.745-155.001 170.746-153.886 170.748C-152.498 170.751-151.229 170.722-149.971 170.061C-149.544 169.836-149.174 169.577-148.812 169.257C-146.698 167.39-146.762 164.978-146.441 162.361C-146.128 159.803-145.811 157.241-145.498 154.684C-144.308 144.964-143.123 135.245-141.933 125.525C-141.62 122.966-141.302 120.406-140.989 117.847C-140.769 116.047-140.634 114.603-139.376 113.199C-137.549 111.161-135.581 111.222-133.074 111.225C-131.213 111.227-129.348 111.228-127.488 111.23C-118.183 111.242-108.88 111.246-99.5751 111.254C-94.6125 111.258-89.6494 111.262-84.6869 111.265C-82.2056 111.267-79.724 111.27-77.2427 111.271C-75.1891 111.272-73.5434 111.174-71.8373 112.448C-70.4998 113.446-69.5454 115.057-69.5016 116.747C-69.471 117.925-69.7496 119.147-69.8918 120.311C-70.0683 121.757-70.2396 123.2-70.4161 124.645C-71.6516 134.764-72.8916 144.885-74.1265 155.004C-74.4205 157.413-74.712 159.823-75.006 162.232C-75.0865 162.892-75.1955 163.55-75.2274 164.213C-75.3092 165.918-74.813 167.619-73.6721 168.908C-72.7422 169.958-71.4557 170.666-70.0666 170.871C-69.0459 171.021-67.9829 170.929-66.9561 170.929C-65.4687 170.929-63.9818 170.929-62.4943 170.929C-53.9414 170.928-45.389 170.93-36.8361 170.929C-36.0923 170.929-35.3489 170.929-34.6052 170.929C-33.7349 170.929-32.8757 170.964-32.0248 170.748C-30.0148 170.239-28.3858 168.682-27.761 166.712C-27.5134 165.931-27.4527 165.116-27.3533 164.306C-27.2541 163.498-27.1554 162.691-27.0562 161.883C-26.7091 159.056-26.3664 156.229-26.0194 153.402C-24.9288 144.516-23.8357 135.629-22.7459 126.742C-19.3263 98.8595-15.9125 70.9752-12.5 43.0919C-11.3622 33.7948-10.2242 24.4999-9.0867 15.2027C-8.93832 13.9901-8.78655 12.7749-8.63819 11.5622C-8.54987 10.8404-8.42811 10.1096-8.44597 9.37794C-8.49166 7.50618-9.36713 5.72352-10.8749 4.6016C-12.2274 3.59525-13.715 3.43887-15.2785 3.42499ZM-168.203 3.64633C-166.992 3.64633-165.779 3.64633-164.568 3.64633C-155.69 3.64633-146.816 3.64633-137.937 3.64633C-106.862 3.64633-75.7861 3.6168-44.7112 3.6638C-36.6396 3.67601-28.5691 3.68902-20.4975 3.70458C-18.8832 3.70769-17.2656 3.71311-15.6513 3.71623C-13.8383 3.71972-12.3903 3.77255-10.8866 4.89866C-9.4834 5.94948-8.55861 7.6266-8.51587 9.38959C-8.49004 10.455-8.72388 11.5409-8.8537 12.5932C-9.00299 13.8034-9.15293 15.0178-9.30221 16.2279C-10.4468 25.5058-11.5888 34.7809-12.733 44.0588C-16.117 71.497-19.497 98.9359-22.874 126.375C-23.967 135.256-25.0611 144.137-26.1534 153.018C-26.5009 155.844-26.8486 158.673-27.196 161.499C-27.2953 162.306-27.3938 163.108-27.4931 163.916C-27.5831 164.648-27.635 165.393-27.86 166.1C-28.0365 166.655-28.2963 167.183-28.6289 167.661C-29.5763 169.023-31.1115 169.949-32.7587 170.148C-33.7348 170.267-34.7491 170.195-35.7294 170.195C-36.4731 170.195-37.2165 170.195-37.9603 170.195C-46.5132 170.194-55.0656 170.19-63.6185 170.189C-65.106 170.189-66.5929 170.189-68.0803 170.189C-68.7383 170.189-69.4167 170.222-70.0724 170.125C-71.4474 169.922-72.722 169.231-73.643 168.191C-75.595 165.987-75.0225 163.892-74.6915 161.178C-74.3388 158.286-73.9841 155.397-73.6314 152.505C-72.4555 142.865-71.2825 133.22-70.1074 123.579C-69.9311 122.133-69.7536 120.692-69.5773 119.245C-69.4517 118.215-69.2801 117.207-69.3793 116.17C-69.5595 114.284-70.5563 112.548-72.1577 111.516C-73.7464 110.492-75.4218 110.571-77.2544 110.572C-79.7356 110.574-82.2173 110.57-84.6985 110.572C-89.661 110.576-94.6242 110.58-99.5867 110.584C-108.891 110.592-118.195 110.602-127.499 110.613C-129.36 110.615-131.218 110.617-133.079 110.619C-135.603 110.622-137.576 110.579-139.411 112.634C-141.013 114.428-141.011 116.824-141.286 119.088C-141.536 121.138-141.783 123.184-142.032 125.233C-143.279 135.483-144.526 145.733-145.772 155.982C-146.021 158.033-146.274 160.083-146.523 162.133C-146.837 164.714-146.754 167.024-148.83 168.867C-149.189 169.186-149.563 169.451-149.989 169.677C-151.568 170.514-153.279 170.372-155.01 170.376C-156.125 170.378-157.238 170.379-158.353 170.381C-163.558 170.391-168.765 170.401-173.969 170.411C-177.687 170.417-181.401 170.422-185.118 170.428C-188.209 170.433-191.089 170.833-193.186 168.121C-194.818 166.01-194.369 163.986-194.065 161.504C-193.818 159.484-193.573 157.461-193.325 155.441C-192.138 145.745-190.946 136.053-189.755 126.358C-184.943 87.1905-180.133 48.0208-175.321 8.8537C-175.321 8.85388-175.32 8.84817-175.321 8.84788C-174.953 6.447-173.275 4.43547-170.871 3.8269C-169.992 3.60447-169.101 3.64633-168.203 3.64633Z" fill="#fffdfb" stroke="none"/>
</g>
<g opacity="1">
<path d="M151.337 165.363C150.973 168.33 148.452 170.56 145.462 170.56L109.68 170.56C106.124 170.56 103.371 167.447 103.805 163.918L116.842 57.9245C117.276 54.3954 114.523 51.2827 110.967 51.2827L110.967 51.2827C107.977 51.2827 105.457 53.512 105.092 56.4793L91.6994 165.363C91.3344 168.331 88.814 170.56 85.8244 170.56L50.0412 170.56C46.4854 170.56 43.7321 167.447 44.1662 163.918L57.2034 57.9245C57.6375 54.3954 54.8841 51.2827 51.3284 51.2827L51.3284 51.2827C48.3387 51.2827 45.8184 53.512 45.4534 56.4793L32.0607 165.363C31.6957 168.331 29.1753 170.56 26.1857 170.56L-9.5985 170.56C-13.1539 170.56-15.9071 167.448-15.4736 163.919L3.58767 8.76915C3.95227 5.80148 6.47278 3.57169 9.46276 3.57169L164.524 3.57169C168.079 3.57169 170.832 6.68386 170.399 10.2127L151.337 165.363Z" fill="url(#LinearGradient_3)" fill-rule="nonzero" stroke="none"/>
<path d="M11.2869 3.31145C9.46392 3.27006 7.62434 3.32376 6.0807 4.39583C3.63774 6.09249 3.57833 8.37771 3.24732 11.0654C3.0484 12.6805 2.84574 14.295 2.64683 15.9101C1.55276 24.7935 0.458207 33.6815-0.635471 42.5649C-4.3149 72.4512-7.99019 102.338-11.6659 132.225C-12.6594 140.303-13.6517 148.381-14.645 156.46C-14.8933 158.48-15.1429 160.498-15.3912 162.517C-15.5866 164.107-15.7412 165.623-15.1347 167.146C-14.929 167.663-14.6466 168.152-14.3069 168.592C-13.3708 169.806-11.983 170.63-10.4649 170.854C-9.44458 171.005-8.38383 170.918-7.35748 170.919C-6.23922 170.919-5.12348 170.918-4.00522 170.919C4.5681 170.921 13.1435 170.923 21.7168 170.924C22.8351 170.925 23.9566 170.924 25.0749 170.924C25.5624 170.924 26.3985 170.948 26.9288 170.884C28.583 170.683 30.1173 169.749 31.0681 168.382C31.4166 167.882 31.6883 167.325 31.8727 166.744C32.1669 165.817 32.222 164.81 32.3391 163.858C32.4089 163.291 32.4792 162.723 32.549 162.156C32.7583 160.455 32.9693 158.756 33.1786 157.055C34.0158 150.25 34.8542 143.443 35.6913 136.638C38.1331 116.789 40.5735 96.9398 43.0138 77.0903C43.2928 74.8216 43.5686 72.5553 43.8475 70.2866C44.0567 68.5851 44.268 66.8811 44.4772 65.1796C44.7561 62.9109 45.0321 60.6446 45.3109 58.3759C45.4323 57.3879 45.4793 56.3239 45.8472 55.3793C46.9515 52.5446 50.1416 51.0297 53.0298 51.8871C53.6874 52.0824 54.3051 52.3983 54.8546 52.8083C55.2869 53.1308 55.6735 53.5123 56.0031 53.9393C56.6896 54.8287 57.1405 55.9397 57.1691 57.07C57.1882 57.8236 57.0155 58.6956 56.9301 59.3903C56.7943 60.4947 56.6635 61.6033 56.5278 62.7076C55.8493 68.2295 55.1659 73.7489 54.4873 79.2707C51.637 102.466 48.7879 125.663 45.9405 148.858C45.7371 150.515 45.5376 152.168 45.3342 153.825C45.1308 155.482 44.9254 157.141 44.722 158.798C44.5865 159.903 44.4495 161.005 44.3139 162.109C44.2254 162.83 44.1048 163.552 44.0691 164.278C43.9877 165.932 44.4915 167.584 45.5965 168.831C45.959 169.241 46.3787 169.596 46.8383 169.892C47.303 170.192 47.8124 170.429 48.3425 170.586C49.6145 170.963 50.9768 170.827 52.2836 170.825C54.52 170.822 56.7517 170.822 58.9881 170.819C66.0701 170.811 73.1565 170.799 80.2385 170.79C81.7294 170.788 83.2192 170.786 84.7101 170.784C85.1971 170.784 86.0342 170.803 86.564 170.738C87.98 170.564 89.3113 169.858 90.2603 168.796C91.5694 167.332 91.7211 165.651 91.951 163.777C92.0902 162.642 92.2257 161.507 92.3649 160.372C92.9218 155.832 93.4813 151.287 94.0381 146.747C96.2655 128.587 98.4912 110.426 100.719 92.2658C102.042 81.4844 103.366 70.7081 104.69 59.9267C104.829 58.7931 104.945 57.6531 105.103 56.522C105.177 55.9962 105.261 55.6243 105.453 55.1286C106.503 52.4251 109.452 50.8751 112.257 51.4965C114.697 52.037 116.605 54.156 116.845 56.6502C116.938 57.6114 116.74 58.5978 116.624 59.5419C116.556 60.094 116.487 60.6456 116.42 61.1977C115.673 67.2702 114.928 73.3439 114.181 79.4164C111.804 98.7382 109.427 118.057 107.051 137.378C106.304 143.451 105.559 149.525 104.812 155.597C104.54 157.805 104.267 160.012 103.996 162.22C103.873 163.218 103.678 164.235 103.774 165.246C103.842 165.95 104.031 166.638 104.34 167.275C104.578 167.766 104.882 168.224 105.243 168.633C106.163 169.673 107.437 170.372 108.811 170.575C109.831 170.725 110.893 170.633 111.919 170.633C113.037 170.633 114.153 170.633 115.271 170.633C121.98 170.633 128.693 170.633 135.402 170.633C138.754 170.633 142.114 170.71 145.465 170.633C148.573 170.561 150.892 168.43 151.353 165.409C151.354 165.409 151.353 165.404 151.353 165.403C156.168 126.212 160.979 87.0209 165.794 47.8294C167.035 37.7285 168.278 27.6259 169.519 17.525C169.768 15.5048 170.017 13.4878 170.266 11.4676C170.358 10.7127 170.399 10.0163 170.388 9.33968C170.412 10.3688 170.228 11.4339 170.085 12.5987C169.837 14.6188 169.593 16.6359 169.344 18.656C168.153 28.3529 166.962 38.0509 165.771 47.7478C160.956 86.9393 156.139 126.13 151.324 165.322C150.959 167.705 149.297 169.702 146.911 170.306C145.721 170.608 144.439 170.487 143.226 170.487C133.535 170.487 123.843 170.487 114.152 170.487C113.033 170.487 111.918 170.487 110.799 170.487C110.142 170.487 109.461 170.52 108.806 170.423C107.298 170.2 105.923 169.384 104.993 168.178C104.662 167.75 104.389 167.271 104.188 166.768C103.987 166.262 103.855 165.729 103.803 165.188C103.711 164.226 103.909 163.246 104.025 162.302C104.093 161.75 104.161 161.198 104.229 160.646C104.433 158.99 104.632 157.335 104.835 155.679C105.582 149.606 106.333 143.533 107.08 137.46C109.524 117.586 111.97 97.7103 114.414 77.8365C114.686 75.6283 114.953 73.4218 115.224 71.2136C115.428 69.5575 115.633 67.9026 115.837 66.2464C115.972 65.1423 116.109 64.0391 116.245 62.935C116.38 61.8309 116.517 60.7277 116.653 59.6236C116.754 58.7996 116.924 57.8971 116.903 57.0467C116.866 55.4956 116.23 54.0046 115.125 52.9132C114.738 52.5303 114.291 52.1957 113.814 51.9338C113.325 51.6658 112.801 51.4713 112.257 51.3508C109.44 50.7268 106.488 52.2825 105.436 54.9945C105.049 55.9903 104.999 57.0925 104.87 58.1369C104.731 59.2705 104.59 60.408 104.451 61.5416C103.123 72.3102 101.796 83.0772 100.469 93.8457C98.2325 111.98 95.9951 130.117 93.7583 148.251C93.1991 152.785 92.6384 157.313 92.0792 161.847C91.797 164.135 91.8553 166.561 90.2311 168.371C89.2862 169.424 87.9653 170.125 86.5582 170.295C85.5819 170.412 84.5652 170.337 83.5849 170.336C82.0939 170.334 80.6043 170.332 79.1133 170.33C72.0311 170.321 64.9451 170.309 57.8629 170.301C55.9991 170.298 54.1356 170.297 52.2719 170.295C50.9676 170.293 49.6113 170.423 48.3425 170.044C47.6841 169.847 47.0618 169.528 46.5118 169.117C46.0788 168.793 45.6934 168.414 45.3633 167.986C44.6602 167.073 44.2083 165.937 44.1798 164.78C44.1609 164.009 44.3359 163.133 44.4247 162.413C44.5607 161.309 44.6968 160.205 44.8328 159.101C45.513 153.583 46.1934 148.067 46.8733 142.55C49.7295 119.372 52.584 96.1929 55.4376 73.0151C55.6414 71.3593 55.8459 69.7037 56.0498 68.0479C56.2536 66.3922 56.4581 64.7365 56.6619 63.0807C56.7978 61.9769 56.9341 60.8732 57.07 59.7693C57.1595 59.0424 57.279 58.3204 57.3149 57.5889C57.3977 55.9004 56.9046 54.2134 55.7757 52.9365C55.4128 52.526 54.9944 52.1612 54.5339 51.8638C54.069 51.5634 53.5605 51.328 53.0298 51.17C50.0911 50.2954 46.8792 51.8651 45.7656 54.7438C45.3673 55.7735 45.3099 56.9042 45.1768 57.9853C44.9674 59.6864 44.7565 61.3913 44.5471 63.0924C44.4076 64.2265 44.2669 65.3572 44.1274 66.4913C43.918 68.1924 43.7071 69.8973 43.4977 71.5984C43.2884 73.2995 43.0833 74.9985 42.8739 76.6997C40.3617 97.1146 37.8465 117.529 35.3357 137.944C34.5685 144.182 33.8059 150.42 33.0387 156.658C32.7597 158.927 32.4781 161.199 32.1992 163.468C32.0927 164.334 32.0501 165.281 31.7794 166.132C31.6043 166.682 31.3456 167.203 31.0157 167.677C30.0756 169.029 28.5521 169.95 26.9172 170.149C25.9413 170.268 24.9239 170.195 23.9439 170.196C23.1984 170.196 22.4506 170.195 21.7051 170.196C12.7591 170.197 3.8156 170.199-5.13041 170.201C-6.24866 170.202-7.36442 170.201-8.48267 170.201C-9.13926 170.202-9.81624 170.234-10.4707 170.137C-11.9718 169.916-13.3511 169.105-14.2777 167.904C-14.6026 167.483-14.8676 167.017-15.0648 166.523C-15.7013 164.928-15.3089 163.34-15.1056 161.684C-14.8575 159.663-14.6132 157.641-14.3652 155.621C-13.3729 147.538-12.378 139.456-11.386 131.374C-7.71514 101.463-4.04607 71.5491-0.378951 41.638C0.711479 32.7438 1.80165 23.854 2.89169 14.9598C3.08988 13.3427 3.28817 11.7264 3.48635 10.1092C3.75586 7.90998 4.12888 6.22391 6.09819 4.85057C7.50779 3.86756 9.01484 3.79728 10.6748 3.79534C11.8861 3.79392 13.1013 3.79093 14.3127 3.78951C19.1583 3.78383 24.0013 3.77807 28.8469 3.77202C48.2292 3.74782 67.6132 3.72259 86.9955 3.70206C107.589 3.68024 128.182 3.64959 148.776 3.64959C152.814 3.64959 156.853 3.64959 160.891 3.64959C161.698 3.64959 162.503 3.64959 163.31 3.64959C163.995 3.64959 164.713 3.60686 165.397 3.70789C167.04 3.95038 168.53 4.90217 169.449 6.28475C170.135 7.31594 170.364 8.31052 170.388 9.33968C170.371 8.24556 170.171 7.21344 169.461 6.14483C168.54 4.75872 167.039 3.79945 165.392 3.55631C164.707 3.45523 163.996 3.49801 163.31 3.49801C162.503 3.49801 161.699 3.49801 160.891 3.49801C156.853 3.49801 152.814 3.49801 148.776 3.49801C128.182 3.49801 107.584 3.46736 86.9896 3.44554C67.2029 3.42457 47.4152 3.39445 27.6284 3.36975C22.7827 3.3637 17.9399 3.35794 13.0942 3.35226C12.5028 3.35157 11.8946 3.32524 11.2869 3.31145Z" fill="#fffdfb" stroke="none"/>
</g>
<g opacity="1">
<path d="M343.392 3.57169C346.973 3.57169 349.747 6.70592 349.311 10.2607L344.928 46.0439C344.561 49.0349 342.022 51.2827 339.008 51.2827L230.3 51.2827C227.281 51.2827 224.738 53.5385 224.378 56.536L224.378 56.536C223.952 60.086 226.724 63.2104 230.3 63.2104L336.099 63.2104C339.686 63.2104 342.462 66.3544 342.017 69.914L337.544 105.697C337.171 108.682 334.634 110.921 331.626 110.921L222.905 110.921C219.886 110.921 217.343 113.177 216.983 116.175L216.983 116.175C216.557 119.725 219.329 122.849 222.905 122.849L328.721 122.849C332.302 122.849 335.076 125.983 334.64 129.538L330.257 165.321C329.89 168.312 327.35 170.56 324.337 170.56L169.368 170.56C165.786 170.56 163.012 167.424 163.449 163.869L182.499 8.80832C182.866 5.81829 185.406 3.57169 188.418 3.57169L343.392 3.57169Z" fill="url(#LinearGradient_4)" fill-rule="nonzero" stroke="none"/>
<path d="M189.627 3.49572C187.628 3.49572 186.03 3.60856 184.462 4.99555C182.291 6.91589 182.368 9.73289 182.04 12.4013C181.544 16.4394 181.048 20.4787 180.552 24.5167C178.37 42.277 176.179 60.039 173.992 77.7986C171.309 99.5899 168.623 121.376 165.939 143.167C165.243 148.816 164.551 154.471 163.855 160.12C163.541 162.669 162.817 165.387 164.17 167.759C165.075 169.345 166.686 170.461 168.495 170.73C169.577 170.891 170.703 170.799 171.792 170.8C173.003 170.801 174.211 170.798 175.422 170.8C184.3 170.81 193.184 170.826 202.063 170.835C231.927 170.865 261.786 170.884 291.65 170.899C300.125 170.903 308.602 170.908 317.077 170.911C319.095 170.911 321.111 170.916 323.129 170.917C324.552 170.917 325.855 170.902 327.144 170.222C327.573 169.996 327.949 169.732 328.311 169.411C330.247 167.698 330.305 165.676 330.599 163.277C330.782 161.787 330.965 160.292 331.148 158.801C332.198 150.229 333.248 141.66 334.299 133.088C334.499 131.455 334.888 129.751 334.731 128.098C334.482 125.476 332.625 123.201 330.021 122.624C329.054 122.41 328.042 122.479 327.062 122.478C326.511 122.478 325.962 122.478 325.411 122.478C323.758 122.478 322.104 122.479 320.45 122.478C314.388 122.478 308.322 122.479 302.26 122.478C282.419 122.477 262.58 122.48 242.739 122.484C240.535 122.485 238.332 122.484 236.127 122.484C234.474 122.485 232.82 122.484 231.167 122.484C230.064 122.485 228.96 122.484 227.858 122.484C226.755 122.485 225.657 122.484 224.555 122.484C223.747 122.484 222.849 122.547 222.028 122.426C220.384 122.184 218.882 121.234 217.96 119.852C217.664 119.409 217.43 118.93 217.265 118.422C217.088 117.874 216.993 117.29 217.02 116.713C217.058 115.91 217.292 115.133 217.668 114.425C218 113.8 218.435 113.243 218.964 112.773C220.717 111.218 222.407 111.28 224.607 111.279C225.74 111.279 226.871 111.274 228.004 111.273C236.497 111.27 244.995 111.267 253.489 111.262C273.874 111.25 294.259 111.239 314.644 111.221C319.174 111.217 323.7 111.208 328.23 111.203C331.177 111.2 333.937 111.605 336.091 109.202C337.263 107.893 337.527 106.405 337.736 104.726C337.876 103.607 338.011 102.489 338.151 101.37C338.848 95.7751 339.548 90.1749 340.246 84.58C340.711 80.85 341.176 77.1225 341.641 73.3925C341.912 71.2159 342.507 68.903 341.664 66.7804C341.459 66.2638 341.18 65.7734 340.841 65.3331C339.9 64.1118 338.505 63.2808 336.978 63.0571C336.154 62.9364 335.255 62.9977 334.445 62.9988C333.343 63.0002 332.238 63.0031 331.136 63.0046C326.728 63.0105 322.32 63.0162 317.912 63.0221C295.32 63.0526 272.726 63.0833 250.133 63.1096C244.623 63.1161 239.116 63.1214 233.606 63.1271C232.504 63.1283 231.399 63.1398 230.297 63.133C229.859 63.1303 229.43 63.0872 229.001 62.9929C226.823 62.5136 225.05 60.7866 224.514 58.6218C224.285 57.6977 224.303 56.7444 224.52 55.8614C224.69 55.1672 225 54.4994 225.407 53.9122C225.681 53.5159 225.986 53.1815 226.346 52.8618C228.103 51.3031 229.796 51.3561 232.001 51.3561C233.7 51.3561 235.397 51.3561 237.096 51.3561C238.228 51.3561 239.36 51.3561 240.492 51.3561C242.191 51.3561 243.889 51.3561 245.587 51.3561C247.286 51.3561 248.983 51.3561 250.682 51.3561C270.499 51.3561 290.316 51.3561 310.132 51.3561C316.927 51.3561 323.723 51.3561 330.517 51.3561C332.782 51.3561 335.046 51.3561 337.31 51.3561C338.125 51.3561 338.947 51.4136 339.756 51.3152C340.47 51.2283 341.168 51.003 341.804 50.6675C342.231 50.4422 342.604 50.1759 342.965 49.8563C344.875 48.1665 344.928 46.2114 345.218 43.8453C345.355 42.727 345.49 41.6137 345.627 40.4954C346.722 31.5496 347.816 22.6019 348.912 13.6561C349.115 12.0028 349.566 10.1526 349.286 8.48543C348.788 5.52942 346.321 3.59571 343.391 3.49572C304.244 3.49572 265.096 3.49572 225.949 3.49572C215.86 3.49572 205.774 3.49572 195.684 3.49572C193.666 3.49572 191.644 3.49572 189.627 3.49572ZM189.107 3.64161C189.667 3.63348 190.243 3.64745 190.84 3.64745C192.858 3.64745 194.874 3.64745 196.892 3.64745C206.578 3.64745 216.263 3.64745 225.949 3.64745C265.096 3.64745 304.244 3.64745 343.391 3.64745C344.262 3.67716 345.093 3.82283 345.889 4.19019C346.513 4.4779 347.087 4.87464 347.576 5.35737C348.648 6.41687 349.301 7.87304 349.338 9.38416C349.364 10.4068 349.147 11.4493 349.023 12.4597C348.932 13.2052 348.84 13.9494 348.749 14.6948C347.653 23.6407 346.559 32.5826 345.463 41.5284C345.326 42.6466 345.186 43.7658 345.049 44.8841C344.78 47.0789 344.365 48.7834 342.405 50.1481C342.007 50.425 341.602 50.6334 341.15 50.8075C340.69 50.9847 340.24 51.1038 339.75 51.1635C338.396 51.3283 336.972 51.2102 335.612 51.2102C333.347 51.2102 331.078 51.2102 328.813 51.2102C322.585 51.2102 316.361 51.2102 310.132 51.2102C290.316 51.2102 270.499 51.2102 250.682 51.2102C248.417 51.2102 246.154 51.2102 243.889 51.2102C242.19 51.2102 240.493 51.2102 238.794 51.2102C236.529 51.2102 234.26 51.2102 231.995 51.2102C229.537 51.2102 227.618 51.2112 225.833 53.2119C225.508 53.5753 225.249 53.9489 225.021 54.3791C224.661 55.0584 224.502 55.7358 224.368 56.4859C224.239 57.2098 224.321 58.0241 224.496 58.7327C224.663 59.408 224.945 60.0507 225.331 60.6294C226.26 62.0221 227.765 62.9805 229.422 63.2264C230.244 63.3484 231.146 63.2897 231.954 63.2905C233.057 63.2917 234.156 63.2952 235.258 63.2964C240.768 63.3021 246.28 63.3074 251.791 63.3139C274.384 63.3407 296.976 63.3709 319.569 63.4014C323.978 63.4074 328.385 63.413 332.793 63.4189C334.168 63.4208 335.611 63.2851 336.978 63.489C339.045 63.7974 340.852 65.2206 341.623 67.1656C342.124 68.43 341.999 69.5903 341.833 70.9123C341.693 72.0297 341.553 73.1446 341.413 74.2621C340.946 77.9869 340.479 81.713 340.012 85.4379C339.359 90.6528 338.705 95.8691 338.051 101.084C337.911 102.201 337.771 103.316 337.631 104.434C337.43 106.037 337.178 107.417 336.056 108.665C333.91 111.051 331.153 110.64 328.224 110.637C323.127 110.632 318.03 110.624 312.934 110.62C292.548 110.602 272.165 110.59 251.779 110.579C243.285 110.574 234.793 110.57 226.299 110.567C223.596 110.566 221.093 110.154 218.929 112.073C218.565 112.396 218.255 112.735 217.977 113.135C217.713 113.517 217.461 113.998 217.295 114.431C217.038 115.098 216.903 115.807 216.869 116.52C216.828 117.36 216.926 118.211 217.184 119.012C217.88 121.175 219.778 122.817 222.033 123.15C223.401 123.351 224.842 123.213 226.218 123.214C228.422 123.214 230.625 123.213 232.83 123.214C234.483 123.214 236.137 123.213 237.79 123.214C239.995 123.214 242.198 123.213 244.402 123.214C263.692 123.217 282.982 123.221 302.271 123.22C308.334 123.219 314.394 123.22 320.456 123.22C322.661 123.219 324.87 123.22 327.074 123.22C328.051 123.22 329.057 123.146 330.021 123.36C330.7 123.51 331.351 123.782 331.935 124.159C332.393 124.455 332.812 124.808 333.173 125.215C334.01 126.161 334.576 127.403 334.608 128.676C334.633 129.639 334.416 130.631 334.299 131.582C334.208 132.328 334.116 133.072 334.025 133.818C332.975 142.392 331.923 150.962 330.873 159.537C330.691 161.028 330.507 162.522 330.325 164.013C330.254 164.589 330.212 165.204 330.068 165.775C329.666 167.366 328.566 168.749 327.115 169.516C325.484 170.378 323.694 170.204 321.909 170.205C319.892 170.205 317.875 170.21 315.857 170.21C307.383 170.213 298.905 170.218 290.43 170.222C260.567 170.237 230.707 170.256 200.843 170.286C191.965 170.295 183.086 170.311 174.208 170.321C172.997 170.323 171.789 170.32 170.578 170.321C169.734 170.322 168.897 170.37 168.069 170.187C166.447 169.83 165.023 168.773 164.199 167.333C163.309 165.776 163.429 164.494 163.639 162.775C163.788 161.563 163.934 160.352 164.083 159.14C164.776 153.483 165.473 147.826 166.166 142.169C168.79 120.753 171.414 99.3367 174.039 77.9212C176.218 60.1461 178.397 42.3729 180.581 24.5984C181.077 20.5604 181.573 16.5211 182.069 12.483C182.395 9.83246 182.318 7.04802 184.473 5.14145C185.907 3.87337 187.427 3.66602 189.107 3.64161Z" fill="#fffdfb" stroke="none"/>
</g>
</g>
<g opacity="1">
<g opacity="1">
<path d="M-172.052-172.344C-168.471-172.344-165.697-169.21-166.133-165.655L-170.516-129.872C-170.882-126.881-173.422-124.634-176.436-124.634L-285.162-124.634C-288.173-124.634-290.712-122.388-291.081-119.4L-298.436-59.7609C-298.875-56.2046-296.101-53.0671-292.517-53.0671L-232.986-53.0671C-229.967-53.0671-227.425-55.3229-227.065-58.3204L-227.065-58.3204C-226.639-61.8704-229.411-64.9948-232.986-64.9948L-279.147-64.9948C-282.734-64.9948-285.51-68.1388-285.065-71.6984L-280.592-107.482C-280.219-110.466-277.682-112.706-274.674-112.706L-179.334-112.706C-175.75-112.706-172.976-109.568-173.415-106.012L-185.183-10.5899C-185.552-7.60114-188.091-5.35608-191.102-5.35608L-346.076-5.35608C-349.658-5.35608-352.432-8.49172-351.995-12.0472L-332.945-167.108C-332.578-170.098-330.038-172.344-327.026-172.344L-172.052-172.344Z" fill="url(#LinearGradient_5)" fill-rule="nonzero" stroke="none"/>
<path d="M-326.796-172.428C-327.122-172.427-327.447-172.415-327.771-172.376C-329.194-172.202-330.528-171.493-331.483-170.426C-332.663-169.109-332.899-167.626-333.106-165.937C-333.255-164.726-333.407-163.512-333.556-162.301C-334.25-156.647-334.945-150.996-335.639-145.343C-338.416-122.741-341.203-100.138-343.987-77.537C-346.124-60.1851-348.259-42.8376-350.396-25.4857C-350.844-21.8538-351.291-18.2193-351.739-14.5874C-352.078-11.8331-352.542-9.39571-350.554-7.14487C-348.363-4.66458-345.46-5.12287-342.44-5.11932C-338.808-5.11505-335.174-5.10606-331.542-5.10181C-314.188-5.08147-296.839-5.07003-279.485-5.05511C-256.48-5.03533-233.474-5.01999-210.47-5.00841C-205.223-5.00577-199.979-5.00445-194.733-5.00257C-191.751-5.00151-188.821-4.5478-186.625-6.99893C-185.347-8.42467-185.157-10.0642-184.932-11.8906C-184.809-12.8844-184.687-13.8796-184.564-14.8735C-184.135-18.3519-183.703-21.8263-183.274-25.3047C-181.496-39.7161-179.722-54.1302-177.945-68.5417C-176.78-77.9842-175.613-87.4277-174.448-96.8701C-174.141-99.3552-173.832-101.839-173.526-104.324C-173.316-106.024-173.104-107.642-173.753-109.274C-173.961-109.796-174.246-110.29-174.588-110.734C-175.531-111.957-176.928-112.784-178.458-113.01C-179.232-113.125-180.061-113.075-180.828-113.075C-181.821-113.074-182.812-113.075-183.805-113.075C-188.274-113.074-192.744-113.075-197.213-113.075C-218.069-113.072-238.928-113.066-259.784-113.057C-263.756-113.055-267.725-113.053-271.698-113.051C-272.923-113.051-274.202-113.153-275.422-113.004C-277.377-112.766-279-111.561-279.963-109.876C-280.548-108.853-280.655-107.687-280.798-106.543C-280.938-105.424-281.073-104.311-281.212-103.192C-281.678-99.4632-282.148-95.7306-282.613-92.0018C-283.311-86.4085-284.005-80.8188-284.703-75.2254C-284.884-73.7741-285.208-72.2741-285.176-70.8066C-285.127-68.5934-283.987-66.5006-282.024-65.4246C-280.241-64.4473-278.219-64.6931-276.256-64.6949C-273.852-64.6971-271.452-64.6983-269.047-64.7007C-259.431-64.7104-249.81-64.7181-240.194-64.7299C-239.232-64.7311-238.272-64.7346-237.31-64.7358C-236.348-64.7369-235.388-64.7404-234.426-64.7416C-233.511-64.7427-232.589-64.7994-231.689-64.6015C-229-64.0103-226.692-61.306-227.106-58.4607C-227.21-57.7492-227.399-57.0963-227.737-56.4585C-228.069-55.8306-228.508-55.2726-229.038-54.8007C-230.839-53.2002-232.589-53.2975-234.852-53.2946C-236.093-53.2931-237.331-53.2904-238.571-53.2888C-239.811-53.2872-241.049-53.2845-242.289-53.283C-255.931-53.2657-269.578-53.2489-283.22-53.2304C-284.461-53.2287-285.699-53.2263-286.939-53.2246C-288.179-53.2229-289.417-53.2204-290.657-53.2187C-291.516-53.2176-292.509-53.1476-293.395-53.2771C-294.775-53.479-296.055-54.1777-296.979-55.2209C-297.34-55.6285-297.646-56.0851-297.884-56.5752C-298.119-57.0602-298.284-57.5787-298.374-58.1104C-298.567-59.2558-298.321-60.42-298.181-61.5544C-297.952-63.4195-297.722-65.2815-297.493-67.1466C-296.728-73.363-295.963-79.5804-295.199-85.7968C-294.128-94.4991-293.059-103.199-291.988-111.901C-291.759-113.765-291.529-115.629-291.299-117.493C-291.067-119.373-290.926-121.1-289.612-122.566C-287.829-124.557-285.91-124.556-283.46-124.557C-282.327-124.557-281.195-124.557-280.062-124.557C-273.267-124.557-266.474-124.557-259.679-124.557C-239.859-124.557-220.04-124.557-200.22-124.557C-193.991-124.557-187.758-124.557-181.529-124.557C-180.396-124.557-179.264-124.557-178.131-124.557C-176.807-124.557-175.543-124.477-174.29-124.959C-173.623-125.216-173.016-125.583-172.481-126.057C-170.571-127.746-170.517-129.703-170.228-132.069C-170.045-133.56-169.862-135.05-169.679-136.54C-168.629-145.114-167.577-153.687-166.527-162.26C-166.324-163.913-165.879-165.764-166.159-167.432C-166.656-170.388-169.125-172.322-172.055-172.422C-212.009-172.422-251.964-172.422-291.918-172.422C-301.604-172.422-311.284-172.422-320.97-172.422C-322.585-172.422-324.201-172.422-325.815-172.422C-326.141-172.422-326.47-172.429-326.796-172.428ZM-326.189-172.294C-325.658-172.289-325.123-172.271-324.601-172.271C-322.987-172.271-321.376-172.271-319.762-172.271C-310.076-172.271-300.39-172.271-290.704-172.271C-251.153-172.271-211.599-172.271-172.049-172.271C-171.178-172.241-170.353-172.089-169.556-171.722C-168.933-171.434-168.358-171.043-167.869-170.56C-166.797-169.501-166.144-168.044-166.106-166.533C-166.081-165.51-166.298-164.467-166.422-163.456C-166.513-162.711-166.605-161.966-166.696-161.221C-167.746-152.648-168.798-144.075-169.848-135.501C-170.031-134.01-170.208-132.521-170.391-131.03C-170.66-128.835-171.081-127.129-173.041-125.765C-173.439-125.488-173.844-125.279-174.296-125.105C-175.548-124.623-176.814-124.708-178.137-124.708C-179.836-124.708-181.534-124.708-183.233-124.708C-188.896-124.708-194.557-124.708-200.22-124.708C-220.04-124.708-239.859-124.708-259.679-124.708C-266.474-124.708-273.273-124.708-280.068-124.708C-281.201-124.708-282.333-124.708-283.466-124.708C-285.92-124.708-287.832-124.705-289.618-122.712C-290.945-121.23-291.088-119.474-291.323-117.575C-291.629-115.091-291.938-112.605-292.245-110.121C-293.319-101.429-294.392-92.7378-295.467-84.0456C-296.235-77.8373-297.005-71.627-297.773-65.4187C-297.926-64.1771-298.08-62.9361-298.234-61.6945C-298.389-60.4419-298.631-59.2044-298.421-57.947C-298.303-57.2445-298.061-56.5633-297.709-55.9448C-296.806-54.3605-295.2-53.2485-293.395-52.9794C-292.509-52.8474-291.517-52.9164-290.657-52.9152C-288.797-52.9127-286.931-52.9119-285.071-52.9094C-283.831-52.9077-282.593-52.9052-281.352-52.9035C-267.71-52.885-254.07-52.8625-240.427-52.8452C-238.567-52.8428-236.701-52.8417-234.841-52.8393C-232.571-52.8364-230.824-52.7375-229.015-54.3395C-228.652-54.6609-228.346-54.9974-228.07-55.3961C-227.807-55.7747-227.552-56.2505-227.387-56.6803C-227.178-57.2217-227.101-57.6054-227.019-58.1805C-226.903-58.9903-226.964-59.8452-227.159-60.638C-227.328-61.3267-227.618-61.9856-228.011-62.576C-228.942-63.9741-230.452-64.9382-232.115-65.1852C-233.346-65.3682-234.635-65.2479-235.874-65.2494C-237.317-65.2512-238.763-65.2535-240.205-65.2553C-250.303-65.2677-260.397-65.2809-270.495-65.2903C-272.899-65.2925-275.306-65.294-277.71-65.2961C-279.393-65.2977-280.912-65.2988-282.368-66.2418C-282.827-66.5388-283.244-66.9003-283.606-67.31C-284.456-68.2741-285.012-69.5356-285.042-70.8299C-285.064-71.8051-284.847-72.8032-284.726-73.7661C-284.633-74.5112-284.54-75.2566-284.446-76.0018C-283.747-81.5907-283.044-87.1776-282.345-92.7665C-281.878-96.4926-281.416-100.219-280.95-103.945C-280.856-104.69-280.763-105.435-280.669-106.181C-280.537-107.237-280.445-108.296-279.905-109.239C-279.55-109.86-279.142-110.405-278.603-110.88C-276.949-112.338-275.277-112.364-273.18-112.362C-272.187-112.362-271.196-112.363-270.203-112.362C-266.231-112.361-262.256-112.358-258.283-112.357C-237.428-112.347-216.569-112.342-195.713-112.339C-191.244-112.338-186.78-112.339-182.311-112.339C-181.042-112.339-179.713-112.461-178.452-112.275C-176.398-111.971-174.593-110.559-173.823-108.626C-173.124-106.872-173.629-105.036-173.853-103.227C-174.159-100.742-174.468-98.2576-174.775-95.7727C-175.939-86.3296-177.101-76.8874-178.266-67.4443C-180.043-53.0303-181.818-38.6156-183.595-24.2015C-184.024-20.7221-184.456-17.2438-184.885-13.7644C-185.153-11.5875-185.136-9.40764-186.671-7.69357C-188.853-5.25743-191.776-5.70995-194.738-5.70889C-199.985-5.70701-205.235-5.70569-210.482-5.70305C-233.485-5.69147-256.487-5.68197-279.49-5.66219C-296.844-5.64727-314.2-5.62999-331.553-5.60965C-335.589-5.60493-339.624-5.59688-343.66-5.59214C-344.747-5.59087-345.877-5.49218-346.958-5.65052C-348.336-5.8523-349.613-6.54681-350.536-7.5885C-352.674-10.0005-351.864-12.6339-351.505-15.5623C-351.06-19.1989-350.614-22.8356-350.168-26.4722C-348.039-43.8474-345.912-61.2241-343.782-78.5994C-341.06-100.82-338.34-123.041-335.61-145.261C-334.916-150.915-334.221-156.571-333.526-162.225C-333.378-163.436-333.226-164.644-333.077-165.855C-332.872-167.523-332.643-168.979-331.477-170.28C-330.524-171.345-329.186-172.051-327.765-172.224C-327.246-172.287-326.72-172.299-326.189-172.294Z" fill="#fffdfb" stroke="none"/>
</g>
<g opacity="1">
<path d="M-106.249-124.634C-109.259-124.634-111.796-122.39-112.164-119.403L-119.521-59.7566C-119.959-56.2025-117.186-53.0671-113.605-53.0671L-54.0493-53.0671C-51.0398-53.0671-48.5025-55.3106-48.1341-58.2975L-40.7777-117.944C-40.3394-121.498-43.1119-124.634-46.6929-124.634L-106.249-124.634ZM-154.028-167.111C-153.661-170.099-151.123-172.344-148.113-172.344L6.86583-172.344C10.4457-172.344 13.2179-169.211 12.7814-165.658L-6.2699-10.5893C-6.63701-7.60123-9.17487-5.35608-12.1854-5.35608L-167.164-5.35608C-170.744-5.35608-173.516-8.48968-173.08-12.0428L-154.028-167.111Z" fill="url(#LinearGradient_6)" fill-rule="nonzero" stroke="none"/>
<path d="M-48.0474-124.785C-48.8205-124.78-49.6134-124.746-50.4161-124.743C-53.5178-124.729-56.62-124.71-59.7218-124.708C-75.2312-124.695-90.7411-124.708-106.251-124.708C-108.694-124.637-110.914-123.225-111.818-120.895C-112.224-119.85-112.275-118.671-112.41-117.579C-112.563-116.337-112.714-115.094-112.867-113.851C-113.02-112.609-113.173-111.366-113.327-110.123C-114.935-97.0856-116.543-84.0486-118.169-71.0135C-118.555-67.9159-118.94-64.8177-119.327-61.7201C-119.63-59.2925-119.919-57.2392-118.343-55.1808C-116.17-52.3446-113.113-52.8124-109.879-52.7972C-106.777-52.7826-103.676-52.7711-100.574-52.7599C-90.027-52.7216-79.4798-52.7055-68.9331-52.7002C-65.2108-52.6984-61.488-52.6944-57.7657-52.6953C-56.4122-52.6956-55.0209-52.6249-53.6696-52.7077C-53.0714-52.7443-52.4498-52.8634-51.8949-53.0954C-51.3875-53.3076-51.09-53.4464-50.6373-53.7615C-49.437-54.597-48.565-55.8633-48.2139-57.2835C-47.9971-58.1604-47.9465-59.0713-47.8361-59.9679C-47.683-61.2112-47.5293-62.4528-47.3763-63.6961C-47.2233-64.9396-47.0694-66.1834-46.9165-67.4269C-45.2327-81.1188-43.5578-94.8115-41.8858-108.505C-41.5815-110.997-41.2777-113.489-40.9736-115.981C-40.68-118.388-40.3835-120.419-41.9604-122.451C-43.5949-124.557-45.7281-124.801-48.0474-124.785ZM-106.248-124.559C-90.7386-124.559-75.2287-124.571-59.7193-124.559C-55.9969-124.556-52.2743-124.532-48.5519-124.517C-47.6926-124.513-46.7004-124.576-45.8154-124.442C-44.4338-124.232-43.1551-123.525-42.2338-122.476C-41.3493-121.469-40.8009-120.16-40.7698-118.815C-40.75-117.956-40.9434-116.978-41.0432-116.178C-41.1204-115.558-41.1971-114.938-41.2744-114.318C-41.5833-111.84-41.8927-109.363-42.2014-106.884C-43.8238-93.8595-45.4419-80.8334-47.0532-67.8072C-47.2068-66.5653-47.3595-65.3232-47.513-64.0814C-47.6665-62.8395-47.8194-61.5975-47.9728-60.3556C-48.0763-59.5181-48.1182-58.6663-48.3233-57.8477C-48.6634-56.49-49.5263-55.2863-50.6721-54.4898C-51.1216-54.1773-51.4157-54.0416-51.9198-53.8311C-52.4708-53.6011-53.0881-53.4844-53.682-53.4484C-55.6515-53.3291-57.6641-53.4385-59.6373-53.4384C-63.3595-53.4383-67.0824-53.4361-70.8047-53.4335C-81.3508-53.426-91.8967-53.4054-102.443-53.3664C-105.544-53.3549-108.647-53.342-111.748-53.3266C-112.607-53.3223-113.6-53.25-114.485-53.3763C-115.997-53.5921-117.386-54.4021-118.323-55.6083C-119.812-57.527-119.533-59.2403-119.255-61.5213C-119.179-62.1444-119.102-62.7673-119.026-63.3904C-118.722-65.8829-118.42-68.3743-118.116-70.8668C-116.524-83.927-114.91-96.9854-113.299-110.043C-113.07-111.907-112.841-113.772-112.611-115.636C-112.458-116.877-112.324-118.12-112.151-119.359C-112.077-119.886-111.994-120.267-111.801-120.763C-110.898-123.085-108.682-124.488-106.248-124.559ZM6.27392-172.542C5.68589-172.552 5.07574-172.537 4.44233-172.536C3.2316-172.533 2.01896-172.533 0.808226-172.53C-6.85976-172.512-14.5262-172.495-22.1942-172.478C-54.0776-172.406-85.9605-172.42-117.844-172.42C-126.723-172.42-135.602-172.42-144.481-172.42C-145.288-172.42-146.098-172.42-146.905-172.42C-147.804-172.42-148.695-172.462-149.574-172.239C-152.009-171.623-153.669-169.582-154.04-167.157C-154.041-167.157-154.039-167.148-154.04-167.146C-154.041-167.147-154.045-167.152-154.045-167.152C-158.957-127.175-163.85-87.1945-168.78-47.2202C-169.974-37.538-171.167-27.8584-172.361-18.1764C-172.561-16.5629-172.761-14.9463-172.96-13.3328C-173.049-12.6139-173.175-11.887-173.158-11.1582C-173.124-9.7079-172.596-8.29445-171.635-7.20426C-170.708-6.15412-169.427-5.45232-168.041-5.24475C-166.96-5.08275-165.827-5.17728-164.738-5.17497C-163.528-5.1724-162.321-5.17172-161.11-5.16916C-153.442-5.1529-145.77-5.13788-138.102-5.12264C-106.218-5.05926-74.3364-5.01612-42.4522-5.00053C-33.5732-4.99619-24.6947-4.99031-15.8156-4.9889C-15.0085-4.98878-14.1981-4.98901-13.391-4.9889C-12.4908-4.98878-11.5967-4.94064-10.7163-5.16334C-8.42724-5.74236-6.68842-7.66795-6.2623-9.97199C-5.94206-11.7035-5.82001-13.4923-5.60525-15.24C-5.25791-18.0666-4.91169-20.891-4.56444-23.7176C-3.47294-32.6025-2.38164-41.4867-1.29084-50.3717C2.03249-77.4412 5.35609-104.513 8.66953-131.584C9.80757-140.882 10.9455-150.178 12.0827-159.476C12.2805-161.093 12.478-162.709 12.6758-164.326C12.7655-165.06 12.8916-165.804 12.8735-166.547C12.8344-168.153 12.2029-169.7 11.0535-170.832C9.60614-172.258 8.03802-172.509 6.27392-172.542ZM-146.899-172.268C-145.689-172.268-144.482-172.268-143.271-172.268C-134.796-172.268-126.319-172.268-117.844-172.268C-85.96-172.268-54.0723-172.288-22.1884-172.216C-14.52-172.199-6.85441-172.181 0.81404-172.164C2.42845-172.16 4.04317-172.156 5.65758-172.152C7.76835-172.147 9.46701-171.992 11.0419-170.431C12.0756-169.406 12.7448-167.987 12.7804-166.524C12.8061-165.47 12.5716-164.395 12.4432-163.355C12.2441-161.741 12.0434-160.13 11.8443-158.517C10.6993-149.239 9.55202-139.961 8.40787-130.683C5.07317-103.641 1.74847-76.5951-1.57575-49.5518C-2.66771-40.6684-3.75814-31.7871-4.84935-22.9036C-5.1966-20.0767-5.54874-17.2471-5.89598-14.4201C-6.0569-13.11-6.14948-11.77-6.39022-10.472C-6.80004-8.2625-8.56435-6.45114-10.7337-5.90179C-11.611-5.67963-12.5056-5.72747-13.4026-5.72735C-14.2098-5.72725-15.0143-5.72167-15.8215-5.72154C-24.7004-5.72013-33.5791-5.72007-42.458-5.71573C-74.7447-5.69994-107.031-5.65198-139.317-5.58781C-146.985-5.57256-154.657-5.55757-162.325-5.54129C-163.536-5.53872-164.743-5.53805-165.954-5.53547C-166.64-5.53401-167.355-5.4938-168.041-5.59362C-169.419-5.79407-170.699-6.48318-171.623-7.52406C-172.51-8.52436-173.054-9.82798-173.088-11.1698C-173.115-12.2386-172.88-13.3294-172.751-14.3853C-172.553-16.0024-172.356-17.6233-172.158-19.2404C-170.971-28.9419-169.787-38.641-168.599-48.3424C-163.755-87.9189-158.878-127.49-154.016-167.064C-154.017-167.064-154.016-167.07-154.016-167.07C-153.649-169.469-151.971-171.486-149.568-172.094C-148.69-172.316-147.798-172.268-146.899-172.268Z" fill="#fffdfb" stroke="none"/>
</g>
<g opacity="1">
<path d="M72.6671-124.634C69.6576-124.634 67.1203-122.39 66.7519-119.403L59.3955-59.7566C58.9572-56.2025 61.7297-53.0671 65.3107-53.0671L124.867-53.0671C127.876-53.0671 130.414-55.3106 130.782-58.2975L138.138-117.944C138.577-121.498 135.804-124.634 132.223-124.634L72.6671-124.634ZM24.8877-167.111C25.2548-170.099 27.7926-172.344 30.8032-172.344L185.782-172.344C189.362-172.344 192.134-169.211 191.697-165.658L172.646-10.5893C172.279-7.60123 169.741-5.35608 166.731-5.35608L11.7519-5.35608C8.17205-5.35608 5.39988-8.48968 5.83641-12.0428L24.8877-167.111Z" fill="url(#LinearGradient_7)" fill-rule="nonzero" stroke="none"/>
<path d="M130.869-124.785C130.096-124.78 129.301-124.746 128.498-124.743C125.397-124.729 122.297-124.71 119.195-124.708C103.686-124.695 88.1757-124.708 72.6663-124.708C70.2225-124.637 68.0033-123.225 67.0988-120.895C66.6931-119.85 66.6419-118.671 66.5072-117.579C66.354-116.337 66.2007-115.094 66.0474-113.851C65.8942-112.609 65.7409-111.366 65.5876-110.123C63.9797-97.0856 62.3741-84.0486 60.7483-71.0135C60.362-67.9159 59.9764-64.8177 59.5901-61.7201C59.2872-59.2925 58.9976-57.2392 60.5743-55.1808C62.7468-52.3446 65.8041-52.8124 69.0375-52.7972C72.1395-52.7826 75.2412-52.7711 78.3432-52.7599C88.8898-52.7216 99.4371-52.7055 109.984-52.7002C113.706-52.6984 117.426-52.6944 121.149-52.6953C122.502-52.6956 123.896-52.6249 125.247-52.7077C125.845-52.7443 126.467-52.8634 127.022-53.0954C127.529-53.3076 127.824-53.4464 128.277-53.7615C129.477-54.597 130.352-55.8633 130.703-57.2835C130.92-58.1604 130.97-59.0713 131.081-59.9679C131.234-61.2112 131.388-62.4528 131.541-63.6961C131.694-64.9396 131.845-66.1834 131.998-67.4269C133.682-81.1188 135.359-94.8115 137.031-108.505C137.335-110.997 137.639-113.489 137.943-115.981C138.237-118.388 138.533-120.419 136.956-122.451C135.322-124.557 133.189-124.801 130.869-124.785ZM72.6688-124.559C88.1782-124.559 103.688-124.571 119.198-124.559C122.92-124.556 126.64-124.532 130.362-124.517C131.222-124.513 132.216-124.576 133.101-124.442C134.483-124.232 135.762-123.525 136.683-122.476C137.568-121.469 138.116-120.16 138.147-118.815C138.167-117.956 137.973-116.978 137.874-116.178C137.796-115.558 137.72-114.938 137.642-114.318C137.334-111.84 137.024-109.363 136.715-106.884C135.093-93.8595 133.475-80.8334 131.864-67.8072C131.71-66.5653 131.557-65.3232 131.404-64.0814C131.25-62.8395 131.095-61.5975 130.942-60.3556C130.838-59.5181 130.799-58.6663 130.594-57.8477C130.253-56.49 129.391-55.2863 128.245-54.4898C127.795-54.1773 127.501-54.0416 126.997-53.8311C126.446-53.6011 125.829-53.4844 125.235-53.4484C123.265-53.3291 121.253-53.4385 119.28-53.4384C115.557-53.4383 111.834-53.4361 108.112-53.4335C97.566-53.426 87.0202-53.4054 76.4741-53.3664C73.3724-53.3549 70.2701-53.342 67.1684-53.3266C66.31-53.3223 65.3173-53.25 64.4318-53.3763C62.9194-53.5921 61.5306-54.4021 60.5942-55.6083C59.1046-57.527 59.384-59.2403 59.6621-61.5213C59.7381-62.1444 59.8124-62.7673 59.8883-63.3904C60.1922-65.8829 60.4965-68.3743 60.8005-70.8668C62.3933-83.927 64.0069-96.9854 65.6174-110.043C65.8473-111.907 66.076-113.772 66.3059-115.636C66.459-116.877 66.5925-118.12 66.7657-119.359C66.8394-119.886 66.9231-120.267 67.1162-120.763C68.0189-123.085 70.2344-124.488 72.6688-124.559ZM185.188-172.542C184.6-172.552 183.99-172.537 183.357-172.536C182.146-172.533 180.939-172.533 179.728-172.53C172.06-172.512 164.388-172.495 156.72-172.478C124.837-172.406 92.9539-172.42 61.0705-172.42C52.1915-172.42 43.3129-172.42 34.4339-172.42C33.6267-172.42 32.8222-172.42 32.015-172.42C31.1162-172.42 30.2195-172.462 29.3403-172.239C26.9052-171.623 25.2449-169.582 24.8747-167.157C24.8741-167.157 24.8752-167.152 24.8747-167.152C19.9633-127.175 15.0645-87.1945 10.1348-47.2202C8.94079-37.538 7.74784-27.8584 6.55302-18.1764C6.35392-16.5629 6.15322-14.9463 5.95412-13.3328C5.86541-12.6139 5.73918-11.887 5.75643-11.1582C5.79075-9.7079 6.31819-8.29445 7.27985-7.20426C8.20616-6.15412 9.48733-5.45232 10.8733-5.24475C11.9548-5.08275 13.0877-5.17728 14.1759-5.17497C15.3867-5.1724 16.5992-5.17172 17.81-5.16916C25.4785-5.1529 33.1441-5.13788 40.8125-5.12264C72.6967-5.05926 104.584-5.01612 136.468-5.00053C145.347-4.99619 154.226-4.99031 163.105-4.9889C163.912-4.98878 164.716-4.98901 165.523-4.9889C166.424-4.98878 167.318-4.94064 168.198-5.16334C170.487-5.74236 172.226-7.66795 172.652-9.97199C172.972-11.7035 173.1-13.4923 173.315-15.24C173.662-18.0666 174.009-20.891 174.356-23.7176C175.447-32.6025 176.539-41.4867 177.629-50.3717C180.953-77.4412 184.271-104.513 187.584-131.584C188.722-140.882 189.86-150.178 190.997-159.476C191.195-161.093 191.392-162.709 191.59-164.326C191.68-165.06 191.806-165.804 191.788-166.547C191.749-168.153 191.123-169.7 189.974-170.832C188.526-172.258 186.952-172.509 185.188-172.542ZM32.015-172.268C33.2258-172.268 34.4384-172.268 35.6492-172.268C44.1246-172.268 52.6009-172.268 61.0763-172.268C92.9602-172.268 124.842-172.288 156.726-172.216C164.394-172.199 172.06-172.181 179.728-172.164C181.343-172.16 182.958-172.156 184.572-172.152C186.683-172.147 188.381-171.992 189.956-170.431C190.99-169.406 191.659-167.987 191.695-166.524C191.72-165.47 191.486-164.395 191.358-163.355C191.159-161.741 190.958-160.13 190.759-158.517C189.614-149.239 188.472-139.961 187.328-130.683C183.993-103.641 180.663-76.5951 177.339-49.5518C176.247-40.6684 175.156-31.7871 174.065-22.9036C173.718-20.0767 173.372-17.2471 173.024-14.4201C172.863-13.11 172.771-11.77 172.53-10.472C172.12-8.2625 170.35-6.45114 168.181-5.90179C167.303-5.67963 166.415-5.72747 165.518-5.72735C164.71-5.72725 163.9-5.72167 163.093-5.72154C154.214-5.72013 145.335-5.72007 136.456-5.71573C104.17-5.69994 71.8839-5.65198 39.5972-5.58781C31.9292-5.57256 24.2628-5.55757 16.5948-5.54129C15.3841-5.53872 14.1714-5.53805 12.9607-5.53547C12.2739-5.53401 11.5594-5.4938 10.8733-5.59362C9.4955-5.79407 8.22082-6.48318 7.29729-7.52406C6.40976-8.52436 5.85999-9.82798 5.8262-11.1698C5.79929-12.2386 6.03431-13.3294 6.16345-14.3853C6.36124-16.0024 6.55874-17.6233 6.75653-19.2404C7.94312-28.9419 9.12755-38.641 10.3151-48.3424C15.1595-87.9189 20.0418-127.49 24.9038-167.064C24.9033-167.064 24.9045-167.07 24.9038-167.07C25.2713-169.469 26.9432-171.486 29.3462-172.094C30.2247-172.316 31.1168-172.268 32.015-172.268Z" fill="#fffdfb" stroke="none"/>
</g>
<g opacity="1">
<path d="M317.055-117.944C317.493-121.498 314.72-124.634 311.139-124.634L205.337-124.634C201.758-124.634 198.986-127.766 199.421-131.318L203.805-167.109C204.172-170.098 206.71-172.344 209.721-172.344L364.698-172.344C368.278-172.344 371.05-169.211 370.614-165.658L351.562-10.5893C351.195-7.60123 348.657-5.35608 345.647-5.35608L190.671-5.35608C187.09-5.35608 184.318-8.49155 184.756-12.0456L196.526-107.475C196.894-110.462 199.431-112.706 202.441-112.706L238.137-112.706C241.72-112.706 244.493-109.568 244.052-106.012L238.317-59.7605C237.876-56.2051 240.649-53.0671 244.231-53.0671L303.783-53.0671C306.792-53.0671 309.33-55.3106 309.698-58.2975L317.055-117.944Z" fill="url(#LinearGradient_8)" fill-rule="nonzero" stroke="none"/>
<path d="M364.107-172.646C363.519-172.657 362.91-172.64 362.275-172.64C359.45-172.637 356.62-172.637 353.795-172.634C340.477-172.618 327.163-172.6 313.845-172.581C287.613-172.544 261.378-172.499 235.145-172.464C228.285-172.455 221.423-172.449 214.562-172.441C213.351-172.439 212.144-172.436 210.933-172.435C209.261-172.433 207.741-172.36 206.321-171.37C203.938-169.707 203.839-167.541 203.518-164.914C203.336-163.423 203.151-161.928 202.968-160.437C202.1-153.353 201.231-146.27 200.363-139.186C200.089-136.949 199.818-134.716 199.544-132.479C199.498-132.105 199.471-131.739 199.439-131.373C199.499-132.09 199.621-132.806 199.708-133.515C199.982-135.752 200.259-137.991 200.533-140.228C201.401-147.312 202.264-154.395 203.132-161.479C203.314-162.97 203.499-164.459 203.682-165.95C203.951-168.142 204.368-169.839 206.327-171.2C208.092-172.426 210.098-172.256 212.145-172.253C213.356-172.252 214.563-172.249 215.773-172.248C222.634-172.24 229.496-172.233 236.357-172.224C262.591-172.19 288.829-172.144 315.063-172.107C328.381-172.088 341.7-172.07 355.018-172.055C357.44-172.052 359.86-172.051 362.281-172.049C364.806-172.046 366.953-172.232 368.871-170.334C369.88-169.336 370.556-167.949 370.592-166.518C370.618-165.482 370.384-164.421 370.258-163.399C370.159-162.591 370.059-161.789 369.96-160.981C369.314-155.734 368.669-150.485 368.023-145.238C364.992-120.611 361.961-95.9818 358.934-71.3548C356.998-55.6069 355.063-39.8607 353.128-24.1127C352.681-20.4782 352.234-16.8438 351.788-13.2093C351.496-10.8369 351.488-8.90852 349.575-7.21625C347.446-5.33285 344.644-5.72407 342.008-5.72384C337.972-5.72348 333.941-5.72419 329.905-5.72384C312.551-5.7223 295.194-5.71906 277.84-5.71213C254.836-5.70295 231.83-5.68392 208.826-5.66531C203.983-5.66139 199.143-5.65825 194.3-5.6536C191.302-5.65073 188.398-5.18718 186.218-7.64934C185.948-7.95371 185.711-8.28548 185.51-8.63843C184.366-10.6383 184.907-12.6945 185.176-14.8773C185.604-18.3586 186.035-21.8429 186.464-25.3242C188.238-39.7481 190.01-54.1684 191.784-68.5924C193.007-78.5405 194.23-88.4925 195.453-98.4406C195.759-100.928 196.066-103.41 196.372-105.897C196.557-107.398 196.685-108.743 197.566-110.011C198.515-111.378 200.051-112.313 201.704-112.516C202.68-112.636 203.691-112.562 204.671-112.563C205.786-112.564 206.903-112.567 208.019-112.569C216.199-112.58 224.378-112.588 232.559-112.598C234.046-112.6 235.537-112.602 237.024-112.604C237.683-112.605 238.357-112.642 239.014-112.545C240.668-112.303 242.174-111.344 243.099-109.953C243.827-108.858 244.046-107.778 244.047-106.663C244.062-107.851 243.881-108.972 243.111-110.134C242.184-111.533 240.675-112.497 239.014-112.744C237.994-112.896 236.933-112.807 235.906-112.809C234.791-112.81 233.674-112.813 232.559-112.815C224.378-112.824 216.199-112.832 208.019-112.844C206.531-112.846 205.041-112.848 203.553-112.85C203.063-112.85 202.23-112.873 201.698-112.809C200.039-112.609 198.497-111.679 197.543-110.31C196.369-108.627 196.369-106.545 196.126-104.58C195.819-102.097 195.515-99.6129 195.207-97.1296C194.04-87.6932 192.869-78.2571 191.702-68.8206C189.92-54.4169 188.139-40.0148 186.358-25.6109C185.928-22.1338 185.501-18.6529 185.071-15.1758C184.773-12.7671 184.206-10.3257 185.475-8.09999C185.749-7.61923 186.082-7.17835 186.475-6.78901C188.667-4.61975 191.459-5.05937 194.306-5.05664C199.149-5.052 203.995-5.04885 208.838-5.04493C232.246-5.026 255.655-5.01331 279.063-5.00397C296.417-4.99704 313.768-4.98794 331.122-4.98641C335.158-4.98605 339.195-4.98677 343.231-4.98641C345.629-4.9862 347.699-4.79458 349.616-6.49052C351.817-8.43715 351.748-11.326 352.08-14.0287C352.527-17.663 352.974-21.2977 353.42-24.932C355.355-40.6823 357.286-56.4297 359.22-72.18C362.246-96.8197 365.27-121.458 368.292-146.098C368.936-151.35 369.585-156.601 370.229-161.853C370.626-165.094 371.484-168.37 368.889-170.931C367.441-172.359 365.873-172.611 364.107-172.646ZM244.047-106.663C244.048-105.549 243.831-104.405 243.679-103.169C243.44-101.241 243.197-99.3095 242.959-97.3813C241.707-87.2627 240.456-77.148 239.201-67.0297C238.962-65.1026 238.72-63.1745 238.481-61.2474C238.389-60.4997 238.334-59.8112 238.323-59.1404C238.328-60.2461 238.54-61.3877 238.692-62.611C238.931-64.5382 239.167-66.4662 239.406-68.3934C240.661-78.51 241.912-88.6286 243.169-98.7449C243.409-100.671 243.65-102.595 243.889-104.521C243.984-105.282 244.039-105.981 244.047-106.663ZM238.323-59.1404C238.323-59.1093 238.317-59.0779 238.318-59.0468C238.318-59.0779 238.323-59.1092 238.323-59.1404ZM238.318-59.0468C238.311-57.8888 238.505-56.7955 239.26-55.6582C240.187-54.261 241.697-53.2989 243.357-53.0537C244.243-52.9229 245.236-52.9894 246.096-52.9894C247.336-52.9894 248.577-52.9894 249.818-52.9894C256.642-52.9894 263.461-52.9894 270.284-52.9894C278.969-52.9894 287.656-52.9894 296.34-52.9894C298.201-52.9894 300.063-52.9894 301.924-52.9894C303.843-52.9894 305.54-52.9087 307.179-54.0487C309.916-55.9527 309.798-58.9728 310.17-61.9848C310.553-65.0914 310.94-68.2014 311.323-71.308C313.239-86.8409 315.154-102.373 317.07-117.906C317.071-117.907 317.07-117.911 317.07-117.912C317.137-118.666 317.122-119.403 316.941-120.142C316.776-120.819 316.496-121.464 316.11-122.044C315.183-123.44 313.672-124.404 312.013-124.649C311.19-124.77 310.294-124.707 309.485-124.707C308.383-124.707 307.28-124.707 306.178-124.707C304.525-124.707 302.874-124.707 301.221-124.707C299.568-124.707 297.911-124.707 296.258-124.707C294.605-124.707 292.954-124.707 291.301-124.707C268.157-124.707 245.01-124.707 221.866-124.707C217.457-124.707 213.053-124.707 208.645-124.707C207.543-124.707 206.44-124.699 205.338-124.707C204.899-124.71 204.468-124.753 204.039-124.847C201.86-125.33 200.088-127.064 199.556-129.231C199.382-129.939 199.378-130.656 199.439-131.373C199.373-130.625 199.346-129.881 199.532-129.12C199.698-128.444 199.984-127.803 200.369-127.224C201.297-125.828 202.802-124.864 204.46-124.619C205.283-124.498 206.18-124.561 206.989-124.561C208.091-124.561 209.193-124.561 210.295-124.561C214.153-124.561 218.014-124.561 221.872-124.561C245.016-124.561 268.157-124.561 291.301-124.561C293.505-124.561 295.71-124.561 297.915-124.561C299.568-124.561 301.218-124.561 302.872-124.561C304.525-124.561 306.182-124.561 307.835-124.561C308.937-124.561 310.039-124.569 311.141-124.561C311.58-124.558 312.012-124.509 312.441-124.414C314.62-123.931 316.392-122.199 316.924-120.031C317.091-119.348 317.103-118.673 317.041-117.977C315.125-102.446 313.209-86.9151 311.294-71.3841C310.834-67.6562 310.372-63.9277 309.912-60.1998C309.806-59.3387 309.765-58.4665 309.555-57.6246C309.211-56.2418 308.341-55.013 307.173-54.2009C305.536-53.0621 303.841-53.1415 301.924-53.1415C301.303-53.1415 300.683-53.1415 300.062-53.1415C298.201-53.1415 296.34-53.1415 294.479-53.1415C285.794-53.1415 277.108-53.1415 268.423-53.1415C261.6-53.1415 254.775-53.1415 247.951-53.1415C246.71-53.1415 245.469-53.1334 244.229-53.1415C243.913-53.1436 243.663-53.1598 243.351-53.2059C241.696-53.4504 240.197-54.405 239.272-55.7986C238.554-56.8798 238.325-57.9473 238.318-59.0468Z" fill="#fffdfb" stroke="none"/>
</g>
</g>
</g>
</g>
</svg>
