<?xml version="1.0" encoding="UTF-8" standalone="no"?>
<!DOCTYPE svg PUBLIC "-//W3C//DTD SVG 1.1//EN" "http://www.w3.org/Graphics/SVG/1.1/DTD/svg11.dtd">
<!-- Created with Vectornator (http://vectornator.io/) -->
<svg height="1024.0pt" stroke-miterlimit="10" style="fill-rule:nonzero;clip-rule:evenodd;stroke-linecap:round;stroke-linejoin:round;" version="1.1" viewBox="0 0 1024 1024" width="1024.0pt" xml:space="preserve" xmlns="http://www.w3.org/2000/svg" xmlns:xlink="http://www.w3.org/1999/xlink">
<defs>
<linearGradient gradientTransform="matrix(-0.143008 171.422 -272.619 -0.143008 223.904 517.323)" gradientUnits="userSpaceOnUse" id="LinearGradient" x1="0" x2="1" y1="0" y2="0">
<stop offset="0" stop-color="#ffffff" stop-opacity="0.0476199"/>
<stop offset="1" stop-color="#ffffff" stop-opacity="0"/>
</linearGradient>
<linearGradient gradientTransform="matrix(-0.542144 172.253 -273.942 -0.542144 409.007 516.848)" gradientUnits="userSpaceOnUse" id="LinearGradient_2" x1="0" x2="1" y1="0" y2="0">
<stop offset="0" stop-color="#ffffff" stop-opacity="0.0476199"/>
<stop offset="1" stop-color="#ffffff" stop-opacity="0"/>
</linearGradient>
<linearGradient gradientTransform="matrix(-0.715038 173.18 -275.415 -0.715038 593.173 516.388)" gradientUnits="userSpaceOnUse" id="LinearGradient_3" x1="0" x2="1" y1="0" y2="0">
<stop offset="0" stop-color="#ffffff" stop-opacity="0.0476199"/>
<stop offset="1" stop-color="#ffffff" stop-opacity="0"/>
</linearGradient>
<linearGradient gradientTransform="matrix(-1.15813 171.94 -273.443 -1.15813 778.454 516.898)" gradientUnits="userSpaceOnUse" id="LinearGradient_4" x1="0" x2="1" y1="0" y2="0">
<stop offset="0" stop-color="#ffffff" stop-opacity="0.0476199"/>
<stop offset="1" stop-color="#ffffff" stop-opacity="0"/>
</linearGradient>
<linearGradient gradientTransform="matrix(193.691 0 0 193.691 148.929 421.14)" gradientUnits="userSpaceOnUse" id="LinearGradient_5" x1="0" x2="1" y1="0" y2="0">
<stop offset="0" stop-color="#ffffff" stop-opacity="0.0998233"/>
<stop offset="1" stop-color="#ffffff" stop-opacity="0.05"/>
</linearGradient>
<linearGradient gradientTransform="matrix(193.691 0 0 193.691 333.748 421.14)" gradientUnits="userSpaceOnUse" id="LinearGradient_6" x1="0" x2="1" y1="0" y2="0">
<stop offset="0" stop-color="#ffffff" stop-opacity="0.0998233"/>
<stop offset="1" stop-color="#ffffff" stop-opacity="0.05"/>
</linearGradient>
<linearGradient gradientTransform="matrix(193.691 0 0 193.691 518.568 421.14)" gradientUnits="userSpaceOnUse" id="LinearGradient_7" x1="0" x2="1" y1="0" y2="0">
<stop offset="0" stop-color="#ffffff" stop-opacity="0.0998233"/>
<stop offset="1" stop-color="#ffffff" stop-opacity="0.05"/>
</linearGradient>
<linearGradient gradientTransform="matrix(193.691 0 0 193.691 703.388 421.14)" gradientUnits="userSpaceOnUse" id="LinearGradient_8" x1="0" x2="1" y1="0" y2="0">
<stop offset="0" stop-color="#ffffff" stop-opacity="0.0998233"/>
<stop offset="1" stop-color="#ffffff" stop-opacity="0.05"/>
</linearGradient>
</defs>
<path d="M0 0L1024 0L1024 1024L0 1024L0 0Z" fill="#0d162b" fill-rule="nonzero" opacity="1" stroke="none"/>
<g id="Logo">
<g opacity="1">
<g opacity="1">
<g opacity="1">
<path d="M313.873 516.611C317.455 516.611 320.228 519.745 319.793 523.3L315.217 560.658C314.85 563.649 312.31 565.896 309.297 565.896L196.635 565.896C193.624 565.896 191.085 568.141 190.716 571.13L183.07 633.13C182.631 636.687 185.405 639.824 188.989 639.824L250.881 639.824C253.9 639.824 256.443 637.568 256.802 634.571L256.85 634.177C257.276 630.627 254.504 627.503 250.928 627.503L202.8 627.503C199.213 627.503 196.437 624.359 196.882 620.799L201.552 583.442C201.925 580.457 204.462 578.218 207.469 578.218L306.352 578.218C309.935 578.218 312.709 581.355 312.271 584.912L300.065 683.876C299.697 686.864 297.158 689.109 294.146 689.109L133.663 689.109C130.081 689.109 127.307 685.974 127.744 682.418L147.471 521.848C147.838 518.858 150.378 516.611 153.39 516.611L313.873 516.611Z" fill="#ffffff" fill-rule="nonzero" opacity="1" stroke="none"/>
<path d="M381.472 565.896C378.454 565.896 375.911 568.152 375.551 571.15L375.504 571.543C375.078 575.093 377.85 578.218 381.425 578.218L443.34 578.218C446.359 578.218 448.901 575.962 449.261 572.964L449.308 572.571C449.734 569.021 446.962 565.896 443.387 565.896L381.472 565.896ZM332.29 521.848C332.658 518.858 335.197 516.611 338.21 516.611L498.691 516.611C502.273 516.611 505.047 519.747 504.61 523.302L484.883 683.873C484.515 686.863 481.976 689.109 478.963 689.109L441.69 689.109C438.11 689.109 435.336 685.977 435.77 682.423L441.654 634.189C442.088 630.635 439.315 627.503 435.734 627.503L373.823 627.503C370.808 627.503 368.268 629.752 367.903 632.745L361.666 683.868C361.301 686.86 358.76 689.109 355.746 689.109L318.482 689.109C314.9 689.109 312.126 685.974 312.563 682.418L332.29 521.848Z" fill="#ffffff" fill-rule="nonzero" opacity="1" stroke="none"/>
<path d="M669.697 683.912C669.333 686.88 666.812 689.109 663.822 689.109L626.466 689.109C622.91 689.109 620.157 685.997 620.591 682.468L634.112 572.538C634.546 569.009 631.793 565.896 628.237 565.896L627.843 565.896C624.854 565.896 622.333 568.126 621.968 571.093L608.092 683.913C607.727 686.88 605.206 689.109 602.217 689.109L564.859 689.109C561.303 689.109 558.55 685.997 558.984 682.468L572.505 572.538C572.94 569.009 570.186 565.896 566.63 565.896L566.237 565.896C563.247 565.896 560.727 568.126 560.362 571.093L546.485 683.913C546.12 686.88 543.6 689.109 540.61 689.109L503.252 689.109C499.696 689.109 496.943 685.997 497.377 682.468L517.115 521.809C517.479 518.841 520 516.611 522.99 516.611L683.561 516.611C687.116 516.611 689.869 519.723 689.436 523.252L669.697 683.912Z" fill="#ffffff" fill-rule="nonzero" opacity="1" stroke="none"/>
<path d="M868.332 516.611C871.914 516.611 874.687 519.745 874.252 523.3L869.675 560.658C869.309 563.649 866.769 565.896 863.756 565.896L751.112 565.896C748.093 565.896 745.55 568.152 745.19 571.15L745.143 571.543C744.717 575.093 747.489 578.218 751.064 578.218L860.799 578.218C864.387 578.218 867.162 581.362 866.717 584.921L862.048 622.279C861.674 625.263 859.137 627.503 856.13 627.503L743.472 627.503C740.454 627.503 737.911 629.759 737.551 632.756L737.504 633.15C737.078 636.7 739.85 639.824 743.425 639.824L853.177 639.824C856.758 639.824 859.532 642.958 859.097 646.513L854.52 683.871C854.154 686.862 851.614 689.109 848.601 689.109L688.122 689.109C684.539 689.109 681.765 685.974 682.202 682.418L701.93 521.848C702.297 518.858 704.836 516.611 707.849 516.611L868.332 516.611Z" fill="#ffffff" fill-rule="nonzero" opacity="1" stroke="none"/>
</g>
<g opacity="1">
<path d="M335.881 334.891C339.462 334.891 342.236 338.025 341.8 341.58L337.224 378.937C336.858 381.928 334.318 384.176 331.304 384.176L218.643 384.176C215.631 384.176 213.092 386.421 212.724 389.41L205.077 451.41C204.638 454.966 207.413 458.104 210.996 458.104L272.888 458.104C275.907 458.104 278.45 455.848 278.81 452.85L278.857 452.457C279.283 448.907 276.511 445.782 272.936 445.782L224.807 445.782C221.22 445.782 218.444 442.638 218.889 439.079L223.559 401.721C223.932 398.737 226.469 396.497 229.477 396.497L328.359 396.497C331.942 396.497 334.717 399.635 334.278 403.191L322.073 502.155C321.704 505.144 319.165 507.389 316.154 507.389L155.67 507.389C152.088 507.389 149.314 504.253 149.751 500.698L169.478 340.127C169.845 337.137 172.385 334.891 175.397 334.891L335.881 334.891Z" fill="#ffffff" fill-rule="nonzero" opacity="1" stroke="none"/>
<path d="M403.459 384.176C400.449 384.176 397.912 386.419 397.544 389.406L389.896 451.414C389.458 454.968 392.23 458.104 395.811 458.104L457.729 458.104C460.738 458.104 463.276 455.86 463.644 452.873L471.292 390.865C471.73 387.311 468.957 384.176 465.376 384.176L403.459 384.176ZM354.298 340.124C354.665 337.136 357.203 334.891 360.214 334.891L520.702 334.891C524.282 334.891 527.054 338.024 526.618 341.577L506.89 502.156C506.523 505.144 503.985 507.389 500.974 507.389L340.485 507.389C336.906 507.389 334.133 504.255 334.57 500.702L354.298 340.124Z" fill="#ffffff" fill-rule="nonzero" opacity="1" stroke="none"/>
<path d="M588.279 384.176C585.269 384.176 582.732 386.419 582.363 389.406L574.716 451.414C574.277 454.968 577.05 458.104 580.631 458.104L642.548 458.104C645.558 458.104 648.095 455.86 648.464 452.873L656.111 390.865C656.55 387.311 653.777 384.176 650.196 384.176L588.279 384.176ZM539.118 340.124C539.485 337.136 542.023 334.891 545.033 334.891L705.522 334.891C709.102 334.891 711.874 338.024 711.437 341.577L691.709 502.156C691.342 505.144 688.804 507.389 685.794 507.389L525.305 507.389C521.725 507.389 518.953 504.255 519.39 500.702L539.118 340.124Z" fill="#ffffff" fill-rule="nonzero" opacity="1" stroke="none"/>
<path d="M840.931 390.865C841.369 387.311 838.597 384.176 835.016 384.176L725.277 384.176C721.698 384.176 718.926 381.044 719.362 377.491L723.939 340.126C724.305 337.137 726.843 334.891 729.855 334.891L890.341 334.891C893.921 334.891 896.694 338.024 896.257 341.577L876.529 502.156C876.162 505.144 873.624 507.389 870.613 507.389L710.128 507.389C706.547 507.389 703.774 504.253 704.213 500.699L716.419 401.728C716.788 398.741 719.325 396.497 722.334 396.497L759.605 396.497C763.187 396.497 765.96 399.635 765.519 403.19L759.54 451.41C759.099 454.966 761.872 458.104 765.455 458.104L827.368 458.104C830.377 458.104 832.915 455.86 833.283 452.873L840.931 390.865Z" fill="#ffffff" fill-rule="nonzero" opacity="1" stroke="none"/>
</g>
<g opacity="1">
<g opacity="1">
<path d="M313.873 516.611C317.455 516.611 320.228 519.745 319.793 523.3L315.217 560.658C314.85 563.649 312.31 565.896 309.297 565.896L196.635 565.896C193.624 565.896 191.085 568.141 190.716 571.13L183.07 633.13C182.631 636.687 185.405 639.824 188.989 639.824L250.881 639.824C253.9 639.824 256.443 637.568 256.802 634.571L256.85 634.177C257.276 630.627 254.504 627.503 250.928 627.503L202.8 627.503C199.213 627.503 196.437 624.359 196.882 620.799L201.552 583.442C201.925 580.457 204.462 578.218 207.469 578.218L306.352 578.218C309.935 578.218 312.709 581.355 312.271 584.912L300.065 683.876C299.697 686.864 297.158 689.109 294.146 689.109L133.663 689.109C130.081 689.109 127.307 685.974 127.744 682.418L147.471 521.848C147.838 518.858 150.378 516.611 153.39 516.611L313.873 516.611Z" fill="url(#LinearGradient)" fill-rule="nonzero" stroke="none"/>
<path d="M153.641 516.529C153.308 516.53 152.978 516.537 152.647 516.577C151.224 516.75 149.886 517.462 148.931 518.529C147.453 520.179 147.406 522.219 147.148 524.318C146.994 525.572 146.838 526.828 146.684 528.082C145.965 533.937 145.247 539.788 144.527 545.642C141.703 568.629 138.871 591.615 136.04 614.601C133.827 632.57 131.615 650.539 129.402 668.508C128.939 672.269 128.473 676.029 128.01 679.79C127.668 682.571 127.176 685.046 129.185 687.32C131.4 689.828 134.375 689.346 137.425 689.35C141.187 689.354 144.953 689.358 148.714 689.362C166.685 689.382 184.655 689.401 202.626 689.416C226.448 689.436 250.27 689.447 274.092 689.458C279.525 689.461 284.959 689.462 290.392 689.464C293.404 689.465 296.4 689.943 298.62 687.464C299.912 686.023 300.097 684.365 300.325 682.519C300.452 681.488 300.578 680.459 300.705 679.429C301.15 675.821 301.597 672.212 302.042 668.604C303.886 653.658 305.728 638.716 307.572 623.769C308.78 613.976 309.99 604.179 311.198 594.386C311.516 591.808 311.832 589.234 312.15 586.657C312.362 584.939 312.589 583.302 311.933 581.652C311.726 581.13 311.438 580.638 311.096 580.194C310.152 578.97 308.758 578.137 307.228 577.911C306.437 577.794 305.583 577.85 304.801 577.851C303.771 577.851 302.741 577.85 301.711 577.851C297.076 577.851 292.443 577.85 287.808 577.851C266.177 577.853 244.545 577.859 222.914 577.869C218.794 577.87 214.674 577.873 210.554 577.875C209.293 577.875 207.978 577.764 206.722 577.917C204.767 578.156 203.144 579.364 202.181 581.049C201.588 582.086 201.488 583.269 201.343 584.428C201.197 585.596 201.049 586.76 200.903 587.928C200.417 591.821 199.932 595.715 199.446 599.608C198.717 605.448 197.988 611.286 197.259 617.125C197.072 618.624 196.738 620.175 196.771 621.691C196.817 623.763 197.809 625.725 199.566 626.86C201.457 628.08 203.66 627.807 205.813 627.805C208.32 627.803 210.824 627.802 213.33 627.799C223.357 627.79 233.386 627.775 243.413 627.763C244.917 627.761 246.421 627.759 247.925 627.757C249.335 627.755 250.832 627.589 252.226 627.896C254.38 628.369 256.156 630.07 256.689 632.215C256.87 632.939 256.878 633.684 256.762 634.419C256.648 635.136 256.471 635.792 256.129 636.437C255.796 637.065 255.359 637.616 254.828 638.088C253.007 639.707 251.233 639.591 248.943 639.594C247.653 639.595 246.365 639.598 245.076 639.6C243.786 639.601 242.498 639.604 241.208 639.606C227.025 639.623 212.84 639.641 198.657 639.66C197.367 639.662 196.079 639.664 194.789 639.666C193.5 639.668 192.212 639.67 190.922 639.672C190.046 639.673 189.017 639.745 188.109 639.612C186.592 639.39 185.203 638.572 184.266 637.359C184.017 637.036 183.799 636.684 183.621 636.317C183.386 635.832 183.217 635.313 183.127 634.781C182.93 633.613 183.19 632.417 183.332 631.263C183.571 629.324 183.811 627.389 184.049 625.45C184.844 618.988 185.639 612.522 186.434 606.06C187.548 597.013 188.664 587.969 189.778 578.923C190.016 576.985 190.256 575.048 190.494 573.11C190.729 571.205 190.856 569.445 192.187 567.96C193.988 565.949 195.923 565.972 198.398 565.972C199.571 565.972 200.742 565.972 201.915 565.972C208.957 565.972 215.999 565.972 223.041 565.972C243.578 565.972 264.114 565.972 284.651 565.972C291.106 565.972 297.563 565.972 304.018 565.972C305.191 565.972 306.362 565.972 307.536 565.972C308.879 565.972 310.174 566.064 311.445 565.574C312.112 565.317 312.717 564.945 313.252 564.472C314.316 563.53 314.785 562.492 315.059 561.358C314.586 563.201 313.218 564.739 311.439 565.424C310.169 565.913 308.878 565.821 307.536 565.821C305.775 565.821 304.013 565.821 302.253 565.821C296.385 565.821 290.519 565.821 284.651 565.821C264.114 565.821 243.578 565.821 223.041 565.821C215.999 565.821 208.957 565.821 201.915 565.821C200.742 565.821 199.571 565.821 198.398 565.821C195.92 565.821 193.985 565.801 192.181 567.815C190.837 569.316 190.702 571.102 190.464 573.026C190.146 575.608 189.826 578.195 189.507 580.778C188.39 589.815 187.275 598.848 186.157 607.885C185.359 614.339 184.558 620.797 183.76 627.251C183.6 628.542 183.444 629.828 183.284 631.118C183.127 632.393 182.872 633.663 183.085 634.943C183.203 635.646 183.444 636.325 183.796 636.943C184.699 638.528 186.303 639.644 188.109 639.913C189.017 640.048 190.045 639.978 190.922 639.979C192.856 639.982 194.795 639.983 196.729 639.985C198.018 639.987 199.307 639.99 200.596 639.991C214.78 640.01 228.964 640.028 243.148 640.046C245.082 640.048 247.015 640.049 248.949 640.052C251.498 640.055 253.502 640.128 255.358 638.052C255.684 637.687 255.942 637.309 256.171 636.877C256.537 636.188 256.724 635.486 256.846 634.721C256.973 633.923 256.981 633.102 256.846 632.305C256.725 631.592 256.482 630.902 256.123 630.275C255.217 628.693 253.61 627.58 251.804 627.311C251.027 627.196 250.189 627.246 249.419 627.245C247.915 627.243 246.411 627.247 244.907 627.245C243.904 627.244 242.904 627.24 241.901 627.239C231.874 627.227 221.845 627.218 211.819 627.209C209.312 627.207 206.808 627.205 204.301 627.203C202.596 627.202 201.053 627.207 199.578 626.251C199.12 625.954 198.705 625.595 198.343 625.185C197.493 624.221 196.933 622.962 196.904 621.667C196.881 620.66 197.11 619.626 197.235 618.631C197.332 617.853 197.427 617.078 197.524 616.3C198.255 610.465 198.986 604.63 199.717 598.795C200.204 594.905 200.688 591.017 201.175 587.127C201.272 586.349 201.372 585.568 201.47 584.79C201.604 583.718 201.692 582.639 202.241 581.682C202.596 581.061 203.003 580.518 203.542 580.043C205.213 578.569 206.899 578.56 209.017 578.561C210.047 578.562 211.078 578.561 212.108 578.561C216.228 578.563 220.348 578.566 224.468 578.567C245.584 578.577 266.698 578.583 287.814 578.585C292.964 578.586 298.115 578.585 303.265 578.585C304.569 578.586 305.938 578.46 307.234 578.652C309.289 578.955 311.091 580.364 311.861 582.296C312.572 584.081 312.045 585.97 311.818 587.808C311.501 590.385 311.185 592.959 310.867 595.536C309.659 605.33 308.448 615.126 307.24 624.92C305.397 639.869 303.553 654.818 301.711 669.767C301.266 673.375 300.824 676.983 300.379 680.591C300.107 682.797 300.136 685.033 298.578 686.772C296.372 689.235 293.373 688.753 290.38 688.753C284.947 688.755 279.513 688.757 274.08 688.76C250.258 688.771 226.436 688.788 202.614 688.808C184.644 688.823 166.672 688.835 148.702 688.856C144.523 688.861 140.346 688.869 136.166 688.874C135.051 688.875 133.89 688.976 132.781 688.814C131.403 688.612 130.126 687.916 129.203 686.874C128.331 685.89 127.778 684.605 127.745 683.284C127.729 682.621 127.859 681.929 127.938 681.284C128.041 680.447 128.143 679.609 128.245 678.772C128.707 675.006 129.169 671.237 129.631 667.472C131.836 649.479 134.04 631.491 136.245 613.499C139.065 590.489 141.881 567.476 144.708 544.467C145.427 538.613 146.151 532.762 146.871 526.908C147.025 525.653 147.174 524.397 147.328 523.143C147.535 521.459 147.766 519.994 148.943 518.679C149.896 517.615 151.226 516.901 152.647 516.728C153.714 516.598 154.829 516.686 155.9 516.686C157.572 516.686 159.24 516.686 160.912 516.686C170.942 516.686 180.976 516.686 191.007 516.686C231.963 516.686 272.916 516.686 313.873 516.686C314.743 516.715 315.576 516.866 316.372 517.234C316.996 517.521 317.564 517.914 318.053 518.396C319.126 519.456 319.786 520.915 319.824 522.426C319.837 522.95 319.784 523.478 319.716 524.004C319.817 523.177 319.911 522.367 319.77 521.529C319.273 518.573 316.802 516.635 313.873 516.535C272.498 516.535 231.122 516.535 189.748 516.535C179.717 516.535 169.689 516.535 159.659 516.535C157.987 516.535 156.313 516.535 154.641 516.535C154.308 516.535 153.975 516.528 153.641 516.529ZM315.059 561.358C315.061 561.349 315.069 561.342 315.071 561.333C315.079 561.304 315.076 561.273 315.083 561.243C315.075 561.281 315.068 561.32 315.059 561.358ZM315.083 561.243C315.288 560.347 315.39 559.399 315.517 558.364C315.708 556.807 315.899 555.252 316.089 553.695C317.186 544.745 318.282 535.792 319.378 526.842C319.474 526.063 319.566 525.289 319.661 524.51C319.681 524.348 319.696 524.189 319.716 524.029C319.646 524.555 319.556 525.077 319.493 525.595C319.397 526.373 319.305 527.154 319.21 527.932C318.113 536.882 317.011 545.829 315.915 554.78C315.724 556.336 315.539 557.891 315.348 559.448C315.276 560.036 315.22 560.658 315.083 561.243Z" fill="#fffdfb" stroke="none"/>
</g>
<g opacity="1">
<path d="M381.472 565.896C378.454 565.896 375.911 568.152 375.551 571.15L375.504 571.543C375.078 575.093 377.85 578.218 381.425 578.218L443.34 578.218C446.359 578.218 448.901 575.962 449.261 572.964L449.308 572.571C449.734 569.021 446.962 565.896 443.387 565.896L381.472 565.896ZM332.29 521.848C332.658 518.858 335.197 516.611 338.21 516.611L498.691 516.611C502.273 516.611 505.047 519.747 504.61 523.302L484.883 683.873C484.515 686.863 481.976 689.109 478.963 689.109L441.69 689.109C438.11 689.109 435.336 685.977 435.77 682.423L441.654 634.189C442.088 630.635 439.315 627.503 435.734 627.503L373.823 627.503C370.808 627.503 368.268 629.752 367.903 632.745L361.666 683.868C361.301 686.86 358.76 689.109 355.746 689.109L318.482 689.109C314.9 689.109 312.126 685.974 312.563 682.418L332.29 521.848Z" fill="url(#LinearGradient_2)" fill-rule="nonzero" stroke="none"/>
<path d="M442.03 565.544C441.208 565.548 440.362 565.585 439.513 565.589C438.223 565.596 436.933 565.604 435.644 565.613C434.354 565.621 433.064 565.631 431.774 565.641C415.006 565.775 398.24 565.821 381.471 565.821C379.522 565.877 377.7 566.748 376.568 568.383C374.205 571.794 375.646 576.838 379.715 578.045C380.9 578.396 382.142 578.293 383.361 578.293C384.651 578.293 385.94 578.29 387.23 578.293C390.455 578.299 393.681 578.334 396.906 578.363C409.161 578.476 421.416 578.571 433.671 578.585C435.606 578.587 437.54 578.587 439.475 578.587C440.765 578.588 442.055 578.594 443.345 578.587C444.806 578.58 446.222 578.05 447.318 577.075C447.682 576.751 447.989 576.41 448.266 576.009C448.531 575.626 448.784 575.148 448.951 574.713C449.194 574.077 449.312 573.413 449.38 572.738C449.467 571.878 449.437 571.014 449.229 570.171C449.058 569.477 448.766 568.815 448.368 568.22C446.769 565.832 444.499 565.535 442.03 565.544ZM395.984 565.955C400.821 565.95 405.66 565.952 410.497 565.979C418.237 566.021 425.976 566.108 433.716 566.165C435.006 566.175 436.298 566.183 437.588 566.191C438.878 566.199 440.167 566.206 441.457 566.212C442.332 566.217 443.359 566.15 444.265 566.288C445.911 566.537 447.409 567.494 448.33 568.881C448.626 569.326 448.862 569.811 449.026 570.32C449.246 571.003 449.312 571.692 449.239 572.403C449.155 573.219 448.963 573.983 448.576 574.711C448.244 575.335 447.807 575.887 447.278 576.355C445.456 577.968 443.688 577.847 441.401 577.847C440.756 577.846 440.111 577.846 439.466 577.847C438.176 577.847 436.886 577.848 435.596 577.849C434.306 577.85 433.017 577.851 431.727 577.854C419.473 577.874 407.22 577.983 394.967 578.09C391.742 578.118 388.518 578.142 385.293 578.142C384.003 578.142 382.714 578.15 381.424 578.142C380.844 578.138 380.272 578.061 379.715 577.896C374.907 576.47 373.965 569.899 378.073 567.033C379.091 566.323 380.249 566.007 381.473 565.972C386.31 565.972 391.147 565.96 395.984 565.955ZM497.79 516.46C497.261 516.457 496.726 516.471 496.183 516.472C494.511 516.475 492.841 516.481 491.169 516.484C482.811 516.5 474.448 516.508 466.089 516.52C433.91 516.567 401.735 516.538 369.555 516.538C360.361 516.538 351.166 516.538 341.971 516.538C341.136 516.538 340.297 516.538 339.462 516.538C338.549 516.538 337.64 516.487 336.747 516.713C334.31 517.329 332.646 519.379 332.275 521.805C332.275 521.805 332.276 521.81 332.275 521.811C327.241 562.79 322.209 603.764 317.174 644.743C315.942 654.774 314.703 664.805 313.467 674.836C313.209 676.926 312.954 679.019 312.696 681.108C312.43 683.273 312.351 685.075 313.75 686.892C315.878 689.656 318.833 689.234 321.977 689.239C325.859 689.246 329.742 689.256 333.623 689.263C339.446 689.274 345.267 689.283 351.09 689.293C352.254 689.295 353.422 689.297 354.587 689.299C355.992 689.302 357.274 689.283 358.547 688.613C358.975 688.388 359.347 688.126 359.709 687.807C361.849 685.917 361.774 683.431 362.098 680.783C362.424 678.123 362.747 675.462 363.073 672.802C364.311 662.693 365.55 652.583 366.787 642.474C367.112 639.813 367.436 637.154 367.762 634.493C367.985 632.67 368.113 631.201 369.387 629.78C371.234 627.719 373.226 627.803 375.76 627.806C377.695 627.809 379.634 627.81 381.568 627.812C391.242 627.823 400.911 627.828 410.585 627.836C415.744 627.841 420.906 627.845 426.065 627.848C428.645 627.85 431.225 627.853 433.805 627.854C435.885 627.855 437.561 627.744 439.288 629.034C440.625 630.033 441.579 631.642 441.623 633.331C441.655 634.55 441.367 635.81 441.22 637.015C441.036 638.522 440.85 640.028 440.666 641.535C439.378 652.085 438.09 662.632 436.802 673.181C436.496 675.693 436.188 678.211 435.881 680.723C435.798 681.402 435.686 682.079 435.653 682.763C435.571 684.468 436.071 686.169 437.212 687.458C438.142 688.508 439.428 689.215 440.817 689.42C441.869 689.575 442.966 689.48 444.025 689.48C445.578 689.48 447.13 689.48 448.683 689.48C457.613 689.479 466.542 689.475 475.472 689.474C476.249 689.474 477.025 689.474 477.802 689.474C478.688 689.474 479.566 689.519 480.432 689.299C482.442 688.79 484.068 687.231 484.693 685.261C484.945 684.467 485.007 683.634 485.108 682.811C485.211 681.975 485.313 681.138 485.415 680.301C485.775 677.374 486.133 674.448 486.493 671.52C487.622 662.318 488.753 653.115 489.881 643.912C493.422 615.04 496.958 586.164 500.492 557.291C501.671 547.664 502.847 538.04 504.025 528.413C504.179 527.157 504.335 525.901 504.489 524.645C504.579 523.911 504.706 523.158 504.687 522.412C504.642 520.541 503.763 518.762 502.256 517.64C500.886 516.621 499.376 516.47 497.79 516.46ZM338.101 516.689C338.554 516.672 339.006 516.689 339.462 516.689C340.715 516.689 341.97 516.689 343.223 516.689C352.417 516.689 361.613 516.689 370.807 516.689C402.987 516.689 435.167 516.654 467.347 516.701C475.706 516.713 484.063 516.727 492.421 516.743C494.093 516.746 495.769 516.752 497.441 516.755C499.271 516.758 500.731 516.804 502.25 517.941C503.653 518.991 504.578 520.667 504.621 522.431C504.648 523.524 504.405 524.642 504.272 525.723C504.117 526.976 503.963 528.225 503.809 529.478C502.623 539.086 501.436 548.694 500.252 558.302C496.748 586.716 493.246 615.13 489.749 643.545C488.617 652.741 487.485 661.938 486.354 671.135C485.994 674.061 485.637 676.99 485.277 679.916C485.174 680.752 485.073 681.59 484.97 682.426C484.878 683.171 484.826 683.933 484.597 684.653C484.42 685.207 484.159 685.734 483.826 686.212C482.879 687.573 481.345 688.498 479.698 688.698C478.69 688.82 477.64 688.74 476.628 688.74C475.852 688.74 475.075 688.74 474.299 688.74C465.369 688.738 456.44 688.74 447.51 688.74C445.956 688.74 444.404 688.74 442.851 688.74C442.178 688.74 441.482 688.773 440.811 688.673C439.436 688.471 438.163 687.781 437.242 686.741C435.263 684.507 435.871 682.355 436.206 679.603C436.574 676.588 436.946 673.578 437.314 670.563C438.54 660.513 439.76 650.46 440.985 640.409C441.169 638.902 441.355 637.391 441.539 635.883C441.643 635.03 441.795 634.156 441.774 633.289C441.726 631.35 440.869 629.499 439.3 628.33C437.563 627.035 435.883 627.149 433.793 627.15C433.148 627.15 432.506 627.15 431.861 627.15C429.926 627.151 427.994 627.155 426.059 627.156C420.9 627.16 415.738 627.164 410.579 627.168C400.905 627.176 391.23 627.187 381.556 627.198C379.622 627.201 377.689 627.202 375.754 627.204C373.203 627.207 371.206 627.137 369.351 629.215C367.724 631.037 367.74 633.49 367.461 635.787C367.201 637.919 366.938 640.053 366.678 642.185C365.382 652.845 364.086 663.503 362.79 674.162C362.531 676.294 362.273 678.428 362.014 680.56C361.696 683.173 361.792 685.55 359.69 687.416C359.331 687.735 358.96 687.997 358.535 688.222C356.928 689.074 355.173 688.917 353.413 688.92C352.248 688.922 351.087 688.924 349.922 688.926C344.488 688.936 339.052 688.947 333.617 688.956C329.736 688.963 325.853 688.974 321.971 688.98C318.842 688.986 315.887 689.418 313.762 686.669C312.111 684.534 312.582 682.473 312.889 679.964C313.145 677.872 313.403 675.779 313.659 673.687C314.889 663.647 316.121 653.609 317.355 643.569C322.338 603.01 327.322 562.454 332.305 521.895C332.305 521.895 332.306 521.889 332.305 521.889C332.673 519.488 334.349 517.472 336.753 516.863C337.199 516.75 337.649 516.705 338.101 516.689Z" fill="#fffdfb" stroke="none"/>
</g>
<g opacity="1">
<path d="M669.697 683.912C669.333 686.88 666.812 689.109 663.822 689.109L626.466 689.109C622.91 689.109 620.157 685.997 620.591 682.468L634.112 572.538C634.546 569.009 631.793 565.896 628.237 565.896L627.843 565.896C624.854 565.896 622.333 568.126 621.968 571.093L608.092 683.913C607.727 686.88 605.206 689.109 602.217 689.109L564.859 689.109C561.303 689.109 558.55 685.997 558.984 682.468L572.505 572.538C572.94 569.009 570.186 565.896 566.63 565.896L566.237 565.896C563.247 565.896 560.727 568.126 560.362 571.093L546.485 683.913C546.12 686.88 543.6 689.109 540.61 689.109L503.252 689.109C499.696 689.109 496.943 685.997 497.377 682.468L517.115 521.809C517.479 518.841 520 516.611 522.99 516.611L683.561 516.611C687.116 516.611 689.869 519.723 689.436 523.252L669.697 683.912Z" fill="url(#LinearGradient_3)" fill-rule="nonzero" stroke="none"/>
<path d="M524.241 516.391C522.561 516.389 521.037 516.447 519.608 517.439C517.141 519.153 517.093 521.478 516.759 524.192C516.553 525.865 516.35 527.538 516.144 529.21C515.011 538.409 513.879 547.607 512.747 556.806C508.937 587.755 505.125 618.706 501.319 649.655C500.29 658.02 499.263 666.385 498.235 674.751C497.978 676.842 497.721 678.93 497.464 681.022C497.267 682.626 497.105 684.158 497.717 685.696C497.923 686.213 498.202 686.702 498.542 687.142C499.478 688.356 500.867 689.183 502.385 689.407C503.438 689.563 504.532 689.467 505.59 689.468C506.758 689.468 507.929 689.467 509.096 689.468C518.047 689.47 526.995 689.472 535.945 689.474C537.113 689.474 538.278 689.473 539.445 689.474C539.93 689.474 540.817 689.497 541.355 689.431C543.009 689.23 544.542 688.298 545.493 686.931C545.842 686.431 546.116 685.88 546.301 685.299C546.601 684.354 546.651 683.316 546.77 682.347C546.843 681.76 546.915 681.17 546.987 680.582C547.204 678.819 547.421 677.056 547.638 675.293C548.505 668.242 549.373 661.194 550.24 654.143C552.77 633.576 555.302 613.012 557.831 592.445C558.12 590.094 558.409 587.741 558.698 585.39C558.915 583.627 559.132 581.864 559.349 580.101C559.638 577.751 559.927 575.398 560.216 573.047C560.339 572.043 560.378 570.955 560.752 569.993C561.919 566.997 565.333 565.609 568.33 566.499C568.988 566.694 569.606 567.011 570.156 567.421C570.588 567.743 570.977 568.12 571.306 568.547C571.993 569.437 572.446 570.556 572.475 571.686C572.494 572.458 572.315 573.359 572.228 574.065C572.087 575.211 571.947 576.36 571.806 577.505C571.103 583.232 570.396 588.959 569.692 594.686C566.736 618.741 563.784 642.797 560.831 666.853C560.62 668.572 560.409 670.291 560.198 672.01C559.987 673.728 559.776 675.442 559.565 677.16C559.425 678.306 559.284 679.454 559.144 680.6C559.034 681.493 558.857 682.439 558.879 683.353C558.917 684.971 559.54 686.536 560.698 687.678C560.989 687.966 561.312 688.222 561.656 688.443C562.12 688.743 562.626 688.979 563.156 689.136C564.458 689.522 565.861 689.379 567.198 689.377C569.533 689.374 571.869 689.368 574.204 689.365C581.597 689.356 588.991 689.35 596.384 689.341C597.941 689.339 599.496 689.337 601.053 689.335C601.537 689.334 602.419 689.353 602.957 689.287C604.372 689.113 605.7 688.403 606.649 687.341C607.973 685.86 608.116 684.158 608.348 682.263C608.492 681.087 608.638 679.909 608.782 678.733C609.359 674.029 609.934 669.329 610.511 664.624C612.819 645.808 615.129 626.989 617.438 608.173C618.737 597.59 620.037 587.01 621.336 576.427C621.48 575.251 621.619 574.072 621.764 572.897C621.891 571.855 621.943 570.736 622.33 569.74C623.45 566.855 626.596 565.464 629.528 566.114C631.968 566.654 633.873 568.77 634.113 571.264C634.207 572.244 634.002 573.255 633.884 574.216C633.813 574.788 633.743 575.36 633.673 575.933C632.898 582.231 632.128 588.532 631.354 594.83C628.889 614.869 626.421 634.905 623.956 654.944C623.182 661.242 622.406 667.543 621.631 673.841C621.349 676.131 621.069 678.418 620.788 680.709C620.663 681.724 620.46 682.763 620.559 683.793C620.626 684.497 620.817 685.192 621.125 685.829C621.363 686.321 621.667 686.775 622.029 687.184C622.948 688.224 624.221 688.921 625.595 689.124C626.266 689.223 626.965 689.184 627.637 689.184C628.804 689.184 629.969 689.184 631.137 689.184C640.865 689.184 650.595 689.184 660.323 689.184C661.102 689.184 661.876 689.184 662.655 689.184C663.536 689.184 664.413 689.228 665.275 689.01C667.694 688.398 669.341 686.363 669.709 683.956C669.71 683.955 669.708 683.946 669.709 683.943C669.71 683.944 669.714 683.95 669.715 683.95C674.701 643.366 679.686 602.787 684.672 562.204C685.957 551.744 687.243 541.284 688.528 530.825C688.785 528.733 689.036 526.64 689.293 524.548C689.538 522.555 689.658 520.926 688.498 519.18C687.576 517.794 686.078 516.839 684.431 516.596C683.733 516.493 683.003 516.536 682.305 516.536C681.469 516.536 680.635 516.536 679.799 516.536C675.199 516.536 670.598 516.536 665.998 516.536C645.09 516.536 624.184 516.503 603.276 516.482C582.786 516.461 562.296 516.434 541.807 516.409C536.789 516.403 531.771 516.397 526.753 516.391C525.916 516.39 525.077 516.392 524.241 516.391ZM682.745 516.656C683.312 516.652 683.878 516.665 684.431 516.747C686.074 516.989 687.567 517.942 688.486 519.325C689.872 521.411 689.402 523.367 689.112 525.723C688.855 527.814 688.598 529.908 688.341 532C687.107 542.041 685.876 552.078 684.642 562.12C679.656 602.703 674.671 643.288 669.685 683.871C669.32 686.254 667.655 688.255 665.269 688.859C664.407 689.077 663.536 689.034 662.655 689.034C661.876 689.034 661.096 689.034 660.317 689.034C650.589 689.034 640.865 689.034 631.137 689.034C629.97 689.034 628.798 689.034 627.631 689.034C626.959 689.034 626.265 689.073 625.595 688.974C624.087 688.751 622.706 687.933 621.776 686.727C621.445 686.298 621.175 685.82 620.974 685.317C620.773 684.812 620.641 684.28 620.589 683.739C620.495 682.759 620.7 681.754 620.818 680.793C620.888 680.22 620.958 679.643 621.029 679.07C621.24 677.352 621.45 675.637 621.661 673.92C622.436 667.621 623.212 661.326 623.986 655.028C626.451 634.989 628.913 614.948 631.378 594.908C632.153 588.61 632.928 582.309 633.703 576.011C633.844 574.865 633.992 573.724 634.125 572.577C634.177 572.123 634.186 571.672 634.143 571.216C633.901 568.684 632.019 566.515 629.528 565.963C626.585 565.311 623.435 566.713 622.312 569.608C621.919 570.621 621.87 571.751 621.739 572.812C621.595 573.987 621.444 575.162 621.3 576.336C619.924 587.494 618.549 598.654 617.173 609.812C614.856 628.602 612.539 647.394 610.222 666.185C609.642 670.882 609.066 675.577 608.487 680.275C608.201 682.593 608.273 685.082 606.625 686.919C605.68 687.973 604.358 688.671 602.951 688.841C601.942 688.962 600.891 688.884 599.878 688.883C598.322 688.881 596.766 688.879 595.21 688.877C587.816 688.868 580.423 688.862 573.029 688.853C571.083 688.851 569.138 688.843 567.192 688.841C565.857 688.839 564.461 688.982 563.162 688.594C562.503 688.398 561.88 688.078 561.331 687.666C560.897 687.342 560.51 686.962 560.18 686.534C559.477 685.621 559.028 684.486 558.999 683.329C558.98 682.54 559.156 681.634 559.246 680.901C559.387 679.757 559.533 678.612 559.674 677.468C560.379 671.745 561.083 666.022 561.788 660.299C564.75 636.261 567.708 612.224 570.668 588.186C570.879 586.468 571.095 584.746 571.306 583.029C571.518 581.312 571.727 579.596 571.939 577.879C572.08 576.734 572.22 575.59 572.361 574.445C572.473 573.534 572.647 572.58 572.626 571.65C572.587 570.005 571.972 568.41 570.794 567.246C570.503 566.958 570.181 566.704 569.836 566.481C569.371 566.181 568.861 565.94 568.33 565.782C565.281 564.875 561.851 566.319 560.674 569.361C560.269 570.408 560.213 571.564 560.078 572.662C560.005 573.249 559.933 573.839 559.861 574.427C559.571 576.777 559.282 579.125 558.993 581.475C558.776 583.237 558.56 585.001 558.343 586.764C558.126 588.527 557.909 590.29 557.692 592.053C555.089 613.206 552.486 634.357 549.885 655.51C549.09 661.974 548.294 668.438 547.499 674.901C547.21 677.252 546.921 679.605 546.632 681.956C546.524 682.837 546.481 683.81 546.204 684.678C546.029 685.229 545.769 685.752 545.439 686.227C544.499 687.578 542.978 688.503 541.343 688.702C540.335 688.825 539.283 688.744 538.271 688.745C537.492 688.745 536.712 688.744 535.933 688.745C526.594 688.746 517.255 688.748 507.916 688.751C506.748 688.751 505.583 688.75 504.416 688.751C503.744 688.751 503.049 688.789 502.379 688.69C500.878 688.469 499.499 687.656 498.572 686.456C498.247 686.035 497.98 685.564 497.783 685.07C497.137 683.45 497.547 681.829 497.753 680.148C498.01 678.056 498.267 675.964 498.524 673.871C499.552 665.502 500.575 657.133 501.602 648.763C505.404 617.791 509.208 586.816 513.006 555.843C514.135 546.633 515.262 537.42 516.391 528.21C516.597 526.536 516.801 524.861 517.006 523.186C517.278 520.969 517.639 519.271 519.626 517.885C521.05 516.893 522.571 516.833 524.247 516.831C525.501 516.83 526.757 516.832 528.012 516.831C533.029 516.825 538.048 516.819 543.066 516.813C563.137 516.789 583.205 516.761 603.276 516.741C624.601 516.719 645.925 516.686 667.251 516.686C671.851 516.686 676.452 516.686 681.052 516.686C681.609 516.686 682.178 516.661 682.745 516.656Z" fill="#fffdfb" stroke="none"/>
</g>
<g opacity="1">
<path d="M868.332 516.611C871.914 516.611 874.687 519.745 874.252 523.3L869.675 560.658C869.309 563.649 866.769 565.896 863.756 565.896L751.112 565.896C748.093 565.896 745.55 568.152 745.19 571.15L745.143 571.543C744.717 575.093 747.489 578.218 751.064 578.218L860.799 578.218C864.387 578.218 867.162 581.362 866.717 584.921L862.048 622.279C861.674 625.263 859.137 627.503 856.13 627.503L743.472 627.503C740.454 627.503 737.911 629.759 737.551 632.756L737.504 633.15C737.078 636.7 739.85 639.824 743.425 639.824L853.177 639.824C856.758 639.824 859.532 642.958 859.097 646.513L854.52 683.871C854.154 686.862 851.614 689.109 848.601 689.109L688.122 689.109C684.539 689.109 681.765 685.974 682.202 682.418L701.93 521.848C702.297 518.858 704.836 516.611 707.849 516.611L868.332 516.611Z" fill="url(#LinearGradient_4)" fill-rule="nonzero" stroke="none"/>
<path d="M709.102 516.535C707.087 516.535 705.478 516.636 703.896 518.035C701.697 519.981 701.787 522.869 701.455 525.568C700.941 529.75 700.426 533.934 699.912 538.115C697.653 556.507 695.385 574.896 693.12 593.287C690.342 615.853 687.565 638.422 684.786 660.988C684.065 666.838 683.343 672.686 682.622 678.536C682.304 681.118 681.552 683.905 682.924 686.311C683.828 687.896 685.436 689.013 687.245 689.282C688.354 689.447 689.515 689.347 690.631 689.348C691.885 689.349 693.138 689.352 694.392 689.354C703.586 689.364 712.781 689.375 721.975 689.384C752.901 689.414 783.831 689.435 814.757 689.45C823.533 689.455 832.304 689.459 841.081 689.462C843.17 689.463 845.264 689.462 847.354 689.462C848.792 689.463 850.107 689.456 851.41 688.769C851.838 688.543 852.21 688.282 852.573 687.962C854.533 686.227 854.577 684.154 854.875 681.724C855.066 680.168 855.257 678.616 855.447 677.06C856.544 668.111 857.641 659.162 858.738 650.212C858.944 648.533 859.345 646.771 859.184 645.072C858.935 642.449 857.081 640.177 854.477 639.6C853.491 639.382 852.455 639.455 851.458 639.455C850.886 639.455 850.312 639.455 849.74 639.455C848.026 639.455 846.315 639.455 844.6 639.455C838.312 639.455 832.019 639.456 825.731 639.455C805.153 639.454 784.575 639.451 763.997 639.455C761.71 639.456 759.425 639.461 757.139 639.461C755.424 639.462 753.707 639.461 751.992 639.461C750.849 639.462 749.706 639.461 748.563 639.461C747.42 639.462 746.277 639.461 745.134 639.461C744.312 639.461 743.389 639.525 742.549 639.401C740.905 639.159 739.404 638.21 738.481 636.828C738.185 636.384 737.952 635.901 737.788 635.393C737.611 634.846 737.511 634.265 737.541 633.688C737.59 632.752 737.792 631.838 738.234 631.006C738.566 630.381 739.007 629.825 739.536 629.355C741.307 627.783 743.013 627.861 745.237 627.86C746.41 627.86 747.583 627.855 748.756 627.854C757.557 627.851 766.363 627.847 775.164 627.842C796.287 627.831 817.408 627.819 838.531 627.8C843.225 627.796 847.921 627.793 852.615 627.788C855.594 627.785 858.416 628.212 860.594 625.781C861.78 624.458 862.034 622.953 862.245 621.256C862.391 620.087 862.534 618.922 862.679 617.754C863.407 611.913 864.138 606.07 864.867 600.229C865.352 596.335 865.84 592.438 866.325 588.544C866.602 586.328 867.227 583.953 866.367 581.789C866.162 581.272 865.881 580.783 865.542 580.342C864.6 579.121 863.206 578.288 861.679 578.064C860.836 577.941 859.907 578.009 859.081 578.01C857.938 578.012 856.796 578.009 855.652 578.01C851.08 578.016 846.509 578.022 841.936 578.028C818.504 578.059 795.071 578.092 771.638 578.119C765.923 578.125 760.208 578.131 754.493 578.137C753.35 578.138 752.207 578.144 751.064 578.137C750.626 578.134 750.197 578.092 749.769 577.998C747.59 577.519 745.815 575.794 745.279 573.629C745.082 572.832 745.078 572.003 745.207 571.194C745.323 570.461 745.501 569.793 745.851 569.133C746.186 568.503 746.626 567.943 747.159 567.47C749.296 565.574 751.971 565.969 754.632 565.969C755.805 565.969 756.978 565.969 758.151 565.969C759.325 565.969 760.497 565.969 761.671 565.969C763.431 565.969 765.196 565.969 766.956 565.969C768.716 565.969 770.475 565.969 772.235 565.969C792.769 565.969 813.303 565.969 833.837 565.969C840.877 565.969 847.919 565.969 854.959 565.969C857.306 565.969 859.651 565.969 861.998 565.969C862.833 565.969 863.671 566.028 864.499 565.927C865.213 565.84 865.918 565.618 866.554 565.282C866.981 565.057 867.35 564.794 867.711 564.475C869.645 562.763 869.684 560.761 869.977 558.364C870.12 557.197 870.262 556.03 870.405 554.863C871.549 545.523 872.696 536.179 873.84 526.84C873.935 526.062 874.028 525.286 874.123 524.508C874.247 523.5 874.396 522.534 874.226 521.525C873.729 518.569 871.262 516.635 868.332 516.535C827.793 516.535 787.252 516.535 746.713 516.535C736.265 516.535 725.818 516.535 715.37 516.535C713.28 516.535 711.192 516.535 709.102 516.535ZM708.602 516.679C709.17 516.673 709.752 516.685 710.356 516.685C712.446 516.685 714.54 516.685 716.629 516.685C726.66 516.685 736.689 516.685 746.719 516.685C787.258 516.685 827.793 516.685 868.332 516.685C869.203 516.715 870.031 516.867 870.827 517.234C871.45 517.522 872.026 517.914 872.514 518.397C873.587 519.456 874.243 520.911 874.28 522.423C874.306 523.478 874.076 524.55 873.949 525.592C873.853 526.371 873.761 527.152 873.665 527.931C872.521 537.27 871.374 546.608 870.23 555.947C870.087 557.115 869.945 558.281 869.802 559.449C869.531 561.664 869.132 563.385 867.151 564.764C866.753 565.041 866.349 565.247 865.897 565.421C865.437 565.598 864.989 565.717 864.499 565.777C863.106 565.946 861.632 565.819 860.232 565.819C857.886 565.819 855.54 565.819 853.194 565.819C846.74 565.819 840.284 565.819 833.831 565.819C813.297 565.819 792.763 565.819 772.229 565.819C769.882 565.819 767.537 565.819 765.19 565.819C763.43 565.819 761.671 565.819 759.911 565.819C757.564 565.819 755.219 565.819 752.872 565.819C750.39 565.819 748.45 565.805 746.647 567.825C746.323 568.189 746.061 568.564 745.833 568.995C745.476 569.669 745.295 570.355 745.176 571.104C745.038 571.978 745.048 572.876 745.261 573.737C745.8 575.918 747.573 577.667 749.769 578.155C750.752 578.373 751.787 578.298 752.782 578.299C753.353 578.3 753.922 578.299 754.493 578.299C759.066 578.304 763.637 578.307 768.209 578.311C792.214 578.336 816.22 578.37 840.225 578.402C845.94 578.409 851.66 578.418 857.376 578.426C858.519 578.427 859.662 578.422 860.805 578.432C861.244 578.436 861.672 578.481 862.101 578.577C864.389 579.087 866.256 580.995 866.645 583.319C866.855 584.58 866.536 585.888 866.379 587.134C866.087 589.467 865.798 591.798 865.506 594.131C864.628 601.131 863.749 608.133 862.872 615.133C862.677 616.688 862.482 618.242 862.287 619.797C861.96 622.408 861.885 624.526 859.509 626.173C857.47 627.587 854.948 627.224 852.603 627.222C847.909 627.217 843.22 627.208 838.525 627.204C819.749 627.187 800.973 627.178 782.197 627.167C771.048 627.161 759.899 627.154 748.75 627.149C747.577 627.149 746.404 627.15 745.231 627.149C742.743 627.149 740.796 627.13 738.987 629.156C738.66 629.523 738.398 629.903 738.168 630.337C737.796 631.038 737.611 631.753 737.487 632.531C737.352 633.375 737.344 634.243 737.487 635.086C737.61 635.812 737.856 636.52 738.222 637.159C739.13 638.744 740.739 639.857 742.549 640.124C743.391 640.248 744.321 640.184 745.146 640.184C746.29 640.185 747.432 640.19 748.575 640.191C754.292 640.192 760.01 640.19 765.726 640.191C785.733 640.193 805.737 640.198 825.743 640.197C832.031 640.196 838.318 640.191 844.606 640.191C846.892 640.19 849.184 640.191 851.47 640.191C852.464 640.19 853.494 640.117 854.477 640.335C855.156 640.485 855.809 640.753 856.394 641.131C856.851 641.426 857.268 641.783 857.629 642.191C858.466 643.137 859.031 644.383 859.063 645.656C859.089 646.652 858.858 647.668 858.738 648.652C858.595 649.819 858.453 650.991 858.31 652.159C857.262 660.721 856.212 669.281 855.164 677.843C854.974 679.4 854.788 680.957 854.598 682.514C854.526 683.104 854.481 683.741 854.333 684.328C853.931 685.919 852.831 687.298 851.38 688.064C849.725 688.938 847.898 688.757 846.088 688.757C843.999 688.758 841.911 688.757 839.821 688.757C831.045 688.76 822.268 688.765 813.492 688.769C782.566 688.784 751.641 688.806 720.715 688.836C711.521 688.845 702.326 688.855 693.132 688.866C691.879 688.867 690.626 688.87 689.372 688.872C688.673 688.873 687.944 688.914 687.245 688.812C685.455 688.549 683.852 687.452 682.954 685.883C682.054 684.31 682.187 683.021 682.399 681.285C682.553 680.029 682.704 678.773 682.857 677.518C683.575 671.66 684.297 665.803 685.015 659.945C687.732 637.769 690.45 615.59 693.169 593.414C695.425 575.007 697.681 556.599 699.942 538.194C700.456 534.012 700.965 529.834 701.479 525.653C701.809 522.971 701.718 520.112 703.902 518.18C705.351 516.898 706.9 516.699 708.602 516.679Z" fill="#fffdfb" stroke="none"/>
</g>
</g>
<g opacity="1">
<g opacity="1">
<path d="M335.881 334.891C339.462 334.891 342.236 338.025 341.8 341.58L337.224 378.937C336.858 381.928 334.318 384.176 331.304 384.176L218.643 384.176C215.631 384.176 213.092 386.421 212.724 389.41L205.077 451.41C204.638 454.966 207.413 458.104 210.996 458.104L272.888 458.104C275.907 458.104 278.45 455.848 278.81 452.85L278.857 452.457C279.283 448.907 276.511 445.782 272.936 445.782L224.807 445.782C221.22 445.782 218.444 442.638 218.889 439.079L223.559 401.721C223.932 398.737 226.469 396.497 229.477 396.497L328.359 396.497C331.942 396.497 334.717 399.635 334.278 403.191L322.073 502.155C321.704 505.144 319.165 507.389 316.154 507.389L155.67 507.389C152.088 507.389 149.314 504.253 149.751 500.698L169.478 340.127C169.845 337.137 172.385 334.891 175.397 334.891L335.881 334.891Z" fill="url(#LinearGradient_5)" fill-rule="nonzero" stroke="none"/>
<path d="M175.652 334.805C175.319 334.806 174.983 334.819 174.652 334.859C173.228 335.033 171.896 335.744 170.941 336.811C169.464 338.461 169.416 340.495 169.158 342.594C169.004 343.848 168.849 345.104 168.695 346.359C167.975 352.213 167.257 358.07 166.538 363.924C163.714 386.911 160.876 409.897 158.045 432.883C155.831 450.852 153.62 468.821 151.406 486.79C150.943 490.551 150.478 494.311 150.015 498.072C149.673 500.853 149.187 503.322 151.196 505.596C153.411 508.104 156.386 507.622 159.436 507.626C163.198 507.63 166.957 507.634 170.719 507.638C188.69 507.658 206.66 507.677 224.631 507.692C248.453 507.712 272.275 507.723 296.097 507.734C301.53 507.737 306.964 507.738 312.397 507.74C315.409 507.741 318.411 508.225 320.631 505.746C321.922 504.305 322.102 502.647 322.33 500.801C322.457 499.77 322.588 498.742 322.715 497.711C323.161 494.103 323.601 490.494 324.047 486.886C325.891 471.94 327.739 456.992 329.582 442.046C330.79 432.253 331.995 422.461 333.203 412.668C333.521 410.091 333.843 407.511 334.16 404.933C334.372 403.215 334.594 401.578 333.938 399.928C333.73 399.406 333.449 398.914 333.106 398.47C332.163 397.246 330.763 396.419 329.233 396.193C328.442 396.076 327.594 396.127 326.812 396.127C325.782 396.127 324.751 396.126 323.721 396.127C319.086 396.127 314.448 396.126 309.813 396.127C288.182 396.129 266.555 396.135 244.925 396.145C240.805 396.146 236.684 396.149 232.564 396.151C231.303 396.151 229.982 396.046 228.727 396.199C226.772 396.438 225.154 397.64 224.191 399.325C223.599 400.362 223.493 401.545 223.348 402.705C223.202 403.872 223.06 405.043 222.914 406.21C222.428 410.103 221.942 413.998 221.456 417.89C220.728 423.73 219.999 429.568 219.27 435.407C219.083 436.907 218.742 438.457 218.776 439.973C218.822 442.046 219.82 444.008 221.577 445.142C223.468 446.362 225.665 446.083 227.818 446.081C230.324 446.079 232.835 446.078 235.341 446.075C245.368 446.066 255.391 446.057 265.418 446.045C266.922 446.043 268.425 446.041 269.929 446.039C271.34 446.038 272.843 445.871 274.236 446.178C276.391 446.652 278.16 448.352 278.694 450.497C278.874 451.221 278.882 451.966 278.766 452.702C278.653 453.418 278.476 454.068 278.134 454.713C277.801 455.341 277.364 455.898 276.833 456.37C275.011 457.989 273.244 457.873 270.953 457.876C269.664 457.877 268.37 457.88 267.08 457.882C265.791 457.883 264.502 457.886 263.213 457.888C249.03 457.905 234.851 457.924 220.667 457.942C219.378 457.944 218.083 457.946 216.794 457.948C215.505 457.95 214.216 457.946 212.927 457.948C212.051 457.949 211.027 458.027 210.12 457.894C208.602 457.672 207.207 456.848 206.271 455.635C206.022 455.313 205.81 454.966 205.632 454.599C205.397 454.114 205.228 453.589 205.138 453.057C204.941 451.889 205.201 450.699 205.343 449.545C205.581 447.606 205.821 445.665 206.06 443.726C206.855 437.264 207.65 430.804 208.445 424.342C209.558 415.295 210.669 406.245 211.782 397.199C212.021 395.261 212.26 393.324 212.499 391.386C212.734 389.481 212.867 387.727 214.198 386.242C215.999 384.231 217.928 384.254 220.402 384.254C221.576 384.254 222.753 384.254 223.926 384.254C230.968 384.254 238.01 384.254 245.051 384.254C265.589 384.254 286.125 384.254 306.662 384.254C313.117 384.254 319.568 384.254 326.022 384.254C327.196 384.254 328.373 384.254 329.546 384.254C330.889 384.254 332.178 384.34 333.45 383.85C334.117 383.593 334.728 383.227 335.263 382.754C336.335 381.805 336.803 380.754 337.076 379.61C336.609 381.465 335.237 383.018 333.45 383.706C332.179 384.195 330.882 384.103 329.54 384.103C327.78 384.103 326.024 384.103 324.264 384.103C318.396 384.103 312.524 384.103 306.656 384.103C286.119 384.103 265.583 384.103 245.045 384.103C238.004 384.103 230.962 384.103 223.92 384.103C222.747 384.103 221.576 384.103 220.402 384.103C217.925 384.103 215.989 384.084 214.186 386.097C212.841 387.598 212.706 389.384 212.469 391.308C212.151 393.89 211.831 396.471 211.511 399.054C210.394 408.091 209.279 417.13 208.162 426.167C207.364 432.621 206.569 439.073 205.771 445.527C205.611 446.818 205.448 448.11 205.289 449.401C205.131 450.675 204.876 451.939 205.09 453.22C205.207 453.922 205.448 454.607 205.801 455.225C206.704 456.81 208.314 457.92 210.12 458.189C211.028 458.324 212.056 458.254 212.933 458.255C214.867 458.258 216.8 458.259 218.734 458.261C220.023 458.263 221.312 458.266 222.601 458.267C236.785 458.286 250.969 458.304 265.153 458.322C267.087 458.324 269.025 458.331 270.959 458.334C273.509 458.337 275.507 458.41 277.363 456.334C277.689 455.969 277.953 455.591 278.182 455.159C278.547 454.47 278.729 453.768 278.851 453.003C278.978 452.205 278.992 451.384 278.857 450.587C278.736 449.874 278.487 449.184 278.128 448.557C277.222 446.975 275.615 445.862 273.809 445.594C273.031 445.478 272.2 445.528 271.429 445.527C269.925 445.525 268.422 445.523 266.918 445.521C265.915 445.52 264.908 445.522 263.906 445.521C253.879 445.509 243.856 445.494 233.829 445.485C231.322 445.483 228.812 445.481 226.306 445.479C224.601 445.478 223.058 445.489 221.583 444.533C221.124 444.236 220.709 443.877 220.348 443.467C219.498 442.503 218.938 441.238 218.908 439.943C218.885 438.936 219.115 437.908 219.24 436.913C219.337 436.135 219.438 435.36 219.535 434.582C220.265 428.747 220.991 422.912 221.722 417.077C222.208 413.187 222.698 409.293 223.185 405.403C223.283 404.625 223.377 403.85 223.474 403.072C223.609 402 223.697 400.921 224.245 399.964C224.601 399.344 225.008 398.8 225.547 398.325C227.218 396.851 228.91 396.836 231.028 396.837C232.058 396.838 233.088 396.843 234.118 396.843C238.238 396.845 242.359 396.848 246.479 396.849C267.595 396.859 288.709 396.865 309.825 396.868C314.975 396.868 320.125 396.867 325.275 396.868C326.58 396.868 327.942 396.736 329.239 396.928C331.293 397.231 333.095 398.646 333.865 400.578C334.577 402.363 334.056 404.246 333.829 406.084C333.511 408.661 333.189 411.241 332.871 413.818C331.664 423.612 330.459 433.402 329.251 443.196C327.408 458.145 325.564 473.094 323.721 488.043C323.277 491.651 322.829 495.265 322.384 498.873C322.112 501.079 322.14 503.309 320.583 505.048C318.377 507.511 315.378 507.035 312.385 507.036C306.952 507.037 301.524 507.039 296.091 507.042C272.269 507.053 248.447 507.064 224.625 507.084C206.654 507.099 188.683 507.118 170.713 507.138C166.533 507.143 162.356 507.145 158.177 507.15C157.062 507.151 155.901 507.252 154.792 507.09C153.414 506.888 152.137 506.198 151.214 505.156C150.342 504.172 149.789 502.887 149.756 501.566C149.739 500.903 149.87 500.205 149.949 499.56C150.051 498.723 150.153 497.885 150.256 497.048C150.718 493.282 151.18 489.52 151.641 485.754C153.846 467.761 156.051 449.767 158.255 431.775C161.075 408.765 163.892 385.758 166.719 362.749C167.438 356.895 168.156 351.038 168.875 345.184C169.029 343.929 169.185 342.674 169.339 341.419C169.546 339.735 169.771 338.27 170.947 336.956C171.901 335.891 173.237 335.183 174.658 335.01C175.725 334.88 176.834 334.968 177.905 334.968C179.577 334.968 181.251 334.968 182.923 334.968C192.953 334.968 202.981 334.968 213.011 334.968C253.968 334.968 294.927 334.968 335.883 334.968C336.754 334.997 337.581 335.142 338.377 335.51C339.001 335.798 339.575 336.196 340.064 336.678C341.136 337.738 341.791 339.191 341.829 340.702C341.855 341.757 341.625 342.834 341.497 343.877C341.402 344.655 341.31 345.43 341.214 346.208C340.118 355.158 339.022 364.112 337.925 373.062C337.735 374.618 337.544 376.174 337.353 377.73C337.277 378.347 337.23 378.999 337.076 379.61C337.295 378.689 337.391 377.709 337.522 376.64C337.712 375.083 337.903 373.528 338.094 371.971C339.19 363.021 340.287 354.074 341.383 345.124C341.478 344.345 341.577 343.565 341.672 342.786C341.796 341.779 341.944 340.814 341.774 339.805C341.277 336.849 338.807 334.917 335.877 334.817C294.503 334.817 253.133 334.817 211.758 334.817C201.728 334.817 191.694 334.817 181.664 334.817C179.992 334.817 178.324 334.817 176.652 334.817C176.319 334.817 175.985 334.804 175.652 334.805Z" fill="#fffdfb" stroke="none"/>
</g>
<g opacity="1">
<path d="M403.459 384.176C400.449 384.176 397.912 386.419 397.544 389.406L389.896 451.414C389.458 454.968 392.23 458.104 395.811 458.104L457.729 458.104C460.738 458.104 463.276 455.86 463.644 452.873L471.292 390.865C471.73 387.311 468.957 384.176 465.376 384.176L403.459 384.176ZM354.298 340.124C354.665 337.136 357.203 334.891 360.214 334.891L520.702 334.891C524.282 334.891 527.054 338.024 526.618 341.577L506.89 502.156C506.523 505.144 503.985 507.389 500.974 507.389L340.485 507.389C336.906 507.389 334.133 504.255 334.57 500.702L354.298 340.124Z" fill="url(#LinearGradient_6)" fill-rule="nonzero" stroke="none"/>
<path d="M464.835 384.032C464.355 384.035 463.879 384.056 463.44 384.058C462.795 384.06 462.15 384.063 461.505 384.065C458.281 384.079 455.056 384.098 451.831 384.101C435.707 384.118 419.582 384.101 403.457 384.101C402.729 384.122 401.993 384.216 401.314 384.499C400.808 384.711 400.512 384.846 400.06 385.16C398.882 385.98 398.012 387.221 397.666 388.616C397.448 389.494 397.401 390.406 397.291 391.304C397.131 392.595 396.972 393.887 396.813 395.178C396.653 396.47 396.494 397.764 396.335 399.056C394.663 412.61 392.993 426.164 391.304 439.716C390.902 442.936 390.5 446.157 390.098 449.377C389.793 451.83 389.48 453.907 391.075 455.989C392.014 457.214 393.406 458.053 394.934 458.286C395.842 458.424 396.873 458.358 397.75 458.363C398.395 458.366 399.04 458.367 399.685 458.37C402.91 458.385 406.134 458.398 409.36 458.409C420.324 458.447 431.29 458.465 442.254 458.471C446.124 458.473 449.994 458.474 453.864 458.473C455.265 458.473 456.709 458.549 458.108 458.463C458.707 458.426 459.329 458.307 459.884 458.075C460.391 457.863 460.688 457.724 461.14 457.409C462.341 456.574 463.215 455.307 463.566 453.887C463.789 452.986 463.838 452.051 463.951 451.13C464.111 449.837 464.27 448.545 464.429 447.252C464.588 445.96 464.748 444.667 464.907 443.375C466.578 429.789 468.243 416.202 469.902 402.615C470.298 399.377 470.692 396.14 471.087 392.902C471.384 390.47 471.705 388.412 470.111 386.357C469.169 385.144 467.775 384.327 466.254 384.109C465.799 384.044 465.315 384.029 464.835 384.032ZM403.46 384.25C419.584 384.25 435.709 384.234 451.834 384.25C455.704 384.254 459.573 384.278 463.443 384.294C464.318 384.298 465.347 384.23 466.254 384.368C467.635 384.579 468.914 385.285 469.836 386.334C470.72 387.341 471.269 388.65 471.3 389.996C471.321 390.877 471.119 391.889 471.018 392.704C470.937 393.348 470.856 393.992 470.776 394.636C470.455 397.213 470.133 399.791 469.812 402.368C468.126 415.909 466.446 429.452 464.771 442.994C464.611 444.285 464.453 445.576 464.293 446.867C464.134 448.158 463.972 449.45 463.813 450.742C463.706 451.604 463.667 452.479 463.456 453.321C463.115 454.679 462.253 455.883 461.107 456.68C460.657 456.992 460.362 457.127 459.858 457.338C459.307 457.568 458.689 457.687 458.096 457.723C456.053 457.847 453.965 457.733 451.918 457.733C448.049 457.733 444.179 457.733 440.309 457.736C429.345 457.743 418.381 457.766 407.417 457.805C404.192 457.817 400.967 457.831 397.743 457.846C396.867 457.85 395.839 457.927 394.932 457.797C393.419 457.581 392.032 456.768 391.095 455.562C389.588 453.619 389.889 451.887 390.17 449.578C390.249 448.93 390.328 448.28 390.407 447.632C390.723 445.042 391.039 442.451 391.355 439.86C393.011 426.283 394.689 412.71 396.363 399.135C396.602 397.198 396.841 395.258 397.08 393.321C397.239 392.03 397.378 390.736 397.558 389.448C397.631 388.923 397.715 388.541 397.907 388.045C398.81 385.724 401.026 384.321 403.46 384.25ZM520.047 334.69C519.451 334.681 518.83 334.695 518.19 334.696C516.936 334.699 515.683 334.705 514.429 334.708C506.489 334.726 498.548 334.745 490.608 334.762C457.591 334.834 424.578 334.816 391.561 334.816C382.366 334.816 373.167 334.816 363.973 334.816C363.137 334.816 362.303 334.816 361.467 334.816C360.555 334.816 359.644 334.764 358.752 334.99C356.317 335.607 354.652 337.655 354.282 340.079C354.281 340.079 354.282 340.084 354.282 340.085C349.196 381.482 344.126 422.88 339.022 464.275C337.785 474.301 336.552 484.33 335.315 494.357C335.109 496.028 334.902 497.696 334.696 499.367C334.606 500.099 334.474 500.848 334.492 501.59C334.526 503.041 335.056 504.447 336.018 505.537C336.944 506.588 338.225 507.295 339.61 507.502C340.72 507.668 341.877 507.566 342.993 507.568C344.247 507.571 345.506 507.578 346.76 507.58C354.701 507.596 362.64 507.607 370.581 507.622C403.599 507.686 436.616 507.733 469.634 507.748C478.829 507.753 488.022 507.753 497.216 507.754C498.052 507.755 498.892 507.76 499.728 507.76C500.641 507.761 501.55 507.806 502.443 507.58C504.732 507.001 506.469 505.078 506.895 502.774C507.226 500.986 507.352 499.141 507.574 497.337C507.934 494.41 508.296 491.48 508.656 488.553C509.786 479.352 510.914 470.153 512.044 460.953C515.434 433.34 518.823 405.729 522.203 378.115C523.433 368.069 524.663 358.02 525.892 347.973C526.097 346.299 526.3 344.625 526.505 342.951C526.597 342.204 526.728 341.443 526.709 340.686C526.67 339.079 526.038 337.534 524.889 336.402C523.426 334.961 521.834 334.717 520.047 334.69ZM361.467 334.966C362.721 334.966 363.974 334.966 365.228 334.966C374.005 334.966 382.784 334.966 391.561 334.966C424.578 334.966 457.596 334.948 490.614 335.02C498.555 335.038 506.494 335.057 514.435 335.074C516.107 335.078 517.78 335.083 519.452 335.086C520.151 335.088 520.88 335.048 521.579 335.153C522.819 335.338 523.986 335.922 524.877 336.805C525.911 337.829 526.578 339.246 526.613 340.71C526.64 341.792 526.397 342.897 526.265 343.966C526.059 345.637 525.852 347.306 525.646 348.977C524.46 358.585 523.28 368.195 522.095 377.803C518.643 405.806 515.192 433.813 511.75 461.818C510.619 471.017 509.491 480.213 508.361 489.412C508.002 492.34 507.639 495.268 507.28 498.196C507.114 499.549 507.018 500.935 506.769 502.275C506.359 504.485 504.595 506.292 502.425 506.841C501.535 507.067 500.626 507.021 499.716 507.021C498.88 507.022 498.046 507.021 497.21 507.021C488.016 507.023 478.817 507.029 469.622 507.033C436.187 507.049 402.754 507.089 369.32 507.154C361.379 507.169 353.439 507.185 345.498 507.202C344.244 507.204 342.991 507.211 341.737 507.214C341.038 507.215 340.304 507.255 339.604 507.154C338.227 506.953 336.953 506.26 336.03 505.219C335.142 504.219 334.592 502.914 334.558 501.572C334.53 500.475 334.774 499.358 334.906 498.274C335.111 496.599 335.314 494.926 335.519 493.251C336.748 483.205 337.978 473.155 339.208 463.109C344.225 422.127 349.277 381.15 354.312 340.169C354.311 340.169 354.313 340.163 354.312 340.163C354.679 337.764 356.355 335.749 358.758 335.141C359.65 334.915 360.556 334.966 361.467 334.966Z" fill="#fffdfb" stroke="none"/>
</g>
<g opacity="1">
<path d="M588.279 384.176C585.269 384.176 582.732 386.419 582.363 389.406L574.716 451.414C574.277 454.968 577.05 458.104 580.631 458.104L642.548 458.104C645.558 458.104 648.095 455.86 648.464 452.873L656.111 390.865C656.55 387.311 653.777 384.176 650.196 384.176L588.279 384.176ZM539.118 340.124C539.485 337.136 542.023 334.891 545.033 334.891L705.522 334.891C709.102 334.891 711.874 338.024 711.437 341.577L691.709 502.156C691.342 505.144 688.804 507.389 685.794 507.389L525.305 507.389C521.725 507.389 518.953 504.255 519.39 500.702L539.118 340.124Z" fill="url(#LinearGradient_7)" fill-rule="nonzero" stroke="none"/>
<path d="M649.655 384.032C649.175 384.035 648.699 384.056 648.26 384.058C647.615 384.06 646.97 384.063 646.325 384.065C643.101 384.079 639.876 384.098 636.651 384.101C620.527 384.118 604.402 384.101 588.277 384.101C587.549 384.122 586.813 384.216 586.134 384.499C585.628 384.711 585.332 384.846 584.88 385.16C583.702 385.98 582.832 387.221 582.486 388.616C582.268 389.494 582.221 390.406 582.111 391.304C581.951 392.595 581.792 393.887 581.633 395.178C581.473 396.47 581.314 397.764 581.155 399.056C579.483 412.61 577.813 426.164 576.124 439.716C575.722 442.936 575.32 446.157 574.918 449.377C574.613 451.83 574.3 453.907 575.895 455.989C576.834 457.214 578.226 458.053 579.754 458.286C580.662 458.424 581.693 458.358 582.57 458.363C583.215 458.366 583.86 458.367 584.505 458.37C587.73 458.385 590.954 458.398 594.18 458.409C605.144 458.447 616.11 458.465 627.074 458.471C630.944 458.473 634.814 458.474 638.684 458.473C640.085 458.473 641.529 458.549 642.928 458.463C643.527 458.426 644.149 458.307 644.704 458.075C645.211 457.863 645.508 457.724 645.96 457.409C647.161 456.574 648.032 455.307 648.383 453.887C648.606 452.986 648.658 452.051 648.771 451.13C648.931 449.837 649.09 448.545 649.249 447.252C649.408 445.96 649.568 444.667 649.727 443.375C651.398 429.789 653.063 416.202 654.722 402.615C655.118 399.377 655.512 396.14 655.907 392.902C656.204 390.47 656.525 388.412 654.931 386.357C653.989 385.144 652.595 384.327 651.074 384.109C650.619 384.044 650.135 384.029 649.655 384.032ZM588.28 384.25C604.404 384.25 620.529 384.234 636.654 384.25C640.524 384.254 644.393 384.278 648.263 384.294C649.138 384.298 650.167 384.23 651.074 384.368C652.455 384.579 653.734 385.285 654.656 386.334C655.54 387.341 656.089 388.65 656.12 389.996C656.141 390.877 655.939 391.889 655.838 392.704C655.757 393.348 655.676 393.992 655.596 394.636C655.275 397.213 654.953 399.791 654.632 402.368C652.946 415.909 651.266 429.452 649.591 442.994C649.431 444.285 649.273 445.576 649.113 446.867C648.954 448.158 648.792 449.45 648.633 450.742C648.526 451.604 648.487 452.479 648.276 453.321C647.935 454.679 647.073 455.883 645.927 456.68C645.477 456.992 645.182 457.127 644.678 457.338C644.127 457.568 643.51 457.687 642.916 457.723C640.873 457.847 638.785 457.733 636.738 457.733C632.869 457.733 628.999 457.733 625.129 457.736C614.165 457.743 603.201 457.766 592.237 457.805C589.012 457.817 585.788 457.831 582.563 457.846C581.687 457.85 580.659 457.927 579.752 457.797C578.239 457.581 576.852 456.768 575.915 455.562C574.408 453.619 574.709 451.887 574.99 449.578C575.069 448.93 575.148 448.28 575.227 447.632C575.543 445.042 575.859 442.451 576.175 439.86C577.831 426.283 579.509 412.71 581.183 399.135C581.422 397.198 581.661 395.258 581.9 393.321C582.059 392.03 582.198 390.736 582.378 389.448C582.451 388.923 582.535 388.541 582.727 388.045C583.63 385.724 585.845 384.321 588.28 384.25ZM704.863 334.69C704.267 334.681 703.652 334.695 703.012 334.696C701.758 334.699 700.505 334.705 699.251 334.708C691.311 334.726 683.37 334.745 675.43 334.762C642.413 334.834 609.394 334.816 576.377 334.816C567.182 334.816 557.989 334.816 548.795 334.816C547.959 334.816 547.119 334.816 546.283 334.816C545.371 334.816 544.466 334.764 543.574 334.99C541.139 335.607 539.474 337.655 539.104 340.079C539.103 340.079 539.104 340.084 539.104 340.085C534.018 381.482 528.948 422.88 523.844 464.275C522.607 474.301 521.368 484.33 520.131 494.357C519.925 496.028 519.718 497.696 519.512 499.367C519.422 500.099 519.296 500.848 519.314 501.59C519.348 503.041 519.872 504.447 520.834 505.537C521.76 506.588 523.041 507.295 524.426 507.502C525.536 507.668 526.699 507.566 527.815 507.568C529.069 507.571 530.322 507.578 531.576 507.58C539.517 507.596 547.456 507.607 555.397 507.622C588.415 507.686 621.432 507.733 654.45 507.748C663.645 507.753 672.844 507.753 682.039 507.754C682.874 507.755 683.708 507.76 684.544 507.76C685.457 507.761 686.366 507.806 687.259 507.58C689.548 507.001 691.291 505.078 691.717 502.774C692.048 500.986 692.174 499.141 692.396 497.337C692.756 494.41 693.118 491.48 693.478 488.553C694.608 479.352 695.737 470.153 696.866 460.953C700.256 433.34 703.645 405.729 707.026 378.115C708.255 368.069 709.479 358.02 710.708 347.973C710.913 346.299 711.122 344.625 711.327 342.951C711.419 342.204 711.55 341.443 711.531 340.686C711.492 339.079 710.86 337.534 709.711 336.402C708.248 334.961 706.65 334.717 704.863 334.69ZM546.289 334.966C547.543 334.966 548.796 334.966 550.05 334.966C558.827 334.966 567.6 334.966 576.377 334.966C609.395 334.966 642.412 334.948 675.43 335.02C683.371 335.038 691.316 335.057 699.257 335.074C700.929 335.078 702.596 335.083 704.268 335.086C704.967 335.088 705.702 335.048 706.401 335.153C707.641 335.338 708.808 335.922 709.699 336.805C710.733 337.829 711.4 339.246 711.435 340.71C711.462 341.792 711.219 342.897 711.087 343.966C710.881 345.637 710.674 347.306 710.468 348.977C709.282 358.585 708.096 368.195 706.911 377.803C703.459 405.806 700.014 433.813 696.572 461.818C695.441 471.017 694.307 480.213 693.177 489.412C692.818 492.34 692.461 495.268 692.102 498.196C691.936 499.549 691.84 500.935 691.591 502.275C691.181 504.485 689.411 506.292 687.241 506.841C686.351 507.067 685.448 507.021 684.538 507.021C683.702 507.022 682.862 507.021 682.027 507.021C672.832 507.023 663.639 507.029 654.444 507.033C621.009 507.049 587.576 507.089 554.142 507.154C546.201 507.169 538.261 507.185 530.32 507.202C529.066 507.204 527.813 507.211 526.559 507.214C525.86 507.215 525.126 507.255 524.426 507.154C523.049 506.953 521.769 506.26 520.846 505.219C519.958 504.219 519.414 502.914 519.38 501.572C519.352 500.475 519.596 499.358 519.728 498.274C519.933 496.599 520.136 494.926 520.341 493.251C521.57 483.205 522.8 473.155 524.03 463.109C529.047 422.127 534.099 381.15 539.134 340.169C539.133 340.169 539.135 340.163 539.134 340.163C539.501 337.764 541.171 335.749 543.574 335.141C544.466 334.915 545.378 334.966 546.289 334.966Z" fill="#fffdfb" stroke="none"/>
</g>
<g opacity="1">
<path d="M840.931 390.865C841.369 387.311 838.597 384.176 835.016 384.176L725.277 384.176C721.698 384.176 718.926 381.044 719.362 377.491L723.939 340.126C724.305 337.137 726.843 334.891 729.855 334.891L890.341 334.891C893.921 334.891 896.694 338.024 896.257 341.577L876.529 502.156C876.162 505.144 873.624 507.389 870.613 507.389L710.128 507.389C706.547 507.389 703.774 504.253 704.213 500.699L716.419 401.728C716.788 398.741 719.325 396.497 722.334 396.497L759.605 396.497C763.187 396.497 765.96 399.635 765.519 403.19L759.54 451.41C759.099 454.966 761.872 458.104 765.455 458.104L827.368 458.104C830.377 458.104 832.915 455.86 833.283 452.873L840.931 390.865Z" fill="url(#LinearGradient_8)" fill-rule="nonzero" stroke="none"/>
<path d="M889.686 334.588C889.089 334.578 888.47 334.593 887.829 334.594C884.904 334.596 881.98 334.596 879.054 334.6C865.263 334.615 851.47 334.635 837.678 334.654C810.513 334.691 783.35 334.734 756.184 334.769C749.08 334.778 741.972 334.791 734.868 334.799C733.614 334.801 732.36 334.798 731.106 334.799C729.418 334.801 727.889 334.87 726.456 335.87C724.043 337.553 723.963 339.76 723.638 342.419C723.447 343.976 723.26 345.537 723.069 347.094C722.163 354.489 721.254 361.88 720.348 369.275C720.062 371.611 719.775 373.949 719.489 376.284C719.448 376.623 719.425 376.951 719.392 377.282C719.459 376.582 719.58 375.885 719.665 375.196C719.951 372.86 720.237 370.528 720.523 368.193C721.429 360.798 722.333 353.4 723.238 346.005C723.429 344.448 723.622 342.893 723.813 341.336C724.085 339.124 724.481 337.409 726.462 336.033C728.249 334.791 730.291 334.978 732.364 334.981C733.618 334.982 734.872 334.985 736.125 334.987C743.23 334.995 750.337 335.002 757.442 335.011C784.609 335.046 811.77 335.089 838.936 335.126C852.31 335.144 865.686 335.165 879.06 335.18C881.986 335.184 884.91 335.183 887.835 335.186C890.386 335.189 892.572 334.985 894.511 336.904C895.52 337.902 896.199 339.283 896.235 340.714C896.261 341.777 896.02 342.868 895.89 343.919C895.787 344.755 895.685 345.592 895.582 346.428C894.862 352.28 894.143 358.132 893.423 363.984C890.336 389.068 887.248 414.153 884.164 439.237C882.16 455.544 880.157 471.852 878.153 488.16C877.691 491.924 877.231 495.687 876.769 499.45C876.474 501.849 876.477 503.817 874.543 505.528C872.385 507.437 869.514 507.021 866.845 507.022C862.666 507.022 858.488 507.021 854.309 507.022C836.338 507.023 818.367 507.027 800.397 507.034C776.575 507.043 752.751 507.057 728.929 507.076C723.914 507.08 718.898 507.083 713.883 507.088C710.855 507.091 707.882 507.589 705.677 505.099C705.407 504.794 705.165 504.46 704.963 504.107C703.803 502.078 704.377 499.969 704.649 497.757C705.093 494.147 705.535 490.537 705.979 486.926C707.82 471.967 709.661 457.008 711.501 442.049C712.769 431.732 714.035 421.416 715.304 411.099C715.622 408.519 715.943 405.937 716.26 403.358C716.447 401.837 716.565 400.476 717.457 399.191C718.407 397.825 719.941 396.891 721.594 396.688C722.602 396.564 723.653 396.641 724.666 396.639C725.83 396.638 726.996 396.635 728.161 396.633C736.702 396.622 745.243 396.613 753.784 396.603C755.337 396.601 756.887 396.599 758.44 396.597C759.114 396.596 759.812 396.559 760.484 396.658C762.138 396.9 763.641 397.86 764.566 399.252C765.301 400.358 765.519 401.452 765.515 402.584C765.536 401.381 765.359 400.249 764.578 399.07C763.651 397.671 762.145 396.705 760.484 396.458C759.432 396.301 758.331 396.393 757.273 396.391C756.108 396.39 754.942 396.393 753.778 396.391C745.236 396.382 736.696 396.373 728.155 396.361C726.602 396.359 725.052 396.357 723.499 396.355C723.011 396.355 722.127 396.327 721.588 396.391C719.929 396.591 718.388 397.526 717.433 398.895C716.241 400.605 716.253 402.742 716.006 404.737C715.687 407.312 715.369 409.884 715.05 412.459C713.84 422.246 712.632 432.032 711.422 441.819C709.574 456.758 707.723 471.697 705.877 486.636C705.431 490.242 704.986 493.848 704.54 497.455C704.239 499.894 703.641 502.389 704.927 504.645C705.201 505.126 705.544 505.568 705.937 505.957C708.154 508.152 711.019 507.684 713.895 507.687C718.911 507.692 723.926 507.695 728.941 507.699C752.763 507.718 776.586 507.732 800.409 507.741C818.798 507.748 837.184 507.758 855.573 507.759C859.752 507.76 863.93 507.759 868.109 507.759C870.533 507.76 872.641 507.968 874.579 506.254C876.808 504.282 876.729 501.326 877.065 498.592C877.527 494.828 877.987 491.065 878.45 487.301C880.453 470.991 882.458 454.682 884.461 438.372C887.594 412.857 890.723 387.34 893.852 361.825C894.519 356.386 895.187 350.948 895.854 345.509C896.255 342.238 897.159 338.893 894.536 336.305C893.072 334.861 891.474 334.618 889.686 334.588ZM719.392 377.282C719.387 377.334 719.385 377.387 719.38 377.439C719.385 377.387 719.387 377.334 719.392 377.282ZM719.38 377.439C719.314 378.186 719.291 378.929 719.477 379.689C720.012 381.872 721.778 383.622 723.976 384.109C724.961 384.327 725.998 384.248 726.994 384.248C727.565 384.248 728.134 384.248 728.705 384.248C733.278 384.248 737.854 384.248 742.427 384.248C766.432 384.248 790.433 384.248 814.439 384.248C816.725 384.248 819.016 384.248 821.302 384.248C823.017 384.248 824.728 384.248 826.443 384.248C828.157 384.248 829.874 384.248 831.589 384.248C832.732 384.248 833.875 384.24 835.018 384.248C835.457 384.251 835.889 384.299 836.318 384.394C838.498 384.877 840.268 386.609 840.799 388.778C840.966 389.461 840.976 390.138 840.914 390.834C838.922 406.98 836.93 423.121 834.939 439.267C834.461 443.143 833.984 447.021 833.506 450.896C833.397 451.782 833.353 452.679 833.137 453.545C832.793 454.928 831.928 456.162 830.76 456.974C829.102 458.127 827.375 458.026 825.433 458.026C824.788 458.026 824.142 458.026 823.497 458.026C821.563 458.026 819.627 458.026 817.692 458.026C808.663 458.026 799.635 458.026 790.606 458.026C783.512 458.026 776.42 458.026 769.325 458.026C765.94 458.026 762.603 458.555 760.49 455.371C759.776 454.295 759.557 453.224 759.547 452.124C759.54 453.281 759.728 454.371 760.484 455.51C761.411 456.908 762.919 457.872 764.578 458.117C765.486 458.251 766.513 458.177 767.39 458.177C768.68 458.177 769.971 458.177 771.26 458.177C778.355 458.177 785.447 458.177 792.541 458.177C801.57 458.177 810.598 458.177 819.627 458.177C821.562 458.177 823.498 458.177 825.433 458.177C827.377 458.177 829.107 458.274 830.766 457.119C833.538 455.191 833.402 452.086 833.778 449.04C834.176 445.81 834.571 442.581 834.969 439.352C836.961 423.204 838.952 407.054 840.944 390.907C840.945 390.906 840.944 390.897 840.944 390.894C841.023 389.996 840.979 389.123 840.702 388.258C840.533 387.729 840.29 387.226 839.983 386.764C839.055 385.368 837.553 384.409 835.895 384.164C835.053 384.039 834.125 384.103 833.3 384.103C831.586 384.103 829.869 384.103 828.154 384.103C827.011 384.103 825.868 384.103 824.725 384.103C823.01 384.103 821.3 384.103 819.585 384.103C817.87 384.103 816.153 384.103 814.439 384.103C790.433 384.103 766.426 384.103 742.421 384.103C737.848 384.103 733.278 384.103 728.705 384.103C727.562 384.103 726.419 384.111 725.276 384.103C724.838 384.1 724.405 384.053 723.976 383.958C721.797 383.476 720.028 381.747 719.495 379.58C719.322 378.875 719.321 378.155 719.38 377.439ZM759.547 452.124C759.547 452.055 759.545 451.987 759.547 451.918C759.546 451.987 759.546 452.056 759.547 452.124ZM759.547 451.918C759.563 450.805 759.776 449.657 759.928 448.435C760.177 446.426 760.428 444.421 760.678 442.412C761.985 431.865 763.292 421.313 764.602 410.766C764.852 408.758 765.103 406.751 765.352 404.743C765.446 403.985 765.502 403.289 765.515 402.608C765.509 403.741 765.283 404.911 765.128 406.158C764.88 408.168 764.633 410.177 764.385 412.187C763.079 422.736 761.768 433.284 760.46 443.833C760.211 445.842 759.959 447.853 759.71 449.862C759.62 450.59 759.565 451.263 759.547 451.918Z" fill="#fffdfb" stroke="none"/>
</g>
</g>
</g>
</g>
</g>
</svg>
